<?xml version="1.0" encoding="utf-8"?>
<!-- Generator: Adobe Illustrator 19.0.1, SVG Export Plug-In . SVG Version: 6.00 Build 0)  -->
<svg version="1.1" id="Layer_1" xmlns="http://www.w3.org/2000/svg" xmlns:xlink="http://www.w3.org/1999/xlink" x="0px" y="0px"
	 viewBox="-180 312.1 250.7 168.9" style="enable-background:new -180 312.1 250.7 168.9;" xml:space="preserve">
<g>
	<path d="M-129.2,380.3c3.3,2.3,4.2,4.8,3.4,8.6c-0.6,2.8-2.4,4.3-6,4.8c-1.3,0.2-2.7,0.2-4,0.2c-5.7,0-11.4,0-17,0
		c-0.1-0.2-0.3-0.4-0.4-0.7c0.5-0.4,1-1.2,1.5-1.2c1.6-0.1,2.1-0.9,2.1-2.4c0-5.7,0-11.4,0-17.1c0-1.5-0.4-2.4-2-2.4
		c-0.5,0-0.9-0.8-1.3-1.2c0.6-0.3,1.1-0.7,1.7-0.7c6,0,11.9-0.1,17.9,0c2.7,0,5.4,0.3,6.7,3.4C-125.6,374.7-126.4,377.6-129.2,380.3
		z M-145.6,381.6c0,3.1-0.1,5.9,0.1,8.6c0,0.5,0.8,1.5,1.3,1.5c3.6,0.1,7.3,0.2,10.9-0.1c2.4-0.2,3.4-2.1,3.3-5.5
		c-0.1-2.4-0.9-4.3-3.5-4.5C-137.4,381.5-141.3,381.6-145.6,381.6z M-139,379.4c1.6,0,3.2,0.1,4.8,0c2.6-0.2,3.7-1.6,3.6-4.9
		c-0.1-2.9-1-4-3.7-4.1c-3.1-0.1-6.2,0-9.3,0c-1.5,0-1.9,0.7-2,2.1C-146,379.4-146,379.4-139,379.4z"/>
	<path d="M23.1,415.7c2.9,3.2,5.5,6,8.1,8.9c0.3,0.3,0.6,0.9,0.5,1.1c-0.2,0.4-0.7,0.7-1.1,0.8c-2.7,0.2-5.3,0.4-6.5-3
		c-0.4-1.2-1.6-2.2-2.1-3.4c-2-4.7-5.7-5.3-10.1-4.7c-0.4,0.1-1.2,0.1-1.2,0.3c-0.2,2.4-0.5,4.9-0.3,7.3c0,0.6,1.5,1.1,2.2,1.7
		c0.4,0.3,0.8,0.8,1.1,1.2c-0.4,0.2-0.8,0.7-1.2,0.7c-2.8,0.1-5.5,0.1-8.3,0c-0.4,0-0.9-0.6-1.3-0.9c0.3-0.3,0.7-0.9,1-0.9
		c2.3,0,2.4-1.6,2.4-3.3c0-5.3,0-10.7,0-16c0-1.4-0.2-2.4-1.9-2.7c-0.6-0.1-1-0.8-1.6-1.2c0.6-0.3,1.2-0.7,1.7-0.7
		c6,0,12.1-0.1,18.1,0c4.2,0.1,6.3,1.8,6.8,5.3c0.7,4.3-0.9,7.3-4.6,8.7C24.7,414.9,24.4,415.1,23.1,415.7z M10.2,413.1
		c4.1,0,8,0.2,11.7-0.1c2.5-0.2,3.6-2.2,3.4-5.4c-0.1-3-1.1-4.5-3.7-4.6c-3.3-0.2-6.6-0.2-9.9-0.2c-0.5,0-1.5,0.8-1.5,1.3
		C10.2,407,10.2,410,10.2,413.1z"/>
	<path d="M-108.1,415.6c0,2.1,0.4,4.3-0.1,6.3c-0.8,3.2,3.7,1.7,3.5,4.4c-3.7,0-7.1,0-11.4,0c1-0.9,1.5-1.7,2-1.8
		c1.6-0.2,2.1-0.9,2.1-2.5c-0.1-5.7-0.1-11.4,0-17.1c0-1.5-0.6-2.3-2.1-2.4c-0.5,0-0.9-0.6-1.3-1c0.5-0.3,1-0.9,1.5-0.9
		c6.2-0.1,12.4-0.1,18.7,0c3.8,0.1,6,2,6.5,5.1c0.7,4.6-0.8,7.5-4.7,9c-0.3,0.1-0.6,0.3-1.5,0.7c2.9,3.7,5.6,7.1,8.4,10.6
		c-4.9,1-5.5,0.8-7.9-3.1c-0.6-1-1.2-2-1.8-2.9C-99.8,414.8-101.3,414.2-108.1,415.6z M-108,413.1c3.9,0,7.7,0.2,11.3-0.1
		c2.6-0.2,3.6-1.8,3.7-4.9c0-2.3-0.3-4.8-3.1-5.1c-3.9-0.3-7.9-0.1-12-0.1C-108,406.3-108,409.6-108,413.1z"/>
	<path d="M-59.8,415.4c1.4,2.2,2.6,4.2,4,6c1.3,1.6,2.8,2.9,4.5,4.6c-5.5,1-5.8,0.9-8.3-3.1c-0.6-1-1.4-1.9-1.8-2.9
		c-2-4.6-5.7-5.3-10.1-4.7c-0.4,0-1,0.1-1,0.2c-0.3,2.3-0.6,4.6-0.6,7c0,0.7,1.1,1.4,1.8,2.1c0.4,0.4,1,0.8,1.5,1.1
		c-0.5,0.3-1.1,0.8-1.6,0.8c-2.5,0.1-5,0.1-7.5,0c-0.5,0-1-0.6-1.6-0.9c0.4-0.3,0.8-1,1.3-1c1.8-0.1,2.1-1.2,2.1-2.7
		c0-5.5,0-11,0-16.5c0-1.6-0.4-2.6-2.2-2.7c-0.4,0-0.8-0.6-1.3-1c0.5-0.3,1-0.9,1.6-0.9c6.1-0.1,12.3-0.1,18.4,0
		c4,0.1,6.2,1.9,6.7,5.1c0.7,4.7-0.7,7.5-4.6,9C-58.9,414.9-59.2,415.1-59.8,415.4z M-67.3,413.3c1,0,2,0,2.9,0c1,0,2-0.1,2.9-0.3
		c2.5-0.5,3.5-2.2,3.4-5.5c-0.1-3-1.1-4.4-3.7-4.6c-2.2-0.2-4.4-0.2-6.7-0.2c-5.6,0-4.7-0.7-4.8,4.8
		C-73.3,413.3-73.2,413.3-67.3,413.3z"/>
	<path d="M-64.4,382.8c1.4,2.2,2.6,4.2,4,6c1.3,1.6,2.8,3,4.4,4.6c-5.3,1.1-5.8,0.9-8.2-3c-0.4-0.7-0.8-1.4-1.3-2
		c-3.9-6.2-4.5-6.5-12.3-5.4c0,2.5-0.1,5,0.1,7.5c0,0.6,1.4,1,2.1,1.5c0.4,0.3,0.7,0.8,1.1,1.2c-0.4,0.2-0.8,0.6-1.3,0.7
		c-3.1,0.1-6.2,0-9.3,0c-0.1-0.2-0.2-0.5-0.3-0.7c0.6-0.4,1.1-1.1,1.7-1.2c1.7-0.2,2-1.2,2-2.6c0-5.6,0-11.2,0-16.8
		c0-1.4-0.4-2.4-2-2.5c-0.5-0.1-1-0.7-1.4-1.1c0.5-0.3,0.9-0.8,1.4-0.8c6.5,0,13-0.1,19.5,0.1c3.6,0.1,5.5,2.1,5.8,5.4
		c0.5,4.2-0.9,7.1-4.1,8.4C-63,382.4-63.5,382.5-64.4,382.8z M-77.6,370.4c0,3.6,0,6.9,0,10.2c3.9,0,7.5,0.2,11.2-0.1
		c2.7-0.2,3.7-1.8,3.7-4.9c0-3.5-0.8-5.1-3.6-5.2C-70,370.2-73.7,370.4-77.6,370.4z"/>
	<path d="M38.4,387.3c0-5.1,0.1-10.1-0.1-15.2c0-0.7-1.2-1.3-1.9-2c-0.4-0.4-0.8-0.7-1.2-1.1c0.5-0.3,0.9-0.8,1.4-0.8
		c2-0.1,3.9-0.1,5.9,0c0.5,0,1,0.5,1.5,0.7c-0.4,0.4-0.7,1.1-1.1,1.1c-2.1,0.2-2,1.7-2,3.1c0,6.7,0,13.5,0,20.3
		c-1.9,0.8-3.1,0.2-4.3-1.1c-5.2-5.7-10.6-11.3-15.9-16.9c-0.4-0.4-0.9-0.8-1.9-1.7c0,2.8,0,5.1,0,7.3c0,2.1,0,4.3,0,6.4
		c0,2.1-0.7,4.7,2.8,4.8c0.2,0,0.3,0.9,0.5,1.5c-3.1,0-6,0-9.7,0c0.8-0.9,1.3-1.7,1.7-1.7c2.1-0.1,2.2-1.4,2.2-3c0-5.3,0-10.7,0-16
		c0-1.5-0.1-2.9-2.1-3c-0.4,0-0.8-0.7-1.1-1.1c0.5-0.3,0.9-0.7,1.4-0.8c3.2-0.3,5.8,0.1,8.2,3c4.1,5,8.8,9.5,13.2,14.3
		c0.6,0.7,1.2,1.5,1.7,2.3C37.8,387.6,38.1,387.5,38.4,387.3z"/>
	<path d="M-38,424.1c3.7,0,7.2,0.1,10.8,0c2.4-0.1,2.7-1.9,2.9-3.8c0.2-1.7,0.8-2.5,2.7-1.6c0,2.4,0,4.9,0,7.4
		c-0.5,0.1-0.9,0.3-1.4,0.3c-6.9,0-13.9,0-20.8,0c-0.6,0-1.2-0.6-1.8-0.9c0.5-0.4,1-1,1.5-1c1.6-0.2,1.8-1,1.8-2.4
		c0-5.6-0.1-11.2,0-16.8c0-1.6-0.4-2.5-2.2-2.7c-0.4,0-0.8-0.7-1.2-1c0.5-0.3,0.9-0.8,1.4-0.9c7.5-0.1,14.9,0,22.6,0
		c0,2.4,0,4.5,0,6.8c-1.7,0.7-2.5,0.2-2.5-1.6c0-2.3-1.3-3-3.5-3c-3.4,0.1-6.7,0-10.3,0c0,3,0,5.9,0,9.1c2.3,0,4.6,0.2,6.8-0.1
		c0.7-0.1,1.2-1.4,1.8-2.1c0.4-0.5,0.8-0.9,1.2-1.4c0.4,0.5,1,1,1,1.5c0.1,2.1,0.1,4.3,0,6.4c0,0.5-0.7,1-1.1,1.5
		c-0.4-0.5-1.1-0.9-1.1-1.4c-0.2-1.7-1.1-2.3-2.7-2.3c-1.9,0-3.9,0-6,0C-38,417.4-38,420.6-38,424.1z"/>
	<path d="M-147.1,400.8c7.9,0,15.8,0,24,0c0,2,0.1,3.8-0.1,5.6c0,0.5-0.8,1.2-1.2,1.2c-0.5,0-1.4-0.7-1.3-1.1c0.1-3.7-2.3-3.8-5-3.7
		c-2.4,0.1-4.8-0.3-7.2,0.1c-4,0.6-1.3,3.8-1.8,5.8c-0.3,1.2-0.9,3.5,1.9,3.3c1.4-0.1,2.8,0,4.3,0c1.6,0.1,2.5-0.6,2.7-2.2
		c0.1-0.5,0.7-1,1.1-1.4c0.4,0.6,1,1.1,1,1.7c0.1,1.9,0.1,3.9,0,5.9c0,0.6-0.7,1.2-1,1.8c-0.4-0.5-1.1-0.9-1.1-1.4
		c-0.2-1.8-1.3-2.3-3-2.3c-1.9,0.1-3.7,0-6,0c0,3.1-0.1,6,0.1,8.9c0,0.4,1.2,1.1,1.9,1.2c2.7,0.1,5.3,0,8,0.1c2.5,0.1,3.7-1.1,4-3.6
		c0.1-0.8,1-1.5,1.5-2.2c0.4,0.8,1.1,1.6,1.2,2.4c0.2,1.7,0.1,3.5,0.1,5.5c-8.1,0-16,0-24.7,0c0.9-0.9,1.3-1.7,1.8-1.7
		c2-0.1,2.2-1.3,2.2-2.9c-0.1-5.3-0.1-10.7,0-16c0-1.7-0.2-3-2.3-3c-0.5,0-0.9-0.7-1.4-1C-147.3,401.3-147.2,401.1-147.1,400.8z"/>
	<path d="M-5.6,367.8c0.6,0,1.2,0,1.9,0C9,368.4,11,377.3,9.1,385.6c-0.9,4.1-3.7,6.6-7.7,7.7c-4.7,1.3-9.5,1.4-14.2-0.1
		c-5.5-1.7-8.2-6-8.1-12.6c0.1-6.3,2.7-10.4,8.2-12c2.3-0.7,4.7-0.9,7-1.3C-5.6,367.6-5.6,367.7-5.6,367.8z M-16.6,381.3
		c0.2,1.4,0.3,3.1,0.6,4.9c0.4,2.6,2,4.4,4.5,5.2c3.9,1.3,7.9,1.3,11.8,0c2.7-0.9,4.4-2.9,4.6-5.7c0.3-3.1,0.3-6.2,0-9.3
		c-0.3-3.5-2.6-5.8-6-6.2c-3-0.4-6-0.3-9,0c-3.6,0.4-5.6,2.8-6.2,6.4C-16.4,378.1-16.4,379.5-16.6,381.3z"/>
	<path d="M61.9,424.2c-1.8-7-2.4-7.3-12.9-7.2c-2.7,0-4.4,2.1-5.6,7.2c1.1,0.1,2.2,0.1,3.3,0.3c0.4,0.1,0.7,0.6,1,1
		c-0.4,0.3-0.7,0.8-1.1,0.8c-3,0.1-6,0.1-9.1,0c-0.4,0-0.8-0.5-1.2-0.7c0.4-0.4,0.8-1.1,1.1-1.1c2.5,0.1,3.4-1.6,4.3-3.3
		c3.3-6.3,6.6-12.6,10.1-18.8c0.4-0.7,1.3-1.5,2.1-1.6c0.5-0.1,1.4,0.8,1.8,1.5c3.4,6.3,6.8,12.7,10.2,19.1c0.9,1.7,1.9,3.2,4.1,3.1
		c0.4,0,0.8,0.7,1.2,1c-0.5,0.3-0.9,0.8-1.4,0.8c-3.5,0.1-6.9,0.1-10.4,0c-0.6,0-1.1-0.5-1.7-0.8c0.6-0.4,1.1-0.9,1.7-1.1
		C60.1,424.3,60.9,424.3,61.9,424.2z M52.6,405.7c-1.8,3.3-3.2,6.1-4.8,9.1c3.4,0,6.4,0,9.6,0C55.8,411.7,54.3,409,52.6,405.7z"/>
	<path d="M-116.7,391.7c1.2,0.1,2.1,0.1,3.1,0.3c0.5,0.1,0.8,0.7,1.2,1c-0.5,0.3-0.9,0.8-1.4,0.8c-3.2,0.1-6.4,0-9.6,0
		c-0.2-0.2-0.3-0.5-0.5-0.7c0.5-0.4,1.1-1.2,1.6-1.2c1.9,0,2.8-1.2,3.6-2.7c3.3-6.4,6.7-12.7,10.2-19.1c0.5-0.8,1.5-2,2.1-1.9
		c0.9,0.2,1.8,1.2,2.3,2.1c3.4,6.2,6.7,12.4,9.9,18.6c0.9,1.7,1.8,3,3.9,3.1c0.4,0,0.9,0.6,1.3,1c-0.4,0.3-0.9,0.9-1.3,0.9
		c-4,0.1-8,0-12.3,0c0.4-3.1,3.3-1.1,4.2-2.5c-0.7-3.9-2.8-6.8-4.9-6.9C-113.8,384.1-114.9,384.7-116.7,391.7z M-102.5,382.4
		c-1.7-3.2-3.2-6-4.9-9.2c-1.8,3.3-3.3,6.1-4.9,9.2C-108.8,382.4-106,382.4-102.5,382.4z"/>
	<path d="M-180,425.5c0.5-0.3,1.1-0.9,1.6-1c1.6-0.2,2-1.1,2-2.5c0-5.5,0-11,0-16.5c0-1.6-0.4-2.7-2.3-2.9c-0.5,0-0.9-0.8-1.4-1.2
		c0.1-0.2,0.2-0.5,0.3-0.7c3.2,0,6.4,0,9.5,0c3.6,0,7.1-0.1,10.7,0c4.5,0.1,6.3,2,6.6,6.3c0.3,4.7-1.7,7.6-6,8
		c-3.6,0.3-7.3,0.3-10.9,0.2c-2.1-0.1-2.9,0.6-2.7,2.7c0.1,1.2,0.1,2.5,0,3.7c-0.1,1.6,0.2,2.8,2.2,2.9c0.4,0,0.8,0.6,1.2,1
		c-0.4,0.3-0.9,0.8-1.4,0.8c-3.1,0.1-6.2,0-9.3,0C-179.8,426.1-179.9,425.8-180,425.5z M-172.5,413.1c4.1,0,8,0.2,11.9-0.1
		c2.7-0.2,3.5-2.3,3.3-6.3c-0.1-2.6-1.4-3.9-4-3.9c-3.1,0-6.2-0.1-9.3,0c-0.6,0-1.7,1-1.8,1.6C-172.6,407.2-172.5,410.1-172.5,413.1
		z"/>
	<path d="M-44.9,393c0.6-0.3,1.3-0.6,1.8-1c0.7-0.5,1.8-1.2,1.8-1.8c0.1-6.5,0.1-12.9,0.1-19.7c-2,0-4-0.4-5.7,0.1
		c-1.3,0.4-2.2,2-3.3,3c-0.7,0.6-1.3,1.3-1.9,2c-0.2-0.2-0.5-0.3-0.7-0.5c0-2.2,0-4.3,0-6.7c9,0,18,0,27.2,0c0,2.3,0,4.5,0,6.7
		c-0.2,0.2-0.4,0.3-0.6,0.5c-0.7-0.6-1.6-1.1-2-1.9c-1.3-2.8-5.4-4.6-8.3-3.3c-0.4,0.2-0.8,1-0.8,1.5c-0.1,6-0.1,11.9,0,17.9
		c0,0.7,1.2,1.5,2,2.2c0.4,0.4,1,0.7,1.5,1c-0.5,0.3-1,0.9-1.6,0.9c-3.1,0.1-6.2,0-9.3,0C-44.6,393.6-44.8,393.3-44.9,393z"/>
	<path d="M-2.5,426.4c-4,0-7.2,0-10.4,0c-0.4,0-0.7-0.6-1-0.9c0.3-0.3,0.7-0.9,1-0.9c2.4,0,2.3-1.6,2.3-3.3c0-5.1,0-10.3,0-15.4
		c0-1.8-0.1-3.2-2.4-3.3c-0.4,0-0.8-0.8-1.7-1.8c4.1,0,7.2,0,10.4,0c0.4,0,0.7,0.6,1.1,0.9c-0.3,0.3-0.7,0.9-1,1
		c-2.4,0-2.3,1.6-2.3,3.3c0,5.1,0,10.3,0,15.4c0,1.8,0.1,3.2,2.4,3.3C-3.7,424.6-3.4,425.4-2.5,426.4z"/>
</g>
</svg>
