<?xml version="1.0" encoding="utf-8"?>
<!-- Generator: Adobe Illustrator 19.0.1, SVG Export Plug-In . SVG Version: 6.00 Build 0)  -->
<svg version="1.1" id="Layer_1" xmlns="http://www.w3.org/2000/svg" xmlns:xlink="http://www.w3.org/1999/xlink" x="0px" y="0px"
	 viewBox="0 0 250.7 168.9" style="enable-background:new 0 0 250.7 168.9;" xml:space="preserve">
<style type="text/css">
	.st0{fill:#FFFFFF;}
</style>
<g>
	<path d="M214.6,168.9c-9.7-15.3-19.5-30.6-29.4-46.2c0,14.5,0,28.7,0,43c1.3,0.1,2.5,0.2,3.7,0.4c0,0,0,0.6,0,0.9
		c-7.9,0-15.8,0-23.7,0c-0.3-0.8-0.2-1.2,0.8-1.2c1.5,0,3.1,0,4.9,0c-1.6-4.9-3.1-9.6-4.7-14.3c-5.3,0-10.5,0-15.7,0
		c-1.6,4.7-3.1,9.3-4.8,14.2c1.5,0,2.7,0,4,0c0.4,1,0.3,1.4-0.7,1.4c-6.6,0-13.2,0-19.8,0c-0.4,0-0.7-0.5-1.1-0.8
		c0.1-0.2,0.2-0.3,0.3-0.5c1.2,0,2.3,0,3.6,0c0-13.7,0-27.3,0-41.3c-4.9,14.6-9.7,28.9-14.5,43.1c-0.1,0.1-0.3,0.1-0.4,0.2
		c-5.3-13.9-10.2-28-15.6-42.3c0,13.6,0,26.8,0,40c1.2,0.9,3.2-0.7,4.1,1c0,0.2-0.1,0.4-0.1,0.6c-4.3,0-8.7,0-13,0
		c-2,0-3.7-0.5-5.3-1.6c-2.6-1.7-3.9-4.2-4.2-7.2c-0.3-2.8-0.1-5.6-0.4-8.4c-0.2-1.7-0.9-3.3-1.7-4.9c-1.1-2.2-3.4-2.2-5.4-2.5
		c-1.8-0.2-3.6-0.1-5.5-0.1c0,7.8,0,15.4,0,23.2c1.8,0,3.6,0,5.4,0c0.4,0.9,0.3,1.3-0.8,1.3c-9.8,0-19.6,0-29.4,0
		c-0.4,0-0.7-0.5-1.1-0.8c0.1-0.2,0.2-0.3,0.3-0.5c1.8,0,3.7,0,5.8,0c-1.6-4.7-3.1-9.1-4.6-13.6c-0.1-0.3-0.7-0.7-1.1-0.7
		c-4.8-0.1-9.7,0-14.6,0c-1.6,4.8-3.3,9.5-4.9,14.2c1.4,0.1,2.7,0.2,4,0.4c0,0,0,0.6,0,0.9c-3.1,0-6,0-9,0c-0.2-1.2-0.1-1.3,0.8-1.2
		c1.8,0.3,2.5-0.6,3-2.2c2.1-6.5,4.5-12.8,6.7-19.3c3.1-8.9,6.1-17.8,9.2-26.7c0.1-0.2,0.3-0.4,0.5-0.9c0.3,0.4,0.5,0.7,0.6,1.1
		c1.2,3.5,2.5,7,3.7,10.5c2.8,8.3,5.5,16.7,8.3,25.1c1.3,3.8,2.6,7.7,4,11.5c0.1,0.4,0.8,0.8,1.2,0.9c1.9,0.1,3.7,0,5.7,0
		c0-15.2,0-30.3,0-45.6c-1.1,0-2.3,0-3.5,0c-0.4-0.9-0.4-1.4,0.7-1.4c5.7,0,11.4-0.2,17.1,0.1c4.2,0.2,8.1,1.8,10.2,5.8
		c3.7,6.8,1.1,14-6.4,17c3.5,1.1,5.8,3.3,6.6,6.8c0.3,1.2,0.5,2.5,0.5,3.7c0.2,3.3,0.1,6.7,0.4,10c0.3,2.4,1.9,3.6,4.4,3.6
		c2,0,3.9,0,6,0c0-15.2,0-30.3,0-45.6c-1.2,0-2.3,0-3.5,0c-0.4-0.9-0.3-1.4,0.7-1.3c2.7,0,5.3-0.1,8,0.1c0.5,0,1.3,0.6,1.5,1.2
		c2.6,7.3,5.1,14.7,7.7,22c1.6,4.6,3.3,9.2,5.1,14.1c1-2.9,1.8-5.5,2.7-8.1c2.7-8,5.4-16,8.2-24.1c0.4-1.1,1-2.1,1.1-3.2
		c0.3-1.8,1.3-2.2,2.9-2.1c2.4,0.1,4.8,0,7.1,0c0.2,1.2,0.2,1.2-0.9,1.3c-0.7,0-1.5,0-2.3,0c0,15.2,0,30.3,0,45.5c1.8,0,3.6,0,5.5,0
		c2.4-6.8,4.8-13.7,7.1-20.5c3-8.7,6-17.5,9-26.2c0.2-0.7,0.7-1.3,1.1-1.9c0.3,0.6,0.8,1.3,1,2c2.6,7.8,5.2,15.6,7.8,23.4
		c2.2,6.6,4.5,13.2,6.7,19.8c1.2,3.7,1.2,3.7,5.3,3.7c0.5,0,1,0,1.6,0c0-15.2,0-30.3,0-45.5c-1.2-0.1-2.5-0.2-3.7-0.4c0,0,0-0.6,0-1
		c3.4,0,6.8,0,10.1,0c0.4,0,0.8,0.4,1,0.7c3.4,5.3,6.8,10.7,10.2,16c3,4.7,6,9.4,9,14.1c1.1,1.7,2.1,3.5,3.4,5.6c0-12,0-23.5,0-35
		c-1.3-0.2-2.5-0.4-3.7-0.6c0,0,0-0.5,0-0.8c7.7,0,15.4,0,23,0c0.2,1.2,0.2,1.2-0.9,1.2c-0.7,0-1.5,0-2.3,0c0,15.2,0,30.3,0,45.4
		c1.1,0.2,2.2,0.3,3.4,0.6c0,0,0,0.5,0,0.8c-4.4,0-8.8,0-13.1,0c-0.3-1.2-0.3-1.2,1-1.2c0.8,0,1.6,0,2.5,0c0-15.2,0-30.4,0-45.6
		c-2.7,0-5.3,0-8.2,0c0,16.1,0,32.2,0,48.4C215,168.7,214.8,168.8,214.6,168.9z M70.1,120.2c0,7,0,13.8,0,20.6
		c4.5,0.5,8.7,0,11.3-4.2c2.6-4.3,2.3-8.7-0.3-12.7C78.5,120.1,74.3,119.9,70.1,120.2z M44.9,149.8c-2.4-7.2-4.7-14.3-7.1-21.7
		c-2.5,7.4-5,14.5-7.4,21.7C35.4,149.8,40.1,149.8,44.9,149.8z M158.6,128.1c-2.6,7.4-5,14.5-7.5,21.7c4.9,0,9.6,0,14.5,0
		C163.3,142.6,161,135.5,158.6,128.1z"/>
	<path d="M40,48.2c1.3,0,2.6,0,3.8,0c0.4,0.8,0.4,1.3-0.7,1.3c-2.6,0-5.1,0-7.7,0c-0.4,0-0.7-0.5-1.1-0.7c0.1-0.2,0.2-0.3,0.3-0.5
		c1.2,0,2.3,0,3.6,0c0-15.2,0-30.4,0-45.6c-1.2-0.1-2.4-0.2-3.6-0.4c0,0,0-0.6,0-1c3.1,0,6.1,0,9.2,0c0.4,0,0.9,0.6,1,1
		c2.4,6.8,4.8,13.6,7.2,20.4c1.8,5.2,3.8,10.3,5.7,15.7c4.3-12.5,8.5-24.9,12.7-37.3c9.3,0,18.6-0.3,27.9,0.1
		c6,0.2,11.4,3.5,12.8,10.4c1.2,6,0.3,12.1-6.3,15.8c-2.3,1.3-5.1,1.6-7.8,2.1c-1.8,0.3-3.8,0.1-5.8,0.1c0,6.2,0,12.2,0,18.4
		c1.2,0.1,2.5,0.2,3.7,0.4c0,0,0,0.6,0,1c-9.4,0-18.8,0-28.1,0c-0.2-0.9-0.2-0.9,3.5-1.3c0-13.7,0-27.3,0-41c-0.1,0-0.1,0-0.2,0
		c-4.8,14.4-9.6,28.8-14.4,43.1c-0.2,0-0.3,0-0.5,0c-5-13.8-10.1-27.7-15.1-41.5c-0.1,0-0.1,0-0.2,0C40,21.8,40,34.9,40,48.2z
		 M84.8,48.2c0-15.2,0-30.4,0-45.4c-2.8,0-5.5,0-8.1,0c0,15.2,0,30.3,0,45.4C79.4,48.2,82,48.2,84.8,48.2z M91.3,28.6
		c2.3-0.3,4.6-0.4,6.8-0.9c2.4-0.6,4.3-2.2,5.3-4.5c1.5-3.7,1.7-7.6,1-11.6c-0.5-2.5-1.2-5-3.3-6.7c-2.8-2.2-6.1-2.6-9.7-2.2
		C91.3,11.3,91.3,19.7,91.3,28.6z"/>
	<path d="M203.7,48.2c1.2,0,2.3,0,3.5,0c0.4,0.8,0.4,1.3-0.7,1.3c-6,0-12,0.1-18-0.1c-2.9-0.1-6.1-3.1-7.2-5.9
		c-0.9-2.2-0.9-4.5-1-6.8c-0.1-2.5-0.3-5-0.7-7.5c-0.4-2.4-2.4-3.4-4.5-4c-0.7-0.2-1.4-0.3-2.2-0.3c-1.8,0-3.7,0-5.6,0
		c0,7.8,0,15.4,0,23.3c1.7,0,3.3,0,5,0c0.4,0,0.7,0.5,1.1,0.7c-0.1,0.1-0.2,0.3-0.2,0.4c-5.2,0-10.4,0-15.6,0
		c-0.2-1.2-0.2-1.2,1-1.2c0.8,0,1.6,0,2.5,0c0-15.2,0-30.4,0-45.4c-1.2-0.8-3,0.7-4-1.5c0.9,0,1.5,0,2.1,0c5.2,0,10.4-0.1,15.6,0
		c5.8,0.2,11.2,3.1,12.4,9.5c0.7,3.5,0.1,6.9-2.5,9.5c-1.5,1.5-3.2,2.6-4.8,3.9c3.5,1.4,6,4.1,6.4,8.2c0.3,3.3,0.3,6.7,0.4,10
		c0,0.6-0.1,1.3,0,1.9c0.4,2.4,2.3,3.9,4.8,3.9c2,0,3.9,0,6,0c0-15.2,0-30.4,0-45.6c-1.3,0-2.6,0-3.9,0c-0.3-0.9-0.2-1.3,0.8-1.3
		c4,0,8.1,0,12.1,0c0.4,0,0.7,0.5,1.1,0.8c-0.1,0.1-0.2,0.3-0.3,0.4c-1.2,0-2.3,0-3.6,0C203.7,17.8,203.7,32.9,203.7,48.2z
		 M167.3,23.2c6.1,0.7,9.3-0.3,12.1-5.2c1.9-3.2,1.5-9.1-1.3-12.2c-2.8-3.2-6.8-3.5-10.8-3.1C167.3,9.6,167.3,16.4,167.3,23.2z"/>
	<path d="M156,25.5c0.3,7.6-2.3,13.9-7.2,19.2c-6.6,7.1-16.7,8.5-24.6,2.3c-5.5-4.3-8.5-10-9.7-16.8c-1-5.7-0.2-11.2,2.2-16.4
		c2.2-4.8,5.2-8.8,10-11.5c5.9-3.3,13.3-2.8,18.6,1.4c6,4.7,9.1,11,10.6,18.3C156.3,23.1,156,24.4,156,25.5z M148.5,23.5
		c-0.4-2.5-0.9-7-1.8-11.5c-0.7-3.5-2.5-6.7-5.6-8.7c-5.5-3.6-12.6-1.9-15.8,4.3c-2.6,5.1-3.1,10.8-3.4,16.3c-0.2,2.6,0.4,5.3,0.6,8
		c0.2,3.9,1,7.6,2.7,11c2.6,5.3,8,7.5,13.8,5.6c3.9-1.3,5.8-4.4,7.2-7.9C148.1,35.8,148.3,30.7,148.5,23.5z"/>
	<path d="M250.7,25.6c-0.2,7.2-2.3,13.7-7.2,18.9c-4.1,4.3-9.3,6.9-15.5,6.3c-5.1-0.5-9.3-3.1-12.6-6.9c-3.7-4.2-6-9.2-6.6-14.7
		c-0.8-8,1-15.4,6.3-21.7c2.7-3.3,5.9-5.7,10-6.8c5.8-1.7,10.9-0.1,15.5,3.7c5.1,4.2,8.1,9.7,9.4,16.1
		C250.4,22.1,250.5,23.9,250.7,25.6z M242.7,25.6c-0.2-2.4-0.2-4.9-0.5-7.3c-0.4-4.1-1.3-8-3.5-11.5c-2.5-4.1-6.2-5.6-10.8-5.1
		c-4.3,0.5-7,3.3-8.7,7c-2.3,5.2-2.6,10.7-2.9,16.2c-0.1,1.7,0.2,3.4,0.3,5c0.1,4.8,1.1,9.4,3.3,13.7c2.4,4.7,7.9,6.4,12.5,5.3
		c4.7-1.1,6.7-4.7,8.2-8.7C242.4,35.6,242.7,30.6,242.7,25.6z"/>
	<path d="M10,24.5c2.3-0.2,4.5-0.1,6.5-0.7c3-0.8,3.8-3.4,4-6.4c0.4,0,0.9,0,1.5,0c0,0.4,0,0.8,0,1.1c0,4.8,0,9.7,0,14.6
		c-0.5,0-1,0-1.3,0c-0.4-1.4-0.6-2.8-1.2-4c-1.3-2.7-4-2.8-6.6-3.2c-0.9-0.1-1.9,0-3,0c0,7.4,0,14.8,0,22.1c3.3,0,6.6,0.2,9.9-0.1
		c2-0.1,4-0.7,5.8-1.5c2.8-1.1,4-3.6,4.5-6.3c0.3-1.6,0.3-3.2,0.5-4.9c0.4,0,0.9,0,1.4,0c0,4.7,0,9.4,0,14.2c-0.4,0-0.8,0.1-1.2,0.1
		c-9.8,0-19.7,0-29.5,0c-0.7,0-1.8,0.3-1.3-1.2c1.1,0,2.3,0,3.6,0c0-15.2,0-30.4,0-45.6c-1.1,0-2.3,0-3.4,0
		c-0.8-1.6,0.3-1.3,1.1-1.3c8.2,0,16.5,0,24.7,0c2,0,3.9,0,6,0c0,4.3,0,8.4,0,12.7c-0.5,0-0.9,0-1,0c-0.6-2.4-1.1-4.7-1.8-6.9
		c-0.9-2.8-3.2-4-5.8-4.1c-4.5-0.3-9-0.1-13.6-0.1C10,9.8,10,17,10,24.5z"/>
	<path d="M116.9,79.6c0.4-0.9,0.7-1.5,1-2.2c5.2,0,10.5-0.1,15.8,0.1c0.8,0,1.6,1.1,2.5,1.9c1.3-2.5,3.7-1.9,5.9-1.9
		c6.1,0,12.1,0,18.2,0c0.6,0,1.2,0,1.7,0c0.6,3.4-1.9,6.4-5.2,6.4c-20,0-40,0-60,0c-3.7,0-5.9-2.4-5.7-6.4c0.5,0,1.1,0,1.7,0
		c6.5,0,13,0,19.5,0C114,77.4,115.8,77.2,116.9,79.6z"/>
	<path d="M119.6,88.2c-2.3-0.7-4.5,0.2-6.2,2.8c-0.6,0.9-1.2,1.1-2.2,1.1c-2.9,0-5.8,0-8.8,0c-2.6,0-5.3-3.3-4.8-5.8
		c0.1-0.3,0.5-0.6,0.9-0.8c0.2-0.1,0.5,0,0.8,0c18.2,0,36.4,0,54.5,0c0.5,0,0.9,0,1.4,0.1c0.3,2.2-0.2,4.1-1.9,5.5
		c-0.7,0.6-1.7,1.1-2.6,1.1c-5.3,0.1-10.5,0-15.8,0.1c-1.3,0-2.1-0.3-2.3-1.7c-0.1-0.6-0.5-1.3-0.7-1.9c-0.1,0-0.2,0.1-0.2,0.1
		c-1.2,3.4-1.2,3.4-4.8,3.4c-1.3,0-2.6,0-4.1,0c0-1.4,0-2.6,0-3.5C121.7,88.4,120.6,88.3,119.6,88.2L119.6,88.2z"/>
	<path d="M120.6,103.2c0.9-0.2,2-0.8,2.7,0.7c0.1-0.6,0.2-1.2,0.3-1.9c3.6,0,7.1,0,10.7,0c0.3,0,0.6,0.5,0.9,0.8
		c-0.3,0.2-0.6,0.5-0.9,0.7c-0.2,0.1-0.5,0.1-0.7,0.3c1.7,0,3.4,0,5,0c0-0.1,0-0.1,0-0.2c-0.5-0.1-0.9-0.1-1.4-0.2
		c-0.1-0.4-0.3-0.9-0.5-1.4c1.4,0,2.7,0,4,0c0.6,3.1,0,4.7-2.4,6.2c-0.4,0.3-1,0.4-1.4,0.4c-7,0-13.9,0-20.9,0
		c-1.7,0-3.8-1.9-4.1-3.8c-0.1-0.3-0.1-0.6-0.1-0.9c0-0.6,0.1-1.3,0.2-1.9c0.8,0.1,1.7,0.1,2.5,0.4c0.9,0.3,1.7,0.9,2.5,1.3
		C118.4,104.6,119.6,104.1,120.6,103.2z"/>
	<path d="M84,69.1c1.7,0,3.3,0,4.8,0c6,0,12,0,18,0.1c0.8,0,1.8,0.5,2.3,1.1c1.4,1.4,2.6,3,4.1,4.9c-1,0-1.5,0-2.1,0
		c-7.2,0-14.5,0-21.7,0C85.6,75.2,83.8,73.2,84,69.1z"/>
	<path d="M169,69.1c0.7,2.9-1,4.3-2.7,5.8c-0.2,0.2-0.6,0.2-0.9,0.2c-8.4,0-16.8,0-25.6,0c1.4-1.7,2.6-3.1,3.7-4.6
		c0.9-1.2,2-1.5,3.4-1.5c6.7,0.1,13.5,0,20.2,0C167.8,69.1,168.4,69.1,169,69.1z"/>
	<path d="M176,60.8c0.7,2.8-1,4.3-2.7,5.8c-0.2,0.2-0.6,0.2-0.9,0.2c-8.4,0-16.8,0-25.6,0c0.8-1,1.3-1.7,1.9-2.5
		c0.5-0.6,1-1.2,1.5-1.8c0.9-1.3,2-1.8,3.7-1.8c6.7,0.1,13.5,0,20.2,0C174.8,60.8,175.4,60.8,176,60.8z"/>
	<path d="M77,60.8c5.1,0,10.2,0,15.2,0c1.4,0,2.9,0.2,4.3,0c3.9-0.7,6.4,1.2,8.2,4.3c0.3,0.5,0.8,0.9,1.6,1.8c-0.9,0-1.4,0-2,0
		c-7.3,0-14.7,0-22,0C78.7,66.9,76.7,64.6,77,60.8z"/>
	<path d="M117.3,67.2c0.6-2.2,1.1-4,1.7-5.9c0.1-0.4,0.8-0.8,1.3-0.8c4.5-0.1,9-0.1,13.5,0c2.2,0,4.4,2.7,4.3,5.1c-1,0-2.1,0-3.1,0
		c-1,0-2,0-2.5,1.2c-0.1,0.2-0.5,0.4-0.7,0.4C127.1,67.2,122.5,67.2,117.3,67.2z"/>
	<path d="M128.2,99.2c-0.3,0.9-0.9,1.4-2,1.2c-0.8-0.1-1.7,0-2.7,0c0-0.8,0-1.5,0-2.4c0.3-0.1,0.7-0.2,1.1-0.4c0-0.1,0-0.2,0-0.2
		c-1.5,0-3.1,0-4.6,0c0,0.1,0,0.2,0,0.2c0.5,0.1,0.9,0.2,1.5,0.3c0,0.7,0,1.5,0,2.4c-2.1,0-4.2,0.1-6.2-0.1c-0.4,0-0.9-0.7-1-1.1
		c-0.1-1.8,0-3.6,0-5.5c3.6,0,7,0,10.4,0c2.2,0,4.3,0,6.5,0c0.3,0,0.9,0.2,1,0.5c0.5,1.3,0.9,2.7,1.5,4.4c-1.8-0.1-3.4-0.2-4.9-0.3
		c0-0.2-0.1-0.3-0.1-0.5C128.5,98.2,128.3,98.7,128.2,99.2L128.2,99.2z"/>
	<path d="M117.9,69.2c4.5,0,9,0,13.5,0c0.6,1.9,1.2,3.9,1.9,5.9c-5.4,0-10.6,0-15.8,0C117.6,73.1,117.7,71.2,117.9,69.2z"/>
	<path d="M133.9,93.7c4.7,0,9.1,0,13.6,0c0.3,0,0.9,0.6,0.9,1c0,2.6-1.9,6.1-5.2,5.7c-2.3-0.3-4.7-0.1-7-0.1
		C135.4,98.2,134.7,96,133.9,93.7z"/>
	<path d="M104.8,93.7c2.3,0,4.7,0,6.8,0c0.3,2.2,0.5,4.3,0.8,6.5C106.5,101.7,104.1,97.4,104.8,93.7z"/>
	<path d="M119.5,88.1c1.4,1,2.7,2,2.6,4.1c-2.5,0-4.9,0-7.4,0C114.2,90.1,116.2,88.4,119.5,88.1C119.6,88.2,119.5,88.1,119.5,88.1z"
		/>
	<path d="M120.6,103.2c-1.1,0.9-2.2,1.3-3.5,0.6c-0.5-0.5-1.1-1-1.9-1.8c2.3,0,4.1,0,6.1,0C121.1,102.5,120.8,102.9,120.6,103.2z"/>
	<path d="M128.2,99.2c1.8-0.1,3.5-0.3,5.3-0.3c0.3,0,0.6,0.8,1.1,1.4c-2.3,0-4.2,0-6.2,0C128.3,99.9,128.3,99.5,128.2,99.2
		C128.2,99.2,128.2,99.2,128.2,99.2z"/>
	<path class="st0" d="M70.1,120.2c4.3-0.3,8.4-0.1,11,3.7c2.7,4,3,8.4,0.3,12.7c-2.6,4.2-6.8,4.7-11.3,4.2
		C70.1,134,70.1,127.2,70.1,120.2z"/>
	<path class="st0" d="M44.9,149.8c-4.9,0-9.5,0-14.5,0c2.5-7.2,4.9-14.3,7.4-21.7C40.2,135.5,42.6,142.6,44.9,149.8z"/>
	<path class="st0" d="M158.6,128.1c2.4,7.4,4.7,14.5,7,21.7c-4.8,0-9.6,0-14.5,0C153.6,142.6,156,135.5,158.6,128.1z"/>
	<path class="st0" d="M84.8,48.2c-2.8,0-5.4,0-8.1,0c0-15.2,0-30.2,0-45.4c2.6,0,5.3,0,8.1,0C84.8,17.8,84.8,32.9,84.8,48.2z"/>
	<path class="st0" d="M91.3,28.6c0-8.9,0-17.4,0-25.9c3.5-0.3,6.9,0,9.7,2.2c2.1,1.7,2.9,4.1,3.3,6.7c0.7,3.9,0.5,7.8-1,11.6
		c-0.9,2.3-2.8,3.9-5.3,4.5C95.9,28.2,93.7,28.3,91.3,28.6z"/>
	<path class="st0" d="M167.3,23.2c0-6.8,0-13.6,0-20.5c4-0.4,8-0.1,10.8,3.1c2.8,3.1,3.1,9,1.3,12.2
		C176.6,22.9,173.4,23.8,167.3,23.2z"/>
	<path class="st0" d="M148.5,23.5c-0.3,7.2-0.5,12.3-2.4,17.2c-1.4,3.5-3.2,6.6-7.2,7.9c-5.7,1.9-11.1-0.3-13.8-5.6
		c-1.7-3.5-2.5-7.2-2.7-11c-0.1-2.7-0.7-5.4-0.6-8c0.4-5.6,0.8-11.2,3.4-16.3c3.2-6.2,10.3-7.9,15.8-4.3c3,2,4.8,5.2,5.6,8.7
		C147.7,16.5,148.1,21,148.5,23.5z"/>
	<path class="st0" d="M242.7,25.6c0,5-0.3,10-2.1,14.7c-1.5,4-3.5,7.5-8.2,8.7c-4.6,1.1-10.1-0.6-12.5-5.3
		c-2.2-4.3-3.2-8.9-3.3-13.7c0-1.7-0.4-3.4-0.3-5c0.2-5.5,0.5-11.1,2.9-16.2c1.7-3.8,4.4-6.5,8.7-7c4.6-0.5,8.3,1,10.8,5.1
		c2.2,3.6,3,7.5,3.5,11.5C242.5,20.7,242.6,23.2,242.7,25.6z"/>
</g>
</svg>
