<?xml version="1.0" encoding="utf-8"?>
<!-- Generator: Adobe Illustrator 19.0.1, SVG Export Plug-In . SVG Version: 6.00 Build 0)  -->
<svg version="1.1" id="Layer_1" xmlns="http://www.w3.org/2000/svg" xmlns:xlink="http://www.w3.org/1999/xlink" x="0px" y="0px"
	 viewBox="-180 312.1 250.7 168.9" style="enable-background:new -180 312.1 250.7 168.9;" xml:space="preserve">
<style type="text/css">
	.st0{fill:#FFFFFF;}
</style>
<g>
	<path class="st0" d="M-58.6,460c-4.1-2.1-5.3-6-5.9-10c-1.6-9.7,0.1-19,3.5-28.1c2.1-5.5,4.9-10.8,7.3-16.3
		c0.2-0.5,0.5-1.1,0.9-1.9c-5.8,1.3-11.3,2.6-16.7,3.9c-28.3,7-56.4,14.9-83.7,25.3c-8.1,3.1-15.9,7-23.8,10.5
		c-0.9,0.4-2.1,0.4-3.1,0.5c0-0.5,0-0.9,0-1.4c7.5-3.8,14.8-8.4,22.6-11.3c15.1-5.7,30.3-11.1,45.8-15.6c19.9-5.8,40-10.6,60-15.8
		c0.7-0.2,1.5-0.5,1.9-1.1c1.7-2.5,3.3-5.1,4.6-7.3c-2.6,0.5-5.4,1.4-8.3,1.4c-4.2,0-6.4-2.7-6.6-6.9c-0.5-10.3,3.5-19.1,9-27.4
		c4.9-7.4,10.7-14.2,17.8-19.7c3-2.3,6.6-3.9,10-5.8c2,0,4,0,6,0c4.5,1.9,6.2,5.8,6.9,10.2c0.6,3.8,0.8,7.7,1.2,11.5
		c1.4-0.2,2.9-0.7,4.4-0.6c0.8,0,1.6,0.8,2.3,1.3c-0.5,0.7-0.8,1.7-1.4,2c-1.2,0.6-2.6,0.9-3.9,1.2c-1.6,0.4-2.3,1.3-2.3,3.1
		c0,1.9-0.4,3.8-0.7,5.7c-0.5,2.9-1,5.7-1.6,8.6c0.2,0.1,0.4,0.2,0.6,0.3c2.2-2.6,4.7-5,6.6-7.8c2.8-4,5.3-8.2,7.9-12.4
		c0.7-1.1,1.4-1.9,2.7-1.3c1.5,0.6,0.9,1.8,0.4,2.7c-0.7,1.7-1.7,3.3-2.4,5c-1.4,3.3-2.6,6.7-3.9,10c0.2,0.1,0.5,0.2,0.7,0.4
		c2.3-2.7,4.6-5.4,7-8.1c2.7-3,5.3-5.9,8.2-8.7c0.7-0.6,2.3-0.8,3.2-0.4c0.6,0.3,0.7,1.9,0.7,2.9c-0.1,1.3-0.6,2.5-1,3.8
		c0.6-0.2,0.8-0.5,1-0.7c2.4-2.7,4.7-5.5,7.2-8c0.6-0.6,2-0.5,3.1-0.8c0.2,1,0.6,2,0.6,3c-0.1,1-0.6,2.1-0.9,3.1
		c1.4-1.1,2.4-2.5,3.6-3.6c1-1,2.1-2.2,3.4-2.6c0.9-0.3,2.3,0.2,3.1,0.9c0.4,0.3,0.1,1.7-0.2,2.6c-1.1,3.1-2.4,6.1-3.4,9.2
		c-0.5,1.7-0.6,3.6-1.1,5.9c2.2-1.4,3.6-2.5,5.2-3.4c8.8-5,18.1-8.8,27.7-11.9c0.8-0.2,1.7,0.1,2.6,0.1c0,0.5,0,0.9,0,1.4
		c-0.9,0.6-1.7,1.6-2.6,1.9c-11.1,2.9-21.5,7.4-30.5,14.7c-0.8,0.6-1.6,1.2-2.5,1.6c-2.2,1-3.6,0.2-3.3-2.2c0.5-3.8,1.3-7.6,2-11.5
		c0.1-0.4,0.2-0.9,0-1.6c-0.5,0.6-1.2,1.2-1.6,1.9c-2.6,3.8-5.2,7.7-7.9,11.6c-0.5,0.7-1.3,1-2,1.5c-0.2-0.9-0.9-2-0.6-2.8
		c1-3.3,2.2-6.5,3.3-9.7c0.2-0.5,0.3-1,0.4-1.5c-0.2-0.1-0.3-0.2-0.5-0.3c-2.5,3.3-5,6.5-7.5,9.8c-1.2,1.6-2.2,3.3-3.3,5
		c-0.7,1.1-1.1,3-2.9,2.2c-2-0.9-0.8-2.6-0.3-4c1.2-3.1,2.4-6.1,3.5-9.2c0.2-0.7,0.3-1.4,0.4-2.1c-0.2-0.1-0.4-0.3-0.6-0.4
		c-2.6,2.7-5.3,5.4-7.8,8.2c-2.5,2.8-4.7,5.9-7.1,8.7c-0.5,0.6-1.3,0.8-2,1.2c-0.3-0.8-0.8-1.6-0.9-2.4c-0.1-1.4,0-2.9,0-4.8
		c-1.8,1.6-3.2,3.4-5.1,4.5c-4,2.2-5.7,5.6-6.5,9.8c-0.3,1.6-1,3.1-1.5,4.8c11.7-2.1,23-4.2,34.5-6.1c9-1.5,18.1-2.6,27.2-3.9
		c1.8-0.3,3.6-0.5,5.4-0.7c0.6-0.1,1.3-0.3,1.8-0.1c0.9,0.4,1.7,1,2.6,1.6c-0.6,0.8-1.2,2-1.9,2.2c-2.9,0.7-5.8,1.2-8.8,1.7
		c-14.5,2.2-29,4.2-43.5,6.4c-5.5,0.8-11,1.9-16.5,2.8c-1.8,0.3-2.7,1.1-3.4,2.8c-6.7,17.5-14.7,34.3-25.3,49.8
		c-1.6,2.3-3.2,4.5-5.1,6.5c-1.9,1.9-4.3,3.3-6.4,5C-57,460-57.8,460-58.6,460z M-13.5,351.1c0.2,0,0.4-0.1,0.6-0.1
		c-0.8-3.7-1.5-7.4-2.5-11.1c-0.5-1.8-2.2-2.6-4.1-2.7c-3.7-0.2-6.7,1.5-9.4,3.6c-10.3,8.1-18.6,17.9-24,30c-2.2,4.8-3.3,9.8-3,15.1
		c0.1,1.7,0.9,2.7,2.4,3.2c2.4,0.8,4.9,0.4,6.8-1c3.4-2.7,6.9-5.4,9.8-8.6c6.1-6.7,11.6-14.2,19.2-19.3c3.6-2.4,4.5-5.2,4.1-9
		C-13.5,351.2-13.5,351.1-13.5,351.1z M-23.2,397.4c-7.9,1.7-15.3,3.2-22.6,4.8c-0.8,0.2-1.6,0.9-2,1.6
		c-5.7,10.1-10.9,20.5-12.3,32.2c-0.6,5.4-0.9,10.8,0.7,16.2c1.2,3.7,2.6,4.1,5.4,1.2c2.2-2.3,4.2-4.8,6.1-7.5
		c8.6-12.3,15.2-25.6,21.1-39.3C-25.7,403.8-24.6,400.9-23.2,397.4z M-44.2,397.8c0.4,0.1,0.6,0.1,0.7,0.1
		c6.8-1.4,13.5-2.7,20.3-4.2c0.8-0.2,1.7-1.1,1.9-1.9c2.2-8,4.3-16,6.4-24c0.4-1.4,0.4-2.9,0.6-4.9
		C-26.5,373.1-35.9,384.8-44.2,397.8z"/>
	<path class="st0" d="M-117.5,350.8c-2.1,2.3-4.3,4.6-6.4,6.9c-6.9,7.6-13.7,15.3-17.8,24.9c-2,4.8-3.8,9.7-5.7,14.5
		c-0.2,0.4-0.2,1-0.5,1.3c-0.8,0.7-1.6,1.2-2.5,1.8c-0.5-1-1.6-2.2-1.3-3c1.3-4.2,2.8-8.4,4.5-12.4c4.1-9.7,8.7-19.1,11-29.5
		c0.1-0.4,0.2-0.9,0.3-1.3c0-0.3,0-0.6-0.1-1.4c-2.1,2.4-4,4.2-5.5,6.3c-12.7,17-22.6,35.5-30,55.4c-0.3,0.7-0.5,1.4-0.6,2.2
		c-0.3,2.1-1.7,2.6-3.3,2.1c-1.8-0.5-2.1-2-1.5-3.7c1-2.6,1.9-5.3,3.1-7.9c9.1-19.4,19.5-38.1,32.4-55.3c1.8-2.4,4-4.6,6.1-6.9
		c0.7-0.8,1.7-1.4,2.6-1.8c1.7-0.8,3-0.1,2.9,1.8c-0.2,2.6-0.7,5.3-1.3,7.9c-0.7,3.2-1.6,6.3-2.6,10.1c3.2-3.6,6-6.8,8.9-9.8
		c2.9-3.1,5.9-6.1,8.9-8.9c1.1-1,2.5-1.8,3.9-2.3c0.8-0.3,2.1,0,2.9,0.6c0.4,0.3,0.3,1.7-0.1,2.4c-2.6,5.5-5.3,11-7.9,16.6
		c-5.6,12.2-10.6,24.7-13.3,37.9c-1,5.1-1.5,10.2-2.2,15.4c-0.1,0.6-0.2,1.2-0.2,1.8c-0.2,1.5-0.5,2.8-2.5,2.4
		c-1.7-0.3-2.8-1.6-2.6-3.4c0.6-7.9,2.1-15.6,4.8-23c4.8-12.9,10-25.5,15.1-38.3c0.4-1,0.8-1.9,1.2-2.9
		C-117.1,351-117.3,350.9-117.5,350.8z"/>
	<path class="st0" d="M-100.1,394.2c2.8,0.5,3.8-1.2,4.6-2.8c2.6-5.1,4.9-10.3,7.4-15.5c0.3-0.6,0.6-1.3,0.8-1.9
		c0.5-1.4,1.5-1.8,2.7-1.2c1.2,0.5,1.3,1.4,0.8,2.7c-1.8,4.1-3.4,8.2-5,12.3c-0.5,1.2-0.5,2.6-0.8,3.9c0.3,0.2,0.6,0.3,0.8,0.5
		c2-2.5,4.1-4.9,5.9-7.6c1.7-2.5,2.9-5.4,4.4-8c0.4-0.7,0.6-1.5,1.2-1.9c0.7-0.6,1.7-0.9,2.6-1.3c0.2,1,0.8,2.1,0.6,3
		c-0.8,3.1-2.1,6-2.9,9.1c-0.5,2.1-0.7,4.4-0.7,6.6c0,0.9,0.7,1.7,1.1,2.6c0.8-0.4,1.7-0.7,2.3-1.3c0.9-1,1.6-2.1,2.5-3
		c1.3,2.5,0.5,5-1.5,6.7c-1.5,1.3-3.2,1.9-5.1,1c-3.8-1.8-3-5.5-3.4-8.9c-1.4,1.6-2.7,3-4.1,4.4c-0.9,0.9-1.8,1.7-2.8,2.4
		c-2.7,1.8-4,1.5-5.9-0.8c-1.6,1.2-3.1,2.7-4.9,3.6c-2.2,1.1-4,0.2-5-2.2c-5.2,6.2-8.9,7.5-12.3,4.7c-1.5,1.9-2.9,3.9-4.7,5.6
		c-0.9,0.9-2.7,2.1-3.6,1.8c-1.1-0.4-2.3-2.3-2.2-3.5c0.2-3.5,0.6-7.2,1.7-10.5c2.4-7.3,5.5-14.4,10.3-20.5c2.1-2.6,4.5-4.8,8.1-4.2
		c1.1,0.2,2,1.1,3,1.7c0.4,0.3,0.6,0.8,1.1,1c2.2,0.9,2.3,1.6,1.2,3.8c-3,5.8-5.8,11.7-8.6,17.6c-0.4,0.8-0.5,1.7-0.8,2.6
		c1.7,1,2.8,0,3.4-1c2.9-4.6,5.7-9.2,8.4-13.9c1.4-2.4,2.5-4.9,3.6-7.4c0.6-1.2,1.4-1.7,2.8-1.1c1.5,0.7,0.9,1.6,0.4,2.6
		c-2.4,5-4.7,10.1-6.9,15.2C-100.1,391.9-99.9,393-100.1,394.2z M-121.9,401.3c0.3,0.1,0.5,0.2,0.8,0.3c0.8-0.9,1.7-1.7,2.3-2.7
		c4-7.1,8-14.2,11.9-21.4c0.4-0.8,0.6-1.7,0.6-2.6c0.1-2.1-1-2.9-2.8-1.8c-1.4,0.8-2.7,2-3.7,3.3c-4.6,6-7.2,12.9-8.5,20.2
		C-121.8,398.1-121.8,399.7-121.9,401.3z"/>
	<path class="st0" d="M-68.2,363.5c0.1,2.7-2.1,5.5-3.8,5.3c-0.9-0.1-2.2-1.3-2.4-2.1c-0.4-2.2,1.9-5.3,3.6-4.9
		C-69.7,361.9-68.8,363-68.2,363.5z"/>
	<path class="st0" d="M12,345.2c-0.1,2.1-2.5,4.8-4,4.7c-1.6-0.1-2.4-1-2.2-2.7c0.2-2.4,1.7-4.5,3.5-4.4
		C10.9,342.9,11.9,343.8,12,345.2z"/>
	<path class="st0" d="M45.5,348.8c3.7-0.5,2.4,2.1,2.7,3.9c-1.2-2-1.4-2.1-2.7-0.6C45.5,351,45.5,350,45.5,348.8z"/>
</g>
</svg>
