<?xml version="1.0" encoding="utf-8"?>
<!-- Generator: Adobe Illustrator 19.0.1, SVG Export Plug-In . SVG Version: 6.00 Build 0)  -->
<svg version="1.1" id="Layer_1" xmlns="http://www.w3.org/2000/svg" xmlns:xlink="http://www.w3.org/1999/xlink" x="0px" y="0px"
	 viewBox="-180 312.1 250.7 168.9" style="enable-background:new -180 312.1 250.7 168.9;" xml:space="preserve">
<style type="text/css">
	.st0{fill:#FFFFFF;}
</style>
<g>
	<path class="st0" d="M-49.5,349.6c0.4,0,0.8,0.1,1.2,0.1c5.5,0.3,11.1,0.4,16.6,1c5.3,0.5,10.6,1.4,15.9,2.2
		c6.4,1,12.6,2.5,18.8,4.5c6.3,2,12.4,4.6,17.9,8.3c2.5,1.7,4.7,3.6,6.4,6.1c3.3,4.7,3.2,9.8-0.2,14.4c-2.3,3.2-5.4,5.5-8.7,7.5
		c-6.4,3.7-13.4,6.3-20.5,8.3c-5.4,1.5-10.8,2.7-16.3,3.4c-5.4,0.8-10.8,1.4-16.2,1.9c-9,0.9-18.1,1.1-27.1,0.7
		c-5.3-0.2-10.6-0.6-15.9-1c-6.6-0.5-13.2-1.5-19.8-2.8c-7.7-1.5-15.2-3.5-22.4-6.5c-4.7-2-9.3-4.2-13.2-7.5
		c-1.6-1.3-3.1-2.8-4.3-4.6c-3.1-4.6-2.9-9.9,0.4-14.3c2.3-3,5.2-5.2,8.3-7.1c5.7-3.5,11.9-5.8,18.3-7.6c7.5-2.2,15.1-3.8,22.8-4.8
		c5.6-0.7,11.3-1.3,17-1.8c2.5-0.2,5-0.2,7.5-0.3c0.3,0,0.7-0.1,1-0.1C-57.8,349.6-53.6,349.6-49.5,349.6z M-55.6,355.3
		c-2.1,0.1-5.7,0.2-9.2,0.5c-5.7,0.5-11.4,1.5-16.9,3.1c-4.6,1.3-9.2,2.9-13.4,5.3c-3.2,1.8-6.2,4-8.4,7c-2.6,3.5-3.4,7.4-1.8,11.6
		c1,2.7,3,4.9,5.2,6.7c4.5,3.7,9.7,6.1,15.1,7.8c7.6,2.5,15.4,3.7,23.3,4.2c9,0.6,17.9,0.2,26.8-1.5c6.8-1.3,13.4-3.3,19.6-6.5
		c3.5-1.8,6.7-4,9.2-7.1c4-5,4-10.8,0-15.8c-1.4-1.8-3.2-3.3-5-4.6c-5.2-3.7-11.1-5.8-17.2-7.5C-36.8,356.3-45.5,355.5-55.6,355.3z"
		/>
	<path class="st0" d="M-180,422.9c0.2-2,1.7-2.7,3.3-3c2.1-0.4,4.2-0.7,6.3-0.8c4-0.1,8,0.1,11.9,0.3c1.4,0.1,2.8,0.4,4.2,0.8
		c1.3,0.4,2.1,1.3,2.1,2.7c0,1.2,0,2.4,0,3.6c0,4.4,0,8.8,0,13.2c0,1.3-0.6,2.2-1.7,2.7c-1.6,0.7-3.3,0.8-4.9,1
		c-0.3,0-0.5,0.1-0.8,0.1c-4.2,0-8.4,0-12.5,0c-0.2,0-0.5-0.1-0.7-0.1c-1.5-0.2-3-0.4-4.5-0.7c-1.3-0.3-2.3-0.9-2.6-2.4
		C-180,434.5-180,428.7-180,422.9z M-169.2,431.2C-169.2,431.2-169.2,431.2-169.2,431.2c0,0.6,0,1.2,0,1.8c0,2.2,0,4.3,0,6.5
		c0,1,0.4,1.5,1.4,1.6c1.2,0.1,2.3,0.1,3.5,0c1-0.1,1.3-0.5,1.4-1.5c0-0.4,0-0.8,0-1.2c0-4.7,0-9.4,0-14c0-0.5,0-1,0-1.6
		c-0.1-0.9-0.4-1.2-1.2-1.3c-1.2-0.1-2.4-0.2-3.6-0.1c-1.3,0.1-1.5,0.5-1.5,1.8C-169.2,425.9-169.2,428.6-169.2,431.2z"/>
	<path class="st0" d="M70.7,419.4c-3.3,4.9-6.5,9.8-9.8,14.7c-0.1,0.2-0.2,0.5-0.2,0.8c0,2.7,0,5.4,0,8.2c-3.9,0-7.7,0-11.7,0
		c0-0.2,0-0.5,0-0.7c0-2.3,0-4.7,0.1-7c0-0.8-0.3-1.4-0.7-2.1c-3.1-4.6-6.2-9.2-9.3-13.8c0,0,0-0.1,0-0.2c0.2,0,0.4,0,0.7,0
		c3.6,0,7.3,0,10.9,0c0.5,0,0.8,0.1,1,0.6c1.5,2.6,3,5.1,4.4,7.6c0.1,0.2,0.2,0.4,0.4,0.7c0.5-0.8,1-1.6,1.4-2.4
		c1.1-1.9,2.3-3.9,3.4-5.8c0.2-0.4,0.5-0.6,1-0.6c2.8,0,5.6,0,8.3-0.1C70.7,419.3,70.7,419.4,70.7,419.4z"/>
	<path class="st0" d="M-74.4,433.1c0,3.4,0,6.7,0,10.1c-3.9,0-7.7,0-11.6,0c0-7.9,0-15.8,0-23.8c1,0,2.1,0,3.1,0c2.6,0,5.2,0,7.8,0
		c0.5,0,0.6,0.2,0.6,0.7c0,2.8,0,5.6,0,8.5c0,0.1,0,0.2,0,0.3c0.2-0.2,0.4-0.3,0.5-0.5c2.5-2.7,5.1-5.5,7.6-8.3
		c0.6-0.6,1.2-0.9,2-0.9c2.8,0.1,5.5,0,8.3,0c0.2,0,0.3,0,0.7,0c-0.3,0.3-0.5,0.5-0.7,0.7c-2.7,2.9-5.4,5.9-8.1,8.8
		c-0.3,0.3-0.2,0.5,0,0.9c2.6,4.3,5.2,8.5,7.8,12.8c0.1,0.2,0.2,0.4,0.4,0.7c-0.3,0-0.4,0-0.6,0c-3.7,0-7.4,0-11.1,0
		c-0.4,0-0.6-0.1-0.9-0.5c-1.6-2.8-3.2-5.5-4.8-8.3c-0.3-0.5-0.6-1-0.9-1.4C-74.3,433-74.4,433.1-74.4,433.1z"/>
	<path class="st0" d="M-104.2,443.2c-0.2,0-0.4,0-0.6,0c-3.7,0-7.4,0-11,0c-0.5,0-0.7-0.1-0.8-0.6c-0.5-1.6-1.1-3.2-1.6-4.9
		c-0.1-0.4-0.3-0.5-0.7-0.5c-2,0-4.1,0-6.1,0c-0.4,0-0.6,0.1-0.7,0.5c-0.4,1.6-0.9,3.2-1.4,4.8c-0.1,0.5-0.3,0.6-0.8,0.6
		c-2.4,0-4.7,0-7.1,0c-0.2,0-0.4,0-0.6,0c0.3-0.8,0.5-1.5,0.8-2.1c2.5-7,5.1-14,7.6-21c0.2-0.5,0.4-0.7,0.9-0.7c4.1,0,8.2,0,12.3,0
		c0.4,0,0.6,0.1,0.8,0.5c3,7.6,5.9,15.2,8.9,22.8C-104.3,442.8-104.2,443-104.2,443.2z M-119.1,434.5c-1.1-3.1-2.1-6.1-3.1-9.1
		c-0.1,0-0.1,0-0.2,0c-0.9,3-1.8,6-2.7,9.1C-123,434.5-121.1,434.5-119.1,434.5z"/>
	<path class="st0" d="M22.9,429.7c0,1,0,1.9,0,2.8c-2.8,0-5.6,0-8.5,0c0,2.5,0,5,0,7.6c3.6,0,7.3,0,11,0c0,1.1,0,2,0,3
		c-7.6,0-15.1,0-22.7,0c0-7.9,0-15.8,0-23.7c7.6,0,15.1,0,22.7,0c0,1,0,1.9,0,3c-3.7,0-7.3,0-11,0c0,2.5,0,4.8,0,7.3
		C17.2,429.7,20,429.7,22.9,429.7z"/>
	<path class="st0" d="M-37.8,443.1c0-7.9,0-15.8,0-23.7c3.9,0,7.7,0,11.6,0c0,6.8,0,13.7,0,20.6c3.9,0,7.7,0,11.6,0
		c0,1.1,0,2.1,0,3.1C-22.3,443.1-30.1,443.1-37.8,443.1z"/>
</g>
</svg>
