<?xml version="1.0" encoding="utf-8"?>
<!-- Generator: Adobe Illustrator 19.0.1, SVG Export Plug-In . SVG Version: 6.00 Build 0)  -->
<svg version="1.1" id="Layer_1" xmlns="http://www.w3.org/2000/svg" xmlns:xlink="http://www.w3.org/1999/xlink" x="0px" y="0px"
	 viewBox="-180 312.1 250.7 168.9" style="enable-background:new -180 312.1 250.7 168.9;" xml:space="preserve">
<g>
	<path d="M9.7,377.3c0.2-11.3,2.7-20.6,8.9-28.6c4.6-6,10.5-10.2,18.2-11.3c6.3-0.9,12.1,0.5,17.4,4c7.3,4.9,11.7,11.9,14.3,20
		c1.9,5.7,2.5,11.5,2.1,17.4c-0.8,11.4-4.6,21.6-13.4,29.4c-5.3,4.7-11.6,7.1-18.7,6.6c-5.8-0.4-10.9-2.8-15.3-6.6
		c-7.3-6.5-11.3-14.7-12.8-24.3C10,381.3,9.8,378.7,9.7,377.3z M50.9,375.9C50.9,375.9,50.9,375.9,50.9,375.9c0-8.5,0.1-17-0.1-25.5
		c-0.1-4.8-4.5-9.3-9.2-9.7c-6.8-0.6-12.2,4.3-12.2,11.1c0,16,0,32,0,47.9c0,1.3,0.2,2.7,0.5,4c1.5,5.2,6.4,8.2,11.1,7.7
		c6.5-0.6,10-6.4,9.9-11.3C50.8,392.1,50.9,384,50.9,375.9z"/>
	<path d="M-118.8,375.9c0.3-9.7,2.7-18.6,8.5-26.4c4.7-6.4,10.7-10.8,18.6-12c6.8-1,13.1,0.7,18.6,4.8c7.4,5.5,11.8,13,13.9,21.9
		c0.9,3.9,1.4,8,1.5,12c0.1,4.9-0.6,9.8-2.2,14.5c-2,6.2-5.1,11.8-9.8,16.4c-5.3,5.1-11.5,8.1-18.9,7.9c-6.5-0.1-12.1-2.6-16.9-7
		c-6.8-6.2-10.7-14-12.3-23C-118.2,381.9-118.4,378.9-118.8,375.9z M-77.3,375.9c0-8.1,0-16.2,0-24.3c0-6.2-4.7-11-10.7-11
		c-5.9,0-10.8,4.7-10.8,10.8c-0.1,16.4-0.1,32.7,0,49.1c0,7.4,7.1,12.6,13.9,10.5c4.4-1.4,7.6-5.8,7.6-10.6
		C-77.3,392.2-77.3,384.1-77.3,375.9z"/>
	<path d="M-157.4,378.1c0,10.6,0,21.1,0,31.7c2.5,0,4.8,0,7.3,0c0,1.4,0,2.6,0,3.9c-10,0-19.9,0-29.9,0c0-1.3,0-2.5,0-3.9
		c2.2,0,4.3,0,6.5,0c0.8,0,1.1-0.2,1.1-1c0-22,0-44,0-66c0-0.1,0-0.3-0.1-0.6c-2.4,0-4.9,0-7.4,0c0-1.5,0-2.7,0-4.1
		c0.4,0,0.8-0.1,1.1-0.1c11.3,0,22.5-0.1,33.8,0c7.5,0.1,13.9,2.8,18.4,9.1c6,8.2,4.4,19.5-3.6,25.8c-4.3,3.5-9.2,5.1-14.7,5.2
		C-149,378.1-153.1,378.1-157.4,378.1z M-157.3,374c2.3,0,4.5,0.1,6.8,0c3.3-0.2,5.9-1.8,7.6-4.6c3.9-6.6,4.2-13.5,1.4-20.6
		c-1.2-3.1-3.4-5.6-6.6-6.2c-2.9-0.6-6-0.4-9.1-0.6C-157.3,352.9-157.3,363.4-157.3,374z"/>
	<path d="M-50.8,413.8c0-1.3,0-2.5,0-3.8c2.4,0,4.8,0,7.3,0c0-22.6,0-45.1,0-67.7c-2.3,0-4.7,0-7.2,0c0-1.5,0-2.7,0-4.1
		c10,0,19.9,0,29.9,0c0,1.3,0,2.6,0,4c-2.4,0-4.9,0-7.6,0c0,0.6,0,1.1,0,1.5c0,21.6,0,43.1,0,64.7c0,1.2,0.3,1.6,1.5,1.6
		c3.8-0.1,7.6-0.2,11.4,0c4.8,0.2,8-2.1,10.4-6c2.1-3.6,3.1-7.5,3.8-11.5c0.4-2.6,0.6-5.1,0.9-7.8c1,0,2,0,3.2,0
		c0,9.7,0,19.4,0,29.2C-15.2,413.8-33,413.8-50.8,413.8z"/>
	<path d="M-72.9,438c-0.7,0.1-1.1,0.1-1.6,0.1c0,5.5,0,11,0,16.4c0.5,0.2,1,0.3,1.5,0.5c0,0.1-0.1,0.3-0.1,0.4c-1.9,0-3.8,0-5.7,0
		c0-0.1-0.1-0.2-0.1-0.3c0.4-0.2,0.8-0.4,1.3-0.6c0-2.6,0-5.3,0-8.2c-2.2,0-4.4,0-6.7,0c0,2.7,0,5.4,0,8.1c0.4,0.2,0.8,0.4,1.3,0.6
		c0,0.1-0.1,0.2-0.1,0.3c-1.9,0-3.8,0-5.7,0c0-0.1-0.1-0.3-0.1-0.4c0.5-0.1,0.9-0.3,1.5-0.5c0-5.4,0-10.9,0-16.4
		c-0.5-0.1-0.9-0.1-1.4-0.2c0.2-0.9,0.2-0.9,4.5-0.8c0.4,0,0.8,0.2,1.2,0.4c0,0.1-0.1,0.3-0.1,0.4c-0.4,0.1-0.7,0.1-1.2,0.2
		c0,2.2,0,4.3,0,6.5c0,0.2,0.5,0.7,0.7,0.7c2,0.1,4,0,6,0c0-2.4,0-4.8,0-7.2c-0.2,0-0.5,0-0.7-0.1c-0.2-0.1-0.4-0.3-0.4-0.5
		c0-0.1,0.3-0.4,0.4-0.4c1.7,0,3.3,0,5,0C-73.3,437.3-73.1,437.7-72.9,438z"/>
	<path d="M-160.4,447.1c0,2.5,0,5,0,7.5c0.5,0.2,1,0.4,1.7,0.6c-1.9,0.6-5.5,0.5-6.2-0.2c0.5-0.1,0.9-0.2,1.3-0.3
		c0-5.5,0-10.9,0-16.5c-0.4-0.1-0.8-0.1-1.1-0.2c-0.1-0.1-0.1-0.2-0.2-0.3c0.3-0.2,0.5-0.5,0.8-0.5c2.5,0,5-0.1,7.5,0.1
		c2.8,0.2,4.5,2,4.7,4.2c0.2,2.7-1.2,4.3-4.1,5.1c-0.2,0-0.3,0.1-0.7,0.3c1.8,2.6,3.5,5.1,5.3,7.6c0.1,0.2,0.6,0.1,0.8,0.2
		c0.3,0.1,0.5,0.2,0.7,0.3c0,0.1-0.1,0.3-0.1,0.4c-1.3,0-2.7,0.1-4,0c-0.3,0-0.7-0.5-0.9-0.8c-1.8-2.6-3.6-5.2-5.4-7.7
		C-160.2,447-160.3,447-160.4,447.1z M-160.5,438.1c0,2.5,0,4.8,0,7.1c0,0.3,0.1,0.6,0.3,0.8c0.9,0.6,4-0.3,4.5-1.3
		c0.9-1.7,0.9-3.5,0-5.2c-0.7-1.4-2.1-1.3-3.5-1.4C-159.4,438.1-159.9,438.1-160.5,438.1z"/>
	<path d="M6.5,446.8c0,2.8,0,5.3,0,7.7c0.5,0.2,0.9,0.4,1.3,0.7c0,0.1-0.1,0.2-0.1,0.3c-1.8,0-3.7,0-5.5,0c0-0.1-0.1-0.2-0.1-0.4
		c0.4-0.2,0.8-0.3,1.4-0.5c0-5.4,0-10.8,0-16.4c-0.3,0-0.5,0-0.7-0.1c-0.2-0.1-0.4-0.3-0.5-0.4c0.2-0.2,0.4-0.5,0.6-0.5
		c2.8,0,5.5-0.1,8.3,0.2c2.3,0.3,3.9,2.2,4,4.4c0.1,2.1-1.3,3.9-3.6,4.7c-0.4,0.1-0.7,0.2-1.4,0.4c2.5,2.8,3.6,6.4,6.8,8.7
		c-1.3,0-2.6,0.1-3.9,0c-0.3,0-0.7-0.5-0.9-0.8c-1.7-2.4-3.4-4.8-5-7.2C7,447.4,6.9,447.2,6.5,446.8z M6.5,438.1c0,2.5,0,4.8,0,7.1
		c0,0.3,0.3,0.7,0.5,0.7c2.5,0.7,4.7-0.9,4.8-3.5c0-0.4,0-0.7,0-1.1c-0.1-2.2-1-3.2-3.2-3.3C7.9,438.1,7.3,438.1,6.5,438.1z"/>
	<path d="M35.5,437.2c0,2,0,3.7,0,5.5c0,0.2-0.3,0.4-0.4,0.6c-0.2-0.2-0.5-0.3-0.5-0.5c-1.4-4.8-1.4-4.8-6.3-4.7c-0.4,0-0.8,0-1.3,0
		c0,2.6,0,5.1,0,7.5c2.4,0.4,3.3-0.2,3.9-2.5c0.1-0.3,0.4-0.6,0.9-0.7c0,2.6,0,5.2,0,7.8c-0.1,0-0.2,0.1-0.4,0.1
		c-0.2-0.4-0.4-0.8-0.5-1.2c-0.4-1.8-1.4-2.6-3.3-2.3c-0.3,0-0.7,0.5-0.7,0.7c-0.1,2.4,0,4.7,0,7.1c5.5,0.7,7.1,0.3,7.7-5.7
		c0.4,0,0.7,0,1.2,0c0,0.5,0,1,0,1.5c0,1.7,0,3.4,0,5.1c-4.5,0-8.9,0-13.3,0c0-0.1-0.1-0.2-0.1-0.4c0.5-0.1,0.9-0.3,1.5-0.5
		c0-5.4,0-10.9,0-16.3c0,0-0.1-0.1-0.1-0.1c-0.4-0.2-0.9-0.4-1.3-0.6c0.7-0.1,1.3-0.3,2-0.3c3.2,0,6.3,0,9.5,0
		C34.4,437.2,34.9,437.2,35.5,437.2z"/>
	<path d="M53.7,455.8c-0.4-0.4-0.9-0.7-1.2-1.2c-2.7-4.5-5.4-9.1-8.2-13.7c-0.3-0.4-0.5-0.9-1-1.6c0,5.4,0,10.3,0,15.3
		c0.4,0.2,0.8,0.4,1.3,0.5c0,0.1-0.1,0.2-0.1,0.3c-1.2,0-2.4,0-3.6,0c0-0.1-0.1-0.2-0.1-0.3c0.4-0.2,0.8-0.4,1.3-0.6
		c0-5.3,0-10.8,0-16.3c-0.3-0.1-0.7-0.2-1.1-0.2c0-0.1-0.1-0.2-0.1-0.3c0.3-0.2,0.6-0.5,0.8-0.5c1.1-0.1,2.2-0.1,3.3,0
		c0.4,0,0.9,0.5,1.1,0.9c2.1,3.4,4.1,6.8,6.1,10.2c0.2,0.3,0.4,0.6,0.8,1.2c0-3.9,0-7.5,0-11.3c-0.4-0.1-0.8-0.1-1.4-0.2
		c0.2-0.3,0.3-0.7,0.5-0.7c1-0.1,1.9-0.1,2.9,0c0.1,0,0.4,0.3,0.4,0.4c0,0.1-0.2,0.4-0.3,0.4c-0.2,0.1-0.5,0.1-0.9,0.1
		c0,5.7,0,11.5,0,17.2C53.9,455.5,53.8,455.6,53.7,455.8z"/>
	<path d="M-101.3,446.8c0,2.8,0,5.3,0,7.8c0.5,0.2,0.9,0.4,1.4,0.6c0,0.1-0.1,0.2-0.1,0.4c-1.9,0-3.7,0-5.6,0c0-0.1-0.1-0.2-0.1-0.3
		c0.4-0.2,0.8-0.4,1.3-0.6c0-5.4,0-10.8,0-16.3c-0.2,0-0.5,0-0.7-0.1c-0.2-0.1-0.3-0.3-0.5-0.4c0.2-0.2,0.4-0.4,0.5-0.4
		c2.8,0,5.6-0.1,8.4,0.3c2.8,0.4,4.2,2.6,3.9,5.3c-0.2,2-2.4,3.8-4.9,4C-99,446.8-100.1,446.8-101.3,446.8z M-101.4,446
		c1.9,0,3.6,0.2,4.8-1.4c0.8-1.2,0.7-4.4-0.3-5.4c-1.3-1.4-2.9-1-4.5-1C-101.4,440.8-101.4,443.3-101.4,446z"/>
	<path d="M-14.9,438.2c-0.4,0-0.7,0-0.9-0.1c-0.2-0.1-0.4-0.3-0.4-0.4c0.1-0.2,0.3-0.5,0.5-0.5c1.6,0,3.2,0,4.8,0
		c0.2,0,0.4,0.3,0.5,0.4c-0.2,0.2-0.3,0.4-0.5,0.4c-0.3,0.1-0.6,0.1-1,0.1c0,1.3,0,2.6,0,3.8c0,3.1,0,6.2,0,9.2
		c0,2.1,1.3,3.5,3.1,3.5c1.7,0.1,3.7-1.6,3.7-3.4c0.1-4.4,0-8.7,0-12.9c-0.4-0.4-0.7-0.6-1-0.9c0.4-0.1,0.7-0.3,1.1-0.4
		c0.6-0.1,1.1,0,1.7,0c0.2,0,0.4,0.2,0.4,0.4c0,0.1-0.2,0.4-0.3,0.4c-1,0-0.7,0.8-0.7,1.3c0,3.8,0,7.6,0,11.4c0,2.6-1.8,4.8-3.9,5.2
		c-3.6,0.5-6-0.6-6.9-3.3c-0.2-0.5-0.2-1.1-0.2-1.7C-15,446.7-14.9,442.5-14.9,438.2z"/>
	<path d="M-18.9,455.5c-1.9,0-3.7,0-5.5,0c0-0.1-0.1-0.3-0.1-0.4c0.5-0.2,1-0.3,1.6-0.5c-0.6-1.8-1.2-3.8-1.8-5.6
		c-0.1-0.2-0.6-0.5-0.9-0.5c-1.5-0.1-3,0-4.6,0c-0.7,2-1.3,4.1-2,6.2c0.6,0.1,1.1,0.2,1.6,0.4c0,0.1,0,0.3,0,0.4c-1.3,0-2.7,0-4.1,0
		c0.1-0.2,0.2-0.6,0.3-0.5c1.2,0.2,1.3-0.7,1.6-1.5c1.6-5,3.3-10.1,4.9-15.1c0.2-0.7,0.5-1.1,1.3-1.1c0.8,0,1.1,0.3,1.4,1
		c1.6,5,3.3,10.1,4.9,15.1c0.2,0.7,0.3,1.6,1.3,1.6C-18.9,454.9-18.9,455.2-18.9,455.5z M-25.2,447.6c-0.8-2.4-1.5-4.6-2.2-6.8
		c-0.1,0-0.2,0-0.3,0c-0.7,2.2-1.5,4.5-2.2,6.8C-28.3,447.6-26.8,447.6-25.2,447.6z"/>
	<path d="M-134.7,448.5c-1.8,0-3.5,0-5.3,0c-0.7,2-1.3,4.1-2,6.1c0.6,0.2,1.1,0.3,1.6,0.4c0,0.1-0.1,0.3-0.1,0.4c-1.3,0-2.5,0-4,0
		c0.2-0.3,0.4-0.7,0.5-0.7c1,0.1,1.1-0.6,1.4-1.2c1.6-5,3.3-10.1,4.9-15.1c0.2-0.7,0.3-1.3,1.3-1.3c1,0,1.2,0.5,1.5,1.3
		c1.6,5,3.2,10.1,4.9,15.1c0.2,0.6,0.7,1.1,1.2,1.8c-0.2,0.4-2.7,0.6-5.3,0.2c0-0.1-0.1-0.2-0.1-0.4c0.5-0.2,1-0.3,1.6-0.5
		C-133.4,452.6-134,450.6-134.7,448.5z M-139.8,447.6c1.7,0,3.1,0,4.8,0c-0.8-2.4-1.5-4.6-2.2-6.8c-0.1,0-0.2,0-0.3,0
		C-138.3,443-139,445.2-139.8,447.6z"/>
	<path d="M-47.9,454.8c1.2,0,2.2,0.1,3.3,0c1.6-0.1,2.6-1.2,3-3c0.2-0.9,0.2-1.8,0.4-2.6c0.1-0.4,0.5-0.7,0.8-1.1
		c0.1,0.1,0.2,0.1,0.3,0.2c0,2.4,0,4.7,0,7.2c-4,0-8,0-12,0c0-0.1-0.1-0.2-0.1-0.3c0.4-0.2,0.8-0.4,1.3-0.6c0-5.3,0-10.8,0-16.3
		c-0.3,0-0.6,0-0.8-0.1c-0.2-0.1-0.4-0.3-0.4-0.4c0.1-0.2,0.3-0.5,0.5-0.5c1.5,0,3,0,4.5,0c0.2,0,0.4,0.3,0.5,0.4
		c-0.2,0.2-0.3,0.4-0.5,0.5c-0.2,0.1-0.5,0.1-0.8,0.1C-47.9,443.7-47.9,449.1-47.9,454.8z"/>
	<path d="M-119,454.8c1.1,0,2.1,0,3.1,0c1.9-0.1,3.2-1.7,3.5-4.1c0.1-0.5,0-1.1,0.1-1.6c0.1-0.4,0.5-0.7,0.8-1
		c0.1,0.1,0.2,0.2,0.4,0.2c0,2.4,0,4.7,0,7.2c-4,0-8.1,0-12.1,0c0-0.1-0.1-0.2-0.1-0.4c0.4-0.2,0.9-0.3,1.4-0.5c0-5.4,0-10.8,0-16.3
		c-0.1,0-0.2-0.1-0.3-0.2c-0.3-0.2-0.7-0.3-1-0.5c0.4-0.1,0.7-0.4,1.1-0.4c1.2-0.1,2.4,0,3.6,0c0.3,0,0.6,0.3,0.9,0.4
		c-0.3,0.2-0.6,0.3-0.9,0.5c-0.1,0.1-0.2,0.1-0.4,0.1C-119,443.7-119,449.2-119,454.8z"/>
</g>
</svg>
