<?xml version="1.0" encoding="utf-8"?>
<!-- Generator: Adobe Illustrator 19.0.1, SVG Export Plug-In . SVG Version: 6.00 Build 0)  -->
<svg version="1.1" id="Layer_1" xmlns="http://www.w3.org/2000/svg" xmlns:xlink="http://www.w3.org/1999/xlink" x="0px" y="0px"
	 viewBox="-180 312.1 250.7 168.9" style="enable-background:new -180 312.1 250.7 168.9;" xml:space="preserve">
<g>
	<path d="M-24.9,395.5c-4.8,0-9.3,0-13.8-0.1c-0.4,0-1-0.7-1.2-1.2c-1.2-2.6-2.2-5.3-3.4-8c-0.4-1-0.9-1.3-1.9-1.3c-7,0.1-14,0-21,0
		c-1,0-1.5,0.3-1.9,1.3c-1,2.7-2.1,5.4-3.2,8.1c-0.2,0.5-0.7,1.1-1.1,1.1c-4.6,0.1-9.2,0.1-14,0.1c0.6-1.7,1.2-3,1.8-4.5
		c6.5-15.8,13-31.7,19.4-47.5c0.6-1.3,1.1-1.8,2.6-1.7c4.2,0.1,8.6,0.1,12.8,0c0.9,0,1.3,0.2,1.7,1.1c7.6,17.2,15.2,34.4,22.9,51.6
		C-25.1,394.7-25.1,395-24.9,395.5z M-56,356.1c-0.2,0-0.3,0-0.4-0.1c-2.4,6.2-4.8,12.5-7.3,18.8c5.3,0,10.2,0,15.5,0
		C-50.9,368.5-53.4,362.3-56,356.1z"/>
	<path d="M24.6,355.2c-3.2-1-6.2-1.9-9.1-2.6c-4.8-1.1-9.7-1.2-14.4,0.6c-6.8,2.5-10.8,8.6-10.6,16.2c0.2,7.3,4.8,13.6,11.4,15.6
		c3.7,1.1,7.4,1.4,11.4,0.9c0-2.7,0-5.4,0-8.3c-1.7,0-3.3,0-5.2,0c0-2.3,0-4.5,0-6.6c0-4.1,0-4.1,4.1-4.1s8.2,0,12.2,0
		c1,0,1.4,0.3,1.4,1.4c0,8.5,0,16.9,0,25.3c0,0.8-0.2,1.3-1,1.4c-9.8,1.9-19.5,2.6-29.2-0.3c-10.8-3.3-18-13.4-18.4-24.6
		c-0.5-14.1,9.5-28.1,28.6-28.7c6-0.2,11.8,0.7,17.4,2.9c1,0.4,1.4,0.9,1.4,2C24.5,349.1,24.6,352.2,24.6,355.2z"/>
	<path d="M-116.5,351.8c-6.5,0-12.8,0-19.2,0c0-3.5,0-6.8,0-10.3c17.4,0,34.7,0,52.1,0c0,3.4,0,6.7,0,10.2c-6.3,0-12.6,0-19.1,0
		c0,14.6,0,28.9,0,43.3c-4.6,0-9.1,0-13.8,0C-116.5,380.7-116.5,366.3-116.5,351.8z"/>
	<path d="M24.9,441.2c0,2,0.1,3.6,0,5.2c0,0.4-0.3,1-0.7,1.3c-8.8,7-24.5,8.9-33.9,0.4c-7-6.2-9.5-14.3-8.7-23.5
		c0.6-6.2,2.9-11.8,7.6-16.2c11.6-10.9,30.8-5.8,35.4,9.5c0.5,1.5,0.8,3.2,1,4.8c0.2,1.1,0,2.3,0,3.5c-12.6,0-25.2,0-38.2,0
		c0.2,2.1,0.2,4,0.5,5.8c1.9,11.6,11.9,18.3,23.4,16C16.2,447.2,20.7,444.8,24.9,441.2z M-11.5,421.7c10.3,0,20.4,0,30.4,0
		c0.3-6.6-6.1-13-13.5-13.5C-3.1,407.5-10.5,413.4-11.5,421.7z"/>
	<path d="M-80.4,441.6c0,0.8-0.1,1.3,0,1.9c0.7,3.3-1,5-3.7,6.4c-6.5,3.5-13.3,4.8-20.5,3.4c-10.6-2.1-18.4-11.4-19.1-22.9
		c-0.5-8.1,1.4-15.5,7.3-21.4c10.7-10.8,29.3-7,35,7.1c1.3,3.3,2,6.6,1.9,10.4c-0.6,0-1.2,0-1.8,0c-11.4,0-23,0-34.4,0
		c-2.1,0-2.1,0.1-2,2.2c0.5,9.3,5,16.2,12.5,18.8c6.6,2.3,12.8,1.1,18.7-2.1C-84.5,444.3-82.6,443-80.4,441.6z M-116.9,421.7
		c10.3,0,20.4,0,30.5,0c-0.3-7.3-6.5-13.1-14-13.5C-108.7,407.7-115.6,413.4-116.9,421.7z"/>
	<path d="M-174.4,426.6c0,8.7,0,17.3,0,26c-2,0-3.8,0-5.6,0c0-18.8,0-37.4,0-56.1c1.9,0,3.5,0,5.6,0c0,8.4,0,16.8,0,25.3
		c11.7,0,23.1,0,34.8,0c0-8.4,0-16.7,0-25.2c1.9,0,3.7,0,5.6,0c0,18.7,0,37.4,0,56.1c-1.8,0-3.6,0-5.6,0c0-8.7,0-17.3,0-26
		C-151.3,426.6-162.7,426.6-174.4,426.6z"/>
	<path d="M-69.8,403.9c2,0,3.8,0,5.7,0c0,0.8,0,1.3,0,2c0,9.6,0,19.1,0,28.7c0,1.2,0.1,2.4,0.3,3.5c1,7.5,6.1,11.5,13.5,11
		c5.1-0.3,9.3-2.4,12.5-6.5c1.6-2,2.4-4.2,2.4-7c-0.1-10,0-20,0-30c0-0.6,0.1-1.1,0.1-1.8c1.9,0,3.6,0,5.5,0c0,16.2,0,32.3,0,48.6
		c-1.9,0-3.6,0-5.6,0c0-2.1,0-4.1,0-6.6c-0.9,1-1.6,1.7-2.2,2.3c-5.9,5.6-15.4,7.3-22.8,3.9c-5.6-2.6-8.2-7.4-9.1-13.3
		c-0.3-1.7-0.3-3.4-0.3-5c0-9.3,0-18.6,0-27.9C-69.8,405.3-69.8,404.7-69.8,403.9z"/>
	<path d="M67.2,413.8c-1.9-1.3-3.7-2.8-5.6-3.9c-3.3-1.9-6.6-1.8-9.7,0.4c-4,2.9-7,6.8-9.6,10.9c-0.3,0.6-0.3,1.4-0.3,2.1
		c0,9.2-0.1,18.3,0,27.5c0,1.5-0.4,2-1.9,1.9c-1.2-0.1-2.4,0-3.6,0c0-16.3,0-32.5,0-48.8c1.8,0,3.5,0,5.6,0c0,3.7,0,7.3,0,11.4
		c1.7-1.9,2.9-3.6,4.4-5c2.2-2,4.5-4,7.1-5.7c3.5-2.2,7.2-2.1,10.8-0.2c2.1,1.1,4,2.6,6.1,4C69.1,410.5,68.2,412.2,67.2,413.8z"/>
</g>
</svg>
