<?xml version="1.0" encoding="utf-8"?>
<!-- Generator: Adobe Illustrator 19.0.1, SVG Export Plug-In . SVG Version: 6.00 Build 0)  -->
<svg version="1.1" id="Layer_1" xmlns="http://www.w3.org/2000/svg" xmlns:xlink="http://www.w3.org/1999/xlink" x="0px" y="0px"
	 viewBox="-180 312.1 250.7 168.9" style="enable-background:new -180 312.1 250.7 168.9;" xml:space="preserve">
<g>
	<path d="M14.8,393.9c-4.1,0-7.8,0-12.1,0c0-16.4,0-32.5,0-48.5c-0.4-0.1-0.9-0.1-1.3-0.2c-2.6,11.1-5.1,22.2-7.7,33.4
		c-0.3,1.4-0.6,2.9-0.9,4.4c-2.8,12-2.8,12-15.9,10.9c-3.7-16.3-7.5-32.9-11.3-49.4c-0.4,0.1-0.8,0.1-1.2,0.2c0,16.3,0,32.5,0,49.2
		c-4.3,0-8.1,0-12.4,0c0-21.6,0-42.9,0-65.3c5.8,0,11.5-0.3,17.1,0.2c1.4,0.1,3.3,2.9,3.8,4.7c3.2,13,6.1,26,9.1,39
		c0.4,1.6,0.9,3.2,1.9,6.7c3.4-14.8,6.4-27.8,9.5-40.8c2.7-11.4,0-9.7,12.6-9.9c2.7,0,5.5,0,8.8,0C14.8,350.3,14.8,371.8,14.8,393.9
		z"/>
	<path d="M2.7,463.8c-0.7,0.5-0.8,0.8-1,0.8c-14.7,1.7-14.9,1.5-15.4-13.3c-0.4-10.4-1.6-11.5-12.2-11.6c-3.6,0-7.1,0-11.1,0
		c0,8.5,0,16.3,0,24.6c-4.6,0-8.7,0-13.3,0c0-21.5,0-43,0-64.7c12.6,0,25.1-0.5,37.6,0.2c7.8,0.5,12.5,6.1,14.3,13.5
		c2.1,8.5-0.9,15.4-8.4,20.7C5.2,441.3-3.3,454.6,2.7,463.8z M-36.7,410.6c0,6.4,0,12,0,17.7c6.1,0,11.6,0.3,17.1-0.1
		c5.3-0.3,8-3.6,7.8-8.9c-0.2-5.2-2.6-8.5-8.1-8.7C-25.4,410.5-30.9,410.6-36.7,410.6z"/>
	<path d="M-125.2,432.1c-0.1-24.5,14.9-37.8,38.7-34.2c1,0.2,2.1,0.3,3.1,0.6c14.1,3.8,22.4,17.6,21.5,35.6
		c-1,17.9-9.8,29.3-24.7,31.7C-109.7,469.7-125.1,456.2-125.2,432.1z M-75.7,431.9c0-15-7.4-23.7-19.5-22.8
		c-10.3,0.8-16.2,9.1-16.2,22.8c0,14.4,6.9,23.2,18.1,23C-82.3,454.7-75.7,446-75.7,431.9z"/>
	<path d="M-58.9,359.7c0,18.9-7.9,31.2-21.6,34.9c-22.1,5.9-39.5-6.1-41.2-28.8c-0.4-5-0.2-10.3,0.7-15.2c3-15.8,15.3-24.6,32.6-24
		c16.2,0.6,27.2,11,29.2,28C-58.9,356.7-58.9,358.9-58.9,359.7z M-72.3,362.1c-0.7-4.2-0.9-7.9-1.9-11.3
		c-2.4-8.1-8.5-12.7-16.4-12.6c-7.6,0-13.7,4.4-16.2,12.1c-2.6,7.9-2.6,16,0.8,23.7c2.9,6.7,8.1,10.1,15.5,10.1
		c7.4,0,12.7-3.4,15.4-10.2C-73.6,370-73.1,365.7-72.3,362.1z"/>
	<path d="M15.4,399.4c11,0,21.6-0.4,32.2,0.1c10.1,0.5,17.1,6.4,20.3,15.9c4.1,12.1,3.8,24.3-1.9,35.9c-3.9,8-10.4,13-19.5,13.3
		c-10.2,0.4-20.3,0.1-31.1,0.1C15.4,443,15.4,421.5,15.4,399.4z M28.4,453.8c9.4-0.7,18.9,2.6,24.8-7.3c4.8-8.1,4.7-26.1-0.7-31.8
		c-6.9-7.2-15.7-3.6-24.1-4.1C28.4,425.3,28.4,439.1,28.4,453.8z"/>
	<path d="M-136.3,437.2c-9.5,0-18.6,0-28.5,0c0,9.2,0,18,0,27.2c-5,0-9.1,0-13.5,0c0-21.7,0-43.1,0-64.9c15.4,0,30.6,0,46.2,0
		c0,3.4,0,6.7,0,10.6c-10.6,0-21.1,0-32.2,0c0,5.3,0,10.1,0,15.5c9.1,0,18.4,0,28.1,0C-136.3,429.7-136.3,433-136.3,437.2z"/>
	<path d="M-159.5,339.7c-7.1,0-13,0-19.5,0c0-3.7,0-7,0-10.7c17.3,0,34.6,0,52.3,0c0,3.3,0,6.5,0,10.6c-6.1,0-12.2,0-19,0
		c0,18.5,0,36.2,0,54.3c-4.9,0-9,0-13.9,0C-159.5,376.1-159.5,358.3-159.5,339.7z"/>
</g>
</svg>
