<?xml version="1.0" encoding="utf-8"?>
<!-- Generator: Adobe Illustrator 19.0.1, SVG Export Plug-In . SVG Version: 6.00 Build 0)  -->
<svg version="1.1" id="Layer_1" xmlns="http://www.w3.org/2000/svg" xmlns:xlink="http://www.w3.org/1999/xlink" x="0px" y="0px"
	 viewBox="-180 312.1 250.7 168.9" style="enable-background:new -180 312.1 250.7 168.9;" xml:space="preserve">
<style type="text/css">
	.st0{fill:#FFFFFF;}
</style>
<g>
	<path class="st0" d="M-145.5,445.1c-10.7,0-21.5,0-32.2,0c-0.5,0-1.1,0-1.6-0.1c-0.3-0.1-0.7-0.5-0.7-0.7c0-0.3,0.3-0.7,0.6-0.8
		c0.4-0.2,1-0.2,1.4-0.2c3.9-0.2,7.8-0.4,11.7-0.7c4.2-0.4,5.6-1.9,6-6.1c0.1-1.3,0.2-2.7,0.2-4c0-25.1,0-50.1,0-75.2
		c0-5.6-1.8-7.6-7.5-8c-2.5-0.2-5-0.3-7.5-0.5c-0.4,0-0.9-0.1-1.3-0.3c-0.3-0.1-0.7-0.6-0.6-0.8c0-0.3,0.4-0.6,0.7-0.7
		c0.3-0.1,0.6-0.1,0.9-0.1c18,0,36-0.2,54,0.1c11.2,0.2,22,2.6,31.7,8.6c10.8,6.8,17,16.8,19.7,29.1c2.7,12.8,1.5,25.2-4.7,36.8
		c-7.2,13.5-18.5,21.1-33.7,23.1c-2.7,0.3-5.4,0.5-8.1,0.5C-126.1,445.2-135.8,445.1-145.5,445.1z M-131.5,442.2c0,0.1,0,0.2,0,0.3
		c5.5-0.5,11.1-0.7,16.6-1.4c5.5-0.7,10.6-2.7,14.7-6.6c3.5-3.4,6.6-7.1,8.6-11.6c7.7-17,8.3-34.1,0.2-51.2
		c-4.2-8.9-10.8-15.2-20.2-18.6c-9.8-3.5-19.9-3.1-30-3c-1.3,0-1.9,0.8-1.9,2.1c0,0.9,0,1.9,0,2.8c0,28,0,56.1,0,84.1
		c0,2.7,0.3,3,3.1,3C-137.4,442.2-134.5,442.2-131.5,442.2z"/>
	<path class="st0" d="M-3.6,446.3c-5.8-0.3-11.2-1.6-15.8-5.2c-4.7-3.7-6.8-8.9-7.7-14.6c-1.9-11.6,4.3-22.9,15.3-27
		c7.7-2.9,15.6-2.6,23.1,1c6.6,3.2,10,8.9,11.5,16c0.8,4,0.9,8-0.1,11.9c-2.5,8.9-8.7,14.1-17.3,16.5C2.4,445.6-0.6,445.8-3.6,446.3
		z M12.5,423c0-0.8-0.1-1.9-0.2-3.1c-0.4-4.9-1.4-9.6-4.2-13.7c-3.4-4.9-8.1-6.8-13.9-5.7c-5.1,1-7.9,4.7-9.6,9.3
		c-1.9,5.2-1.9,10.6-1,15.9c0.8,4.5,2.3,8.7,5.2,12.2c2.3,2.8,5,4.8,8.7,5c5.8,0.4,10.9-3.1,13.1-8.9C12.1,430.6,12.5,427,12.5,423z
		"/>
	<path class="st0" d="M50.3,411.6c0.5-0.7,0.7-1.1,1-1.6c2-2.7,3.9-5.5,6.2-8c2.1-2.3,4.9-3.5,8.2-2.8c3.6,0.8,5.6,3.8,4.9,7.4
		c-0.4,1.7-1.3,2.8-3,3.3c-1.7,0.5-2.9-0.4-3.7-1.7c-2.8-4.3-4.5-2.9-7.2-0.8c-3.1,2.4-5.6,5.2-6.2,9.2c-0.4,2.4-0.4,4.9-0.4,7.3
		c0,5,0.1,10,0.2,15c0,2.9,1,4.1,3.9,4.6c1.4,0.2,2.8,0.2,4.2,0.4c0.4,0.1,0.7,0.4,1.1,0.6c-0.1,0.1-0.1,0.3-0.2,0.4
		c-0.5,0-1,0.1-1.6,0.1c-8.4,0-16.7,0-25.1,0c-0.6,0-1.2-0.3-1.8-0.5c0.6-0.2,1.2-0.6,1.8-0.7c1.3-0.2,2.6-0.2,3.8-0.4
		c2.5-0.5,3.5-1.7,3.7-4.2c0.1-2,0-4,0-6c0-7.7,0-15.5-0.1-23.2c0-2.8-1.3-3.8-4-3.2c-1,0.2-1.9,0.6-2.8,0.8
		c-0.5,0.1-0.9,0.3-1.4,0.3c-0.2,0-0.6-0.2-0.7-0.4c-0.1-0.2,0.1-0.6,0.4-0.7c0.5-0.3,1-0.5,1.6-0.7c4.8-1.5,9.6-3.3,14-5.9
		c0.2-0.1,0.4-0.2,0.6-0.3c1.7-0.8,2.6-0.2,2.6,1.6c0,2.8,0,5.7,0,8.5C50.2,410.4,50.2,410.8,50.3,411.6z"/>
	<path class="st0" d="M-42.7,420.3c0,6,0,12,0,18c0,3.7,1.1,4.9,4.9,5.3c1.2,0.1,2.3,0.1,3.5,0.3c0.3,0,0.6,0.4,0.8,0.6
		c-0.3,0.2-0.5,0.4-0.8,0.5c-0.2,0.1-0.4,0-0.7,0c-8.3,0-16.6,0-24.8,0c-0.6,0-1.2-0.4-1.8-0.6c0.6-0.2,1.2-0.6,1.8-0.6
		c1.4-0.2,2.8-0.2,4.1-0.4c1.6-0.3,2.6-1.4,2.8-3c0.1-0.9,0.3-1.9,0.3-2.8c0-9.2,0-18.3,0-27.5c0-3-1.4-4-4.2-3.3
		c-1.2,0.3-2.4,0.7-3.6,1c-0.4,0.1-0.8-0.2-1.2-0.4c0.3-0.3,0.5-0.8,0.9-1c1.2-0.4,2.4-0.7,3.5-1.1c3.3-1.4,6.6-2.8,9.9-4.3
		c0.9-0.4,1.8-1,2.8-1.3c1.1-0.4,1.7,0,1.8,1.2c0.1,0.5,0,1.1,0,1.6C-42.7,408.4-42.7,414.3-42.7,420.3z"/>
	<path class="st0" d="M-48.4,382.4c-3.6,0-6.4-2.9-6.4-6.5c0-3.5,2.9-6.3,6.4-6.3c3.6,0,6.4,2.9,6.4,6.5
		C-41.9,379.6-44.8,382.4-48.4,382.4z"/>
</g>
</svg>
