<?xml version="1.0" encoding="utf-8"?>
<!-- Generator: Adobe Illustrator 19.0.1, SVG Export Plug-In . SVG Version: 6.00 Build 0)  -->
<svg version="1.1" id="Layer_1" xmlns="http://www.w3.org/2000/svg" xmlns:xlink="http://www.w3.org/1999/xlink" x="0px" y="0px"
	 viewBox="-180 312.1 250.7 168.9" style="enable-background:new -180 312.1 250.7 168.9;" xml:space="preserve">
<g>
	<path d="M-17.9,481c-0.3,0-0.5,0-0.8,0c-2.3,0-4.6,0-6.9,0c-0.5,0-0.9-0.2-1.2-0.6c-9.2-13.4-18.4-26.7-27.6-40
		c-1.4-2.1-2.8-4.1-4.3-6.2c-0.1-0.2-0.3-0.4-0.4-0.5c-0.1,0-0.1,0-0.1,0c0,0,0,0,0,0.1c0,0,0,0.1,0,0.1c0,0.1,0,0.1,0,0.2
		c0,15.5,0,31.1,0,46.6c0,0,0,0.1,0,0.1c0,0,0,0,0,0.1c-0.5,0.1-6.8,0.2-7.8,0c0-20.1,0-40.3,0-60.5c0.3,0,0.5,0,0.7,0
		c2.3,0,4.6,0,7,0c0.5,0,0.8,0.1,1.1,0.6c5.5,8,11.1,16.1,16.6,24.1c5.1,7.4,10.2,14.7,15.2,22.1c0.1,0.2,0.2,0.3,0.3,0.5
		c0.1,0,0.1,0,0.1,0c0,0,0,0,0,0c0-0.1,0-0.1,0-0.2c0-15.6,0-31.2,0-46.8c0,0,0,0,0-0.1c0,0,0,0,0-0.1c2.6,0,5.2,0,7.8,0
		C-17.9,440.6-17.9,460.8-17.9,481z"/>
	<path d="M-3.9,480.9c0-20.2,0-40.3,0-60.5c0.2,0,0.4,0,0.6,0c7.5,0,14.9,0,22.4,0c3.3,0,6.6,0.3,9.8,0.9c2.9,0.6,5.5,1.8,7.9,3.5
		c3.3,2.3,5.6,5.4,7.4,8.9c1.8,3.6,2.7,7.3,3.1,11.3c0.3,3.3,0.4,6.5,0.1,9.8c-0.4,5-1.6,9.8-4.1,14.2c-1.6,2.8-3.5,5.3-6.2,7.2
		c-2.6,1.9-5.5,3-8.6,3.8c-3.4,0.8-6.8,1.1-10.2,1.1c-7.2,0-14.4,0-21.6,0C-3.5,481-3.7,481-3.9,480.9z M4.3,473.8
		c0.3,0,0.4,0,0.6,0c4.5,0,9.1,0,13.6,0c2.5,0,4.9-0.3,7.4-0.8c2.5-0.6,4.8-1.6,6.7-3.3c2-1.8,3.3-3.9,4.2-6.4
		c1.2-3.1,1.8-6.3,2-9.5c0.2-3.5,0.2-6.9-0.4-10.4c-0.4-2.6-1.1-5.2-2.4-7.6c-2.1-3.8-5.2-6.3-9.4-7.5c-2.3-0.6-4.7-0.8-7-0.8
		c-5-0.1-10,0-15-0.1c-0.1,0-0.3,0-0.4,0.1C4.3,443,4.3,458.4,4.3,473.8z"/>
	<path d="M-82.1,446.2c0,2.3,0,4.6,0,7c-1.6,0.1-3.3,0-4.9,0c-1.7,0-3.3,0-5,0c-1.6,0-3.3,0-4.9,0c-1.7,0-3.3,0-5,0
		c-1.6,0-3.3,0-4.9,0c-1.7,0-3.3,0-5,0c-1.6,0-3.3,0-4.9,0c-0.2,0.5-0.2,19-0.1,20.5c0,0,0,0,0.1,0c0,0,0,0,0.1,0c0,0,0,0,0.1,0
		c0,0,0.1,0,0.1,0c0,0,0,0,0.1,0c0,0,0.1,0,0.1,0c12.4,0,24.9,0,37.3,0c0,0,0.1,0,0.1,0c0,0,0,0,0.1,0c0,0,0,0,0.1,0
		c0,0,0,0,0.1,0.1c0,2.3,0,4.6,0,7c0,0,0,0,0,0c0,0,0,0-0.1,0c-0.2,0-0.3,0-0.5,0c-15.2,0-30.5,0-45.7,0c0,0-0.1,0-0.2-0.1
		c0-20.1,0-40.3,0-60.5c15,0,30,0,45,0c0.1,0.5,0.2,5.8,0.1,7.1c-1.7,0.1-3.5,0-5.2,0c-1.8,0-3.5,0-5.3,0c-1.7,0-3.5,0-5.2,0
		c-1.8,0-3.5,0-5.3,0c-1.7,0-3.5,0-5.2,0c-1.8,0-3.5,0-5.3,0c-1.7,0-3.5,0-5.3,0c0,6.2,0,12.3,0,18.4c0,0,0,0,0.1,0.1c0,0,0,0,0.1,0
		c0,0,0,0,0.1,0c0,0,0.1,0,0.1,0c0,0,0,0,0.1,0c0,0,0,0,0.1,0c0.1,0,0.1,0,0.2,0c11.1,0,22.2,0,33.3,0c0,0,0.1,0,0.1,0
		c0,0,0,0,0.1,0c0,0,0,0,0.1,0c0,0,0,0,0.1,0C-82.3,446.1-82.2,446.1-82.1,446.2z"/>
	<path d="M-88.8,385.1c0-24.3,0-48.7,0-73c16.9,0,33.7,0,50.6,0c0.1,0.5,0.2,7.8,0,8.6c-13.5,0-27.1,0-40.6,0c0,4.3,0,8.5,0,12.8
		c7.3,0,14.6,0,22,0c0,2.9,0,5.7,0,8.6c-7.3,0-14.6,0-22,0c0,14.4,0,28.7,0,43C-82.2,385.1-85.5,385.1-88.8,385.1z"/>
	<path d="M-74.7,384.8c0-2.9,0-5.6,0-8.5c4.5-0.1,9,0,13.4,0c4.5,0,8.9,0,13.4,0c4.5,0,8.9,0,13.4,0c0.1-0.5,0.2-17.1,0.1-18.2
		c-1.4,0-2.9,0-4.4,0c-1.5,0-2.9,0-4.4,0s-2.9,0-4.4,0s-2.9,0-4.4,0c-1.5,0-2.9,0-4.4,0c-0.2-0.5-0.2-7.5-0.1-8.6c0.3,0,0.6,0,0.9,0
		c6.8,0,13.6,0,20.4,0c0.3,0,0.6,0,1,0c0-12.3,0-24.5,0-36.8c3.3,0,6.5,0,9.8,0c0,24.1-0.1,48.1-0.1,72.3
		C-41.3,384.9-58,384.9-74.7,384.8z"/>
	<path d="M-140.5,446.3c0,2.4,0,4.7,0,7.1c-1,0-1.9,0-2.9,0c-1,0-2,0-3,0c-1,0-1.9,0-2.9,0s-1.9,0-2.9,0c-1,0-2,0-3,0
		c-1,0-1.9,0-2.9,0s-1.9,0-2.9,0c-1,0-1.9,0-2.9,0c-1,0-2,0-3,0c-1,0-1.9,0-3,0c0,9.2,0,18.3,0,27.4c-0.6,0.2-7.1,0.2-8.2,0.1
		c-0.1-0.5-0.2-59.3-0.1-60.4c0.5-0.1,41-0.2,41.9,0c0,2.3,0,4.7,0,7.1c-11.2,0-22.4,0-33.7,0c0,6.3,0,12.5,0,18.7c1,0,1.9,0,2.9,0
		c1,0,2,0,3,0c1,0,1.9,0,2.9,0s1.9,0,2.9,0c1,0,2,0,3,0c1,0,1.9,0,2.9,0s1.9,0,2.9,0s1.9,0,2.9,0c1,0,2,0,3,0
		C-142.5,446.3-141.5,446.3-140.5,446.3z"/>
	<path d="M60.4,420.4c2.7,0,5.4,0,8,0c0,0,0.1,0,0.1,0.1c0,0,0,0,0,0.1c0,0.1,0,0.2,0,0.3c0,19.9,0,39.9,0,59.8c0,0.1,0,0.1-0.1,0.2
		c-2.7,0-5.3,0-8,0c0,0,0,0,0,0c0,0,0,0,0-0.1c0-20,0-40,0-60C60.4,420.7,60.4,420.6,60.4,420.4z"/>
</g>
</svg>
