<?xml version="1.0" encoding="utf-8"?>
<!-- Generator: Adobe Illustrator 19.0.1, SVG Export Plug-In . SVG Version: 6.00 Build 0)  -->
<svg version="1.1" id="Layer_1" xmlns="http://www.w3.org/2000/svg" xmlns:xlink="http://www.w3.org/1999/xlink" x="0px" y="0px"
	 viewBox="-180 312.1 250.7 168.9" style="enable-background:new -180 312.1 250.7 168.9;" xml:space="preserve">
<style type="text/css">
	.st0{fill:#FFFFFF;}
</style>
<g>
	<path class="st0" d="M-180,363.6c3.4,0,6.8,0,10.2,0c0.4,0,0.4,0.2,0.5,0.5c1.8,4.9,3.6,9.9,5.4,14.8c1.4,4,2.9,7.9,4.3,11.9
		c0,0.1,0.1,0.3,0.2,0.5c0.5-1.3,0.9-2.6,1.4-3.8c2.8-7.8,5.6-15.6,8.4-23.4c0.1-0.3,0.2-0.5,0.6-0.5c3.3,0,6.5,0,9.8,0
		c0.1,0,0.2,0,0.3,0c0,12.9,0,25.7,0,38.5c-2.3,0-4.6,0-7,0c0-9.1,0-18.2,0-27.3c0,0-0.1,0-0.1,0c-0.4,1.1-0.8,2.3-1.2,3.4
		c-2.7,7.9-5.4,15.7-8.1,23.6c-0.1,0.3-0.3,0.4-0.6,0.4c-2.3,0-4.5,0-6.8,0c-0.4,0-0.6-0.1-0.7-0.5c-2.1-6-4.2-12.1-6.2-18.1
		c-1-2.9-2-5.7-3-8.6c0-0.1-0.1-0.2-0.2-0.3c0,9.1,0,18.2,0,27.4c-2.4,0-4.7,0-7.1,0C-180,389.3-180,376.4-180,363.6z"/>
	<path class="st0" d="M-94.9,362.6c1,0.2,1.9,0.3,2.9,0.5c6.7,1.8,11.3,5.9,13.5,12.6c0.1,0.2,0.1,0.4,0.2,0.6c-0.2,0-0.4,0-0.6,0
		c-2.1,0-4.2,0-6.3,0c-0.6,0-0.9-0.1-1.2-0.7c-1.4-2.7-3.6-4.7-6.6-5.5c-7.2-2-14.7,2.6-16.1,10c-1.1,5.9,1.4,11.7,6.6,14.4
		c4.1,2.1,8.3,2.2,12.4-0.2c1.5-0.9,2.5-2.2,3.4-3.7c0.2-0.3,0.4-0.5,0.8-0.5c2.2,0,4.5,0,6.7,0c0.2,0,0.3,0,0.6,0
		c-0.1,0.3-0.1,0.5-0.2,0.7c-2.4,6.5-6.9,10.4-13.6,11.9c-6,1.3-11.6,0.1-16.4-3.7c-4.3-3.4-6.8-7.9-7.4-13.4
		c-0.7-5.7,0.6-10.9,4.1-15.4c3.4-4.3,7.8-6.8,13.3-7.4c0.1,0,0.3-0.1,0.4-0.1C-97.2,362.6-96,362.6-94.9,362.6z"/>
	<path class="st0" d="M-180,407.4c1.9,0,3.7,0,5.6,0c0.4,0,0.6,0.1,0.7,0.5c1.8,5,3.6,10.1,5.4,15.1c0.1,0.1,0.1,0.3,0.2,0.5
		c0.6-1.6,1.1-3,1.6-4.5c1.3-3.7,2.7-7.4,4-11.1c0.1-0.4,0.3-0.5,0.7-0.5c1.8,0,3.7,0,5.6,0c0,7.5,0,15,0,22.5c-1.3,0-2.7,0-4.1,0
		c0-5.3,0-10.5,0-15.8c0,0-0.1,0-0.1,0c-0.2,0.7-0.5,1.4-0.7,2c-1.5,4.5-3.1,8.9-4.6,13.4c-0.1,0.3-0.2,0.4-0.6,0.4
		c-1.2,0-2.4,0-3.5,0c-0.4,0-0.6-0.1-0.7-0.5c-1.7-5-3.4-9.9-5.1-14.9c0-0.1-0.1-0.3-0.2-0.4c0,5.2,0,10.5,0,15.8
		c-1.4,0-2.8,0-4.1,0C-180,422.4-180,414.9-180,407.4z"/>
	<path class="st0" d="M12.3,430.5c-0.5-0.1-1-0.2-1.5-0.3c-5.2-1.1-9.4-5.9-9.2-11.9c0.1-5.4,4.2-10.2,9.6-11.2
		c6.8-1.3,13.1,3.3,14,10.2c0.8,6.4-3.9,12.4-10.3,13.1c-0.1,0-0.2,0.1-0.3,0.1C13.8,430.5,13.1,430.5,12.3,430.5z M5.8,418.7
		c0,4.2,3.4,7.7,7.7,7.7c4.2,0,7.7-3.4,7.7-7.7c0-4.2-3.4-7.7-7.7-7.7C9.2,411,5.8,414.4,5.8,418.7z"/>
	<path class="st0" d="M60,430.5c-0.9-0.2-1.8-0.3-2.7-0.5c-2.4-0.7-4.4-1.8-6-3.8c-0.1-0.1-0.2-0.2-0.3-0.4c1.2-0.8,2.3-1.7,3.5-2.5
		c0.4,0.4,0.7,0.8,1,1.1c2.5,2.4,6.3,2.7,9,1.5c0.9-0.4,1.5-1,1.6-2c0.1-0.9-0.4-1.6-1.1-2.1c-1-0.7-2.2-0.9-3.4-1.2
		c-1.9-0.5-3.8-0.9-5.6-1.5c-5.1-1.8-4.6-8-1.4-10.4c2-1.5,4.2-2,6.6-2c3.5,0.1,6.5,1.3,8.8,4.1c0.1,0.1,0.2,0.2,0.2,0.3
		c0,0,0,0.1,0,0.2c-1.1,0.8-2.2,1.6-3.3,2.5c-0.2-0.2-0.4-0.5-0.6-0.7c-2.2-2.5-5.4-2.8-7.9-2c-1.2,0.4-1.8,1.1-1.7,2.2
		c0,0.9,0.5,1.5,1.2,1.8c1,0.4,2,0.7,3,0.9c1.7,0.4,3.5,0.8,5.2,1.3c1.2,0.3,2.3,1,3.2,1.9c0.7,0.8,1.1,1.7,1.2,2.7
		c0,0.1,0.1,0.2,0.1,0.3c0,0.5,0,1,0,1.5c0,0.1-0.1,0.3-0.1,0.4c-0.2,1.2-0.6,2.2-1.3,3.1c-1.2,1.5-2.8,2.2-4.6,2.7
		c-0.7,0.2-1.5,0.3-2.2,0.4C61.6,430.5,60.8,430.5,60,430.5z"/>
	<path class="st0" d="M-132.5,430.5c-0.4-0.1-0.9-0.2-1.3-0.3c-4.8-1.1-8.4-4.9-9-9.9c-0.6-4.6,0.9-8.5,4.7-11.3
		c5.7-4.3,14.1-2.1,16.9,4.3c0.2,0.5,0.4,1,0.6,1.6c-0.7,0-1.3,0-1.9,0c-0.8,0-1.5,0-2.3,0c-0.2,0-0.4-0.1-0.5-0.3
		c-1.6-3.1-4.4-4-7.3-3.5c-3.1,0.6-5.1,2.5-5.9,5.6c-1.2,4.4,1.5,8.7,5.9,9.5c2.9,0.5,5.4-0.3,7-3c0.1-0.1,0.3-0.3,0.4-0.3
		c1.4,0,2.9,0,4.4,0c-0.1,0.2-0.1,0.4-0.2,0.6c-1.6,4-4.6,6.2-8.8,6.9c-0.1,0-0.3,0.1-0.4,0.1C-131,430.5-131.7,430.5-132.5,430.5z"
		/>
	<path class="st0" d="M17,386.4c0,2.9,0,5.8,0,8.7c6.6,0,13.1,0,19.7,0c0,2.4,0,4.7,0,7c-8.9,0-17.8,0-26.8,0c0-12.8,0-25.6,0-38.5
		c8.9,0,17.8,0,26.8,0c0,2.3,0,4.6,0,7c-6.5,0-13.1,0-19.7,0c0,2.9,0,5.8,0,8.7c6.6,0,13.1,0,19.7,0c0,2.4,0,4.7,0,7.1
		C30.2,386.4,23.6,386.4,17,386.4z"/>
	<path class="st0" d="M-39.4,402.1c-2.4,0-4.7,0-7,0c0-5.2,0-10.4,0-15.7c-6,0-11.9,0-17.9,0c0,5.2,0,10.4,0,15.7
		c-2.4,0-4.7,0-7.1,0c0-12.8,0-25.7,0-38.5c2.3,0,4.7,0,7,0c0,5.2,0,10.4,0,15.7c6,0,11.9,0,17.9,0c0-5.2,0-10.4,0-15.7
		c2.4,0,4.7,0,7.1,0C-39.4,376.4-39.4,389.2-39.4,402.1z"/>
	<path class="st0" d="M-33.8,402.1c0.9-2.2,1.7-4.3,2.6-6.5c4.2-10.5,8.5-21.1,12.7-31.6c0.2-0.4,0.3-0.5,0.8-0.5c2.1,0,4.2,0,6.3,0
		c0.3,0,0.5,0.1,0.6,0.4c5.1,12.6,10.1,25.2,15.2,37.9c0,0.1,0.1,0.2,0.1,0.3c-0.2,0-0.3,0-0.5,0c-2.2,0-4.4,0-6.6,0
		c-0.4,0-0.5-0.1-0.7-0.5c-1-2.6-2.1-5.2-3.1-7.9c-0.1-0.3-0.3-0.5-0.6-0.5c-5,0-10,0-15.1,0c-0.4,0-0.5,0.1-0.6,0.5
		c-1,2.6-2.1,5.2-3.2,7.9c-0.1,0.2-0.1,0.5-0.5,0.4C-28.9,402.1-31.3,402.1-33.8,402.1z M-9.5,386.4c-1.7-4.4-3.5-8.8-5.2-13.2
		c-1.8,4.5-3.5,8.8-5.2,13.2C-16.4,386.4-13,386.4-9.5,386.4z"/>
	<path class="st0" d="M53.9,395.1c5.6,0,11,0,16.5,0c0,2.4,0,4.7,0,7c-7.8,0-15.7,0-23.5,0c0-12.8,0-25.7,0-38.5c2.3,0,4.6,0,7,0
		C53.9,374.1,53.9,384.5,53.9,395.1z"/>
	<path class="st0" d="M-129.9,363.6c2.3,0,4.7,0,7,0c0,12.8,0,25.7,0,38.5c-2.3,0-4.6,0-7,0C-129.9,389.3-129.9,376.5-129.9,363.6z"
		/>
	<path class="st0" d="M34.1,429.9c-1.4,0-2.7,0-4.1,0c0-7.5,0-14.9,0-22.5c0.2,0,0.4,0,0.6,0c3.4,0,6.8,0,10.2,0
		c3.4,0,6.3,2.2,7.3,5.4c1,3.3-0.3,6.7-3.1,8.6c-0.2,0.1-0.3,0.2-0.5,0.3c1.6,2.7,3.2,5.4,4.8,8.3c-0.8,0-1.6,0-2.3,0
		c-0.7,0-1.4,0-2.1,0c-0.4,0-0.6-0.1-0.7-0.4c-1.2-2.2-2.5-4.4-3.8-6.6c-0.1-0.2-0.3-0.4-0.5-0.4c-1.8,0-3.6,0-5.4,0
		c-0.1,0-0.1,0-0.3,0C34.1,425,34.1,427.4,34.1,429.9z M34.1,418.4c0.1,0,0.2,0,0.3,0c2.2,0,4.3,0,6.5,0c0.2,0,0.4,0,0.6-0.1
		c1.6-0.4,2.8-2,2.7-3.5c-0.2-1.8-1.6-3.2-3.4-3.2c-2.1,0-4.2,0-6.3,0c-0.1,0-0.2,0-0.4,0C34.1,413.8,34.1,416.1,34.1,418.4z"/>
	<path class="st0" d="M-53.6,425.8c0,1.4,0,2.8,0,4.1c-5.2,0-10.4,0-15.6,0c0-7.5,0-15,0-22.5c5.2,0,10.4,0,15.6,0
		c0,1.3,0,2.7,0,4.1c-3.8,0-7.6,0-11.5,0c0,1.7,0,3.3,0,5c3.8,0,7.6,0,11.5,0c0,1.4,0,2.7,0,4.2c-3.8,0-7.6,0-11.5,0
		c0,1.7,0,3.3,0,5.1C-61.3,425.8-57.5,425.8-53.6,425.8z"/>
	<path class="st0" d="M-112.5,420.8c0,3.1,0,6.1,0,9.1c-1.4,0-2.7,0-4.1,0c0-7.5,0-14.9,0-22.5c1.3,0,2.7,0,4.1,0c0,3,0,6.1,0,9.1
		c3.5,0,6.9,0,10.4,0c0-3,0-6.1,0-9.1c1.4,0,2.7,0,4.1,0c0,7.5,0,15,0,22.5c-1.4,0-2.7,0-4.1,0c0-3,0-6.1,0-9.1
		C-105.6,420.8-109,420.8-112.5,420.8z"/>
	<path class="st0" d="M0.7,407.4c-3,3.1-5.9,6.1-8.8,9.1c3.2,4.5,6.3,8.9,9.6,13.4c-1.3,0-2.5-0.1-3.6,0c-1.1,0.1-1.8-0.3-2.4-1.2
		c-2-2.9-4.1-5.8-6.1-8.6c-0.1-0.2-0.2-0.3-0.3-0.4c-0.9,0.9-1.9,1.8-2.8,2.7c-0.1,0.1-0.2,0.4-0.2,0.6c0,2.1,0,4.2,0,6.3
		c0,0.2,0,0.4,0,0.6c-1.4,0-2.7,0-4.1,0c0-7.5,0-14.9,0-22.4c1.3,0,2.7,0,4.1,0c0,3,0,6.1,0,9.2c0,0,0.1,0.1,0.1,0.1
		c0.3-0.4,0.7-0.8,1-1.1c2.6-2.6,5.1-5.3,7.7-7.9c0.1-0.1,0.3-0.3,0.5-0.3C-2.9,407.4-1.1,407.4,0.7,407.4z"/>
	<path class="st0" d="M-94.8,429.9c0.5-1.3,1-2.5,1.5-3.7c2.4-6,4.9-12.1,7.3-18.2c0.2-0.5,0.5-0.7,1-0.7c1,0,2,0,3.1,0
		c0.4,0,0.6,0.2,0.7,0.5c2.8,6.9,5.6,13.9,8.3,20.8c0.2,0.4,0.3,0.8,0.5,1.2c-1.5,0-2.9,0-4.3,0c-0.1,0-0.3-0.2-0.3-0.4
		c-0.6-1.4-1.2-2.9-1.7-4.3c-0.1-0.3-0.3-0.4-0.6-0.4c-2.8,0-5.5,0-8.3,0c-0.4,0-0.6,0.1-0.7,0.5c-0.5,1.4-1.1,2.8-1.7,4.2
		c-0.1,0.3-0.3,0.4-0.7,0.4C-92.1,429.9-93.4,429.9-94.8,429.9z M-86.6,420.7c2.1,0,4,0,6,0c-1-2.6-2-5-3-7.6
		C-84.6,415.7-85.6,418.1-86.6,420.7z"/>
	<path class="st0" d="M-47.7,407.4c1.4,0,2.7,0,4.1,0c0,6.1,0,12.2,0,18.4c3.2,0,6.4,0,9.6,0c0,1.4,0,2.8,0,4.1c-4.6,0-9.1,0-13.7,0
		C-47.7,422.4-47.7,414.9-47.7,407.4z"/>
	<path class="st0" d="M-146.7,429.9c-1.4,0-2.7,0-4.1,0c0-7.5,0-15,0-22.5c1.4,0,2.7,0,4.1,0C-146.7,414.9-146.7,422.4-146.7,429.9z
		"/>
</g>
</svg>
