<?xml version="1.0" encoding="utf-8"?>
<!-- Generator: Adobe Illustrator 19.0.1, SVG Export Plug-In . SVG Version: 6.00 Build 0)  -->
<svg version="1.1" id="Layer_1" xmlns="http://www.w3.org/2000/svg" xmlns:xlink="http://www.w3.org/1999/xlink" x="0px" y="0px"
	 viewBox="-180 312.1 250.7 168.9" style="enable-background:new -180 312.1 250.7 168.9;" xml:space="preserve">
<style type="text/css">
	.st0{fill:#FFFFFF;}
</style>
<g>
	<path class="st0" d="M-118.1,428.3c-1-1.9-2.2-3.7-3-5.7c-3.5-8.5,3-14.7,9.6-14.9c4.4-0.2,8.8,2.9,9.5,6.8c0.5,3-0.6,5.5-2.6,7.7
		c-1.9,2-4.3,3.3-6.7,4.6c-0.2,0.1-0.4,0.2-0.7,0.3c3.8,4.8,7.5,9.6,11.4,14.7c1.4-2.5,2.7-4.9,3.9-7.3c0.7-1.4,0-2.6-1.4-3.2
		c-0.9-0.3-1.9-0.4-2.8-0.6c-0.2,0-0.4-0.2-0.6-0.3c0.2-0.1,0.4-0.4,0.6-0.4c4.9,0,9.9,0,14.8,0c0.1,0,0.2,0.1,0.6,0.2
		c-0.5,0.3-0.7,0.5-1,0.6c-1.4,0.3-2.9,0.4-4.3,0.9c-1,0.3-2.1,1-2.7,1.8c-2.3,3-4.4,6.1-6.7,9.4c2.3,2.6,4.5,5.2,6.9,7.7
		c1.3,1.3,3,1.9,4.9,1.9c0.2,0,0.5,0.2,0.7,0.3c-0.2,0.1-0.5,0.4-0.7,0.4c-3.4,0-6.9,0-10.3,0c-0.3,0-0.7-0.3-0.9-0.5
		c-1.4-1.8-2.8-3.6-4.1-5.3c-1.7,1.4-3.3,2.8-5.1,4c-4.1,2.7-8.6,3.4-13.3,1.8c-7.9-2.6-10.5-11.8-5.3-18.3c2.2-2.7,5-4.7,8.2-6.1
		C-118.8,428.6-118.4,428.4-118.1,428.3z M-104.7,445.9c-4.2-5.6-8.4-11.1-12.6-16.7c-0.7,0.4-1.4,0.8-2,1.2
		c-0.5,0.3-0.9,0.7-1.3,1.1c-3.6,3.5-4.2,10.3-1.1,14.8c2.2,3.1,5.2,4.6,9,4C-109.5,449.9-107,448.1-104.7,445.9z M-113,425.9
		c5.2-2,8.1-7,7.3-12c-0.5-2.9-2.6-4.8-5.4-4.9c-3-0.1-4.9,1.4-5.5,4.3c-0.2,0.8-0.2,1.6-0.2,2.4
		C-116.9,419.6-115.2,422.8-113,425.9z"/>
	<path class="st0" d="M12,433.7c-0.1,9.5-6.3,17.4-15.3,19.5c-10.3,2.4-20.7-4.2-23-14.6c-2.1-9.2,1.9-18.5,10-22.7
		c11.3-5.9,25.2,0.8,27.8,13.3C11.7,430.7,11.8,432.2,12,433.7z M4.4,433.8c-0.1-1.6-0.1-3.3-0.3-4.9c-0.4-3.4-1.3-6.6-3.2-9.5
		c-3.4-5-9.9-6.1-14.4-2.5c-1.9,1.6-3.2,3.6-4,5.9c-2.4,7.1-2.4,14.3-0.1,21.5c0.9,2.7,2.3,5.1,4.7,6.7c4.1,2.8,11.1,2.6,14.7-4.2
		C3.8,442.7,4.3,438.3,4.4,433.8z"/>
	<path class="st0" d="M-149.8,388.7c-3.1,0-6.2,0-9.3,0c-3.4,0-6.8,0-10.1,0c-0.5,0-1,0.1-0.8-0.8c1.2-0.1,2.5-0.2,3.7-0.4
		c2-0.3,2.9-1.3,3-3.3c0.1-1,0.1-2,0.1-3.1c0-13,0-26,0-39c0-0.5,0-1,0-1.5c-5.1-1.3-11.2,1.5-13.8,6.3c-0.8,1.5-1.4,3.1-2.1,4.6
		c-0.1,0.3-0.4,0.5-0.6,0.7c-0.1-0.1-0.2-0.1-0.3-0.2c0-0.9,0-1.8,0-2.6c0-3.1,0-6.2,0-9.2c0-0.7,0.2-1,1-1c12.8,0,25.6,0,38.4,0
		c0.7,0,1,0.2,1,1c0,3.7,0,7.4,0,11.1c0,0.3-0.2,0.5-0.3,0.8c-0.2-0.2-0.5-0.4-0.6-0.6c-0.8-1.6-1.4-3.2-2.2-4.7
		c-2.1-4-5.5-5.8-9.9-6.2c-1.2-0.1-2.4,0-3.7,0c0,0.3,0,0.7,0,1c0,13.7,0,27.5,0,41.2c0,0.6,0.1,1.3,0.2,1.9
		c0.3,1.6,1.1,2.5,2.8,2.8c1.1,0.2,2.2,0.2,3.3,0.4c0.2,0,0.5,0.3,0.7,0.5C-149.6,388.4-149.7,388.5-149.8,388.7z"/>
	<path class="st0" d="M-32.8,438.6c0,0.2,0.1,0.5,0,0.7c-0.2,3.2-0.4,6.3-0.6,9.5c0,0.6-0.3,0.9-0.8,1.3c-4,2.5-8.3,3.6-13,3.7
		c-10.7,0.3-19-4.1-24.2-13.4c-7.4-13-1.2-29.6,12.9-35.4c6.3-2.6,12.6-2.6,18.9-0.1c0.6,0.3,1.3,0.5,2,0.7c1.5,0.4,2.6-0.2,3.1-1.6
		c0.1-0.2,0.1-0.3,0.2-0.5c0.2-0.2,0.4-0.4,0.5-0.7c0.1,0.2,0.3,0.5,0.3,0.7c0.1,2.5,0.1,5,0.2,7.5c0.1,1.9,0.1,3.7,0.2,5.6
		c0,0.3-0.2,0.6-0.4,0.9c-0.2-0.2-0.4-0.5-0.5-0.7c-1.2-4.2-3.3-7.7-7-10.1c-6.6-4.3-15.2-2.6-20.1,4c-2.7,3.7-4,7.9-4.6,12.3
		c-0.7,5.3-0.5,10.6,1.1,15.7c1.4,4.5,3.8,8.4,7.8,11.1c7.7,5.1,16.5,3,21-5.2c0.9-1.6,1.4-3.5,2.1-5.2c0.1-0.3,0.3-0.6,0.4-1
		C-33,438.5-32.9,438.5-32.8,438.6z"/>
	<path class="st0" d="M-0.1,356.1c-0.1,0.1-0.1,0.2-0.1,0.2c0,8.2,0,16.4,0,24.5c0,1.2,0.3,2.4,0.5,3.5c0.6,2.3,1.5,3.1,3.9,3.3
		c0.5,0,1,0.1,1.5,0.2c0.2,0,0.3,0.3,0.4,0.4c-0.1,0.1-0.3,0.2-0.4,0.3c-0.1,0.1-0.3,0-0.5,0c-3.8,0-7.6,0-11.3,0
		c-0.3,0-0.6-0.2-0.9-0.3c0.3-0.2,0.5-0.4,0.8-0.5c3.2-0.6,4.1-1.6,4.4-5c0.1-1.6,0.2-3.2,0.2-4.8c0-7.2,0-14.4,0-21.6
		c0-3.8-2.1-5.8-5.3-5.9c-0.3,0-0.6-0.3-0.9-0.5c0.3-0.1,0.6-0.3,0.9-0.3c3,0,6,0,9,0c0.7,0,1.1,0.2,1.5,0.8
		c6.8,9,13.7,17.9,20.5,26.9c0.2,0.3,0.4,0.6,0.7,0.9c0.1-0.1,0.1-0.2,0.1-0.3c0-6.6,0-13.2-0.1-19.8c0-1.3-0.3-2.6-0.5-3.9
		c-0.3-2-1.5-3.2-3.6-3.4c-0.3,0-0.6-0.1-0.9-0.1c-0.4-0.1-1.2,0.3-1.2-0.5c0-0.1,0.8-0.4,1.2-0.4c3.6,0,7.2,0,10.8,0
		c0.2,0,0.5,0,0.7,0c0.2,0.1,0.3,0.2,0.5,0.4c-0.2,0.2-0.3,0.4-0.5,0.5c-0.5,0.1-1.1,0.2-1.7,0.2c-1.4,0.2-2.3,1-2.6,2.2
		c-0.4,1.5-0.7,3-0.7,4.5c-0.1,10.1,0,20.2,0,30.3c0,0.2,0,0.4,0,0.6c-0.1,0.2-0.2,0.5-0.3,0.7c-0.3-0.1-0.6-0.2-0.8-0.3
		c-0.6-0.6-1.1-1.3-1.6-2c-7.8-10.1-15.7-20.2-23.5-30.3C0.1,356.4,0,356.3-0.1,356.1z"/>
	<path class="st0" d="M-80,349.8c0,3.4,0,6.8,0,10.1c-0.1,0-0.2,0-0.3,0.1c-0.1-0.3-0.3-0.6-0.4-0.9c-0.6-1.8-1.3-3.6-2.6-5
		c-2.2-2.3-5-2.9-7.9-3.1c-1.6-0.1-3.3,0-5,0c0,5.8,0,11.6,0,17.5c2.4,0,4.7,0.3,7-0.6c2-0.8,2.9-2.4,3.3-4.4c0-0.2,0.3-0.4,0.4-0.6
		c0.1,0.2,0.3,0.5,0.3,0.7c0,3.7,0,7.4,0,11.1c0,0.2-0.2,0.5-0.3,0.7c-0.1-0.2-0.3-0.4-0.4-0.6c-0.6-3.2-2.3-4.7-5.7-5
		c-1.5-0.1-3,0-4.6,0c0,0.4,0,0.7,0,1.1c0,4.1,0,8.1,0,12.2c0,3.9,1.1,4.9,5,5c0.2,0,0.4-0.1,0.6,0c0.2,0.1,0.4,0.3,0.5,0.4
		c-0.2,0.1-0.3,0.3-0.5,0.3c-0.1,0.1-0.3,0-0.4,0c-5.4,0-10.8,0-16.2,0c-0.4,0-1.1,0.2-0.8-0.7c0.9-0.1,1.8-0.2,2.7-0.3
		c1.6-0.2,2.4-1,2.6-2.5c0.1-0.8,0.2-1.6,0.2-2.4c0-9.1,0-18.2,0-27.2c0-0.8-0.1-1.6-0.2-2.4c-0.3-1.6-1.2-2.3-2.9-2.5
		c-0.7-0.1-1.3-0.1-2-0.2c-0.2,0-0.3-0.2-0.5-0.3c0.2-0.1,0.3-0.3,0.5-0.4c0.1-0.1,0.3,0,0.5,0c8.7,0,17.5,0,26.2,0
		C-80.7,349.8-80.4,349.8-80,349.8z"/>
	<path class="st0" d="M-62.7,350.9c0,5.9,0,11.6,0,17.5c2.2,0,4.5,0.3,6.6-0.5c2.1-0.7,3.3-2.3,3.6-4.4c0-0.3,0.3-0.5,0.4-0.8
		c0.1,0.3,0.3,0.5,0.3,0.8c0,3.7,0,7.4,0,11c0,0.2-0.2,0.5-0.3,0.7c-0.1-0.2-0.3-0.4-0.4-0.6c-0.7-3.3-2.4-4.8-5.8-5.1
		c-1.4-0.1-2.9,0-4.5,0c0,0.4,0,0.7,0,1c0,4.1,0,8.2,0,12.3c0,3.9,1,4.9,4.9,5c0.3,0,0.7,0,1,0c0.1,0.1,0.1,0.2,0.2,0.3
		c-0.2,0.2-0.4,0.4-0.7,0.5c-0.8,0.1-1.5,0-2.3,0c-4.6,0-9.3,0-13.9,0c-0.2,0-0.5,0-0.7,0c-0.2-0.1-0.3-0.3-0.4-0.4
		c0.2-0.1,0.3-0.3,0.5-0.4c0.7-0.1,1.5-0.1,2.2-0.2c1.7-0.2,2.5-1,2.7-2.6c0.1-0.7,0.2-1.4,0.2-2.1c0-9.1,0-18.3,0-27.4
		c0-0.8,0-1.5-0.2-2.3c-0.3-1.6-1.2-2.4-2.9-2.6c-0.6-0.1-1.3-0.1-1.9-0.2c-0.2,0-0.4-0.2-0.6-0.3c0.2-0.1,0.4-0.3,0.6-0.4
		c0.1-0.1,0.3,0,0.5,0c8.7,0,17.4,0,26,0c0.3,0,0.6,0,1.1,0c-0.1,3.4,0.2,6.8,0,10.2c-0.1,0-0.3,0-0.4,0c-0.1-0.3-0.2-0.5-0.3-0.8
		c-1.8-5.8-4.9-8.1-11-8.3C-59.5,350.8-61,350.9-62.7,350.9z"/>
	<path class="st0" d="M55.3,369.2c1.4-2.8,2.9-5.4,4.3-8.1c1.1-2,2.1-4,3.2-6.1c0.1-0.2,0.2-0.4,0.3-0.5c1-2.1,0.2-3.5-2.1-3.9
		c-0.5-0.1-1.2,0.3-1.5-0.6c0.5-0.1,1-0.3,1.5-0.3c2.9,0,5.9,0,8.8,0c0.3,0,0.6,0.2,0.9,0.3c-0.3,0.2-0.6,0.5-0.9,0.5
		c-2.1,0.2-3.7,1.2-4.7,3c-3,5.5-6,11-8.9,16.5c-0.2,0.3-0.2,0.7-0.2,1c0,4.2,0,8.5,0,12.7c0,0.5,0.1,1,0.2,1.5
		c0.3,1.5,1,2.1,2.5,2.3c0.7,0.1,1.4,0.1,2.1,0.2c0.3,0,0.5,0.2,0.8,0.4c-0.2,0.1-0.5,0.4-0.7,0.4c-1.7,0-3.3,0-5,0
		c-3.6,0-7.3,0-10.9,0c-0.3,0-0.5-0.3-0.8-0.4c0.3-0.1,0.5-0.3,0.8-0.3c0.6-0.1,1.2-0.1,1.8-0.2c1.9-0.3,2.8-1.1,2.9-3.1
		c0.1-4.2,0.1-8.5,0.1-12.7c0-0.3-0.2-0.6-0.3-0.9c-3.2-5.8-6.4-11.6-9.6-17.5c-1-1.8-2.3-2.8-4.3-2.9c-0.3,0-0.5-0.3-0.8-0.5
		c0.3-0.1,0.5-0.4,0.8-0.4c4.8,0,9.7,0,14.5,0c0.3,0,0.5,0.2,0.8,0.3c-0.3,0.2-0.5,0.4-0.8,0.5c-0.7,0.2-1.4,0.2-2,0.4
		c-1.2,0.4-1.6,1.3-1.2,2.5c0.3,0.9,0.8,1.7,1.3,2.5c2.3,4.2,4.7,8.4,7,12.7C55,368.8,55.2,369,55.3,369.2z"/>
	<path class="st0" d="M-47.5,388.3c0.2-0.2,0.4-0.5,0.7-0.5c3.7-0.4,5.3-2.9,6.4-6.1c4-10.7,8-21.4,12.1-32.1
		c0.1-0.4,0.5-0.6,0.8-0.9c0.3,0.3,0.6,0.6,0.8,1c4.3,11.3,8.6,22.7,12.9,34c0.7,1.7,1.5,3.4,3.5,3.9c0.4,0.1,0.9,0.1,1.3,0.3
		c0.2,0.1,0.3,0.3,0.4,0.5c-0.1,0.1-0.3,0.2-0.4,0.3c-0.2,0.1-0.4,0-0.6,0c-4.5,0-9,0-13.5,0c-0.2,0-0.5,0-0.7,0
		c-0.1,0-0.4-0.2-0.4-0.3c0-0.1,0.2-0.3,0.3-0.4c0.5-0.1,1-0.2,1.5-0.3c1.7-0.5,2.4-1.7,2.1-3.4c-0.2-1.1-0.6-2.1-1-3.1
		c-0.8-2.2-1.7-4.4-2.6-6.7c-4,0-7.9,0-11.9,0c-0.2,0-0.5,0.2-0.6,0.4c-1.1,2.9-2.2,5.9-3.2,8.9c-0.7,2.3,0.2,3.6,2.6,4.1
		c0.4,0.1,1.2-0.2,1.2,0.6c0,0.1-0.8,0.3-1.3,0.3c-3.4,0-6.9,0-10.3,0C-47.3,388.5-47.4,388.4-47.5,388.3z M-24.2,373.2
		c-1.9-5.1-3.8-10-5.7-14.9c-0.1,0-0.1,0-0.2,0c-1.8,4.9-3.7,9.9-5.5,14.9C-31.8,373.2-28.1,373.2-24.2,373.2z"/>
	<path class="st0" d="M-127.8,369.1c0-4.7,0-9.4,0-14.1c0-0.2,0-0.3,0-0.5c-0.3-2.9-1.1-3.7-4-3.8c-0.5,0-1,0-1.5-0.1
		c-0.2,0-0.4-0.3-0.5-0.4c0.2-0.1,0.4-0.3,0.6-0.4c0.1,0,0.3,0,0.4,0c5.5,0,11,0,16.5,0c0.2,0,0.4-0.1,0.6,0
		c0.2,0.1,0.3,0.3,0.4,0.4c-0.1,0.1-0.3,0.3-0.4,0.3c-0.6,0.1-1.1,0.1-1.7,0.1c-2.8,0.1-3.7,1-3.9,3.8c0,0.2,0,0.5,0,0.7
		c0,9.4,0,18.8,0,28.1c0,0.7,0.1,1.3,0.2,2c0.3,1.3,1.1,2.2,2.4,2.4c0.8,0.1,1.6,0.1,2.4,0.2c0.4,0.1,0.7,0.3,1,0.4
		c-0.3,0.1-0.7,0.3-1,0.3c-4.3,0-8.5,0-12.8,0c-1.3,0-2.7,0-4,0c-0.2,0-0.5-0.3-0.7-0.4c0.2-0.1,0.5-0.3,0.7-0.3
		c0.8-0.1,1.6-0.1,2.4-0.2c1.7-0.2,2.6-1.1,2.8-2.8c0.1-1.4,0.2-2.8,0.2-4.2C-127.7,376.8-127.7,373-127.8,369.1
		C-127.7,369.1-127.8,369.1-127.8,369.1z"/>
	<path class="st0" d="M20.8,449.8c0,2.2-1.6,3.9-3.8,3.9c-2.2,0-3.8-1.6-3.8-3.9c0-2.2,1.7-4,3.8-4
		C19.1,445.9,20.8,447.6,20.8,449.8z"/>
</g>
</svg>
