<?xml version="1.0" encoding="utf-8"?>
<!-- Generator: Adobe Illustrator 19.0.1, SVG Export Plug-In . SVG Version: 6.00 Build 0)  -->
<svg version="1.1" id="Layer_1" xmlns="http://www.w3.org/2000/svg" xmlns:xlink="http://www.w3.org/1999/xlink" x="0px" y="0px"
	 viewBox="-180 312.1 250.7 168.9" style="enable-background:new -180 312.1 250.7 168.9;" xml:space="preserve">
<style type="text/css">
	.st0{fill:#FFFFFF;}
</style>
<g>
	<path class="st0" d="M-52.9,356.6c21.8,0,39.4,17.7,39.4,39.5c0,21.7-17.7,39.3-39.6,39.3c-21.7,0-39.3-17.7-39.3-39.6
		C-92.3,374.2-74.6,356.6-52.9,356.6z M-53,430c18.7,0,33.9-15.2,34-33.9c0.1-18.7-15.1-33.9-33.9-34c-18.7-0.1-34,15.2-34,33.9
		C-86.9,414.7-71.7,429.9-53,430z"/>
	<path class="st0" d="M-147.7,461c4,1.9,6.3,4.5,6,8.8c-0.4,4.6-3.3,7.2-7.2,8.8c-1.6,0.6-3.3,1.2-5,1.2c-7.7,0.1-15.5,0.1-23.2,0.1
		c-1.3,0-1.7-0.5-1.7-1.7c0-10.9,0-21.7,0-32.6c0-1.3,0.5-1.7,1.8-1.7c7.7,0,15.3-0.1,23,0.1c2.3,0.1,4.8,0.9,6.8,2
		c5.6,3.1,5.9,10,0.9,14C-146.8,460.3-147.1,460.6-147.7,461z M-167.9,471.6c4.2,0,8.1,0.2,12-0.1c1-0.1,2.5-1.6,2.6-2.6
		c0.1-0.9-1.3-2.9-2.1-3c-4.1-0.3-8.3-0.1-12.6-0.1C-167.9,467.8-167.9,469.5-167.9,471.6z M-167.8,452.3c0,1.8,0,3.4,0,5.2
		c3.9,0,7.6,0.2,11.2-0.1c1-0.1,2.2-1.6,2.6-2.6c0.2-0.5-1.3-2.3-2.2-2.3C-160,452.2-163.9,452.3-167.8,452.3z"/>
	<path class="st0" d="M-42.1,466.8c2.2,4.3,4.4,8.5,6.8,13.1c-4.2,0-8,0.1-11.8-0.1c-0.5,0-1.1-0.9-1.4-1.5
		c-1.2-2.4-2.4-4.7-3.4-7.2c-0.8-2-1.9-2.9-4.1-2.6c-1.1,0.2-2.3,0-3.7,0c0,3.7,0,7.3,0,11.1c-3.8,0-7.3,0-11,0
		c0-11.8,0-23.6,0-35.6c0.7-0.1,1.4-0.2,2.1-0.2c6.7,0,13.3,0,20,0c0.6,0,1.2,0,1.7,0.1c5.8,0.5,9.6,3.3,10.8,7.9
		c1.4,5.5-0.6,11-5.4,14.2C-41.6,466.3-41.8,466.5-42.1,466.8z M-59.6,452.4c0,2.8,0,5.3,0,8c3.3,0,6.5,0.1,9.6,0
		c2.4-0.1,3.7-1.5,3.8-3.7c0.1-2.3-1.1-4.1-3.5-4.2C-53,452.3-56.3,452.4-59.6,452.4z"/>
	<path class="st0" d="M-19.1,335.4c2.2,4.3,4.4,8.6,6.8,13.2c-4.2,0-7.9,0.1-11.7-0.1c-0.5,0-1.1-0.8-1.4-1.4
		c-1.3-2.5-2.5-5-3.6-7.6c-0.7-1.7-1.7-2.4-3.5-2.2c-1.3,0.1-2.6,0-4.2,0c0,3.8,0,7.3,0,11.3c-3.5,0-6.7,0.1-9.8-0.1
		c-0.4,0-1.2-1.4-1.2-2.1c-0.1-6.7-0.1-13.5-0.1-20.2c0-3.7,0.1-7.4,0-11.1c-0.1-2,0.7-2.5,2.6-2.5c6.5,0.1,13,0,19.5,0
		c6.7,0,11.2,2.7,12.7,7.4C-11.3,325.8-13.5,331.5-19.1,335.4z M-36.7,329c3.5,0,6.9,0.2,10.2-0.1c2.2-0.1,3.3-1.7,3.3-3.9
		c0-2.1-1.3-3.8-3.6-4c-3.3-0.2-6.5,0-10,0C-36.7,323.7-36.7,326.2-36.7,329z"/>
	<path class="st0" d="M42.8,444.2c0,4.8,0,9.3,0,13.9c5.7,0,11.2,0,17,0c0-4.6,0-9.2,0-13.9c3.8,0,7.3,0,11,0c0,11.8,0,23.6,0,35.6
		c-3.5,0-7,0-10.9,0c0-3.2-0.2-6.5,0.1-9.7c0.2-2.6-0.7-3.3-3.2-3.1c-3.7,0.2-7.4,0.2-11.1,0c-2.5-0.1-3.1,0.8-3,3.1
		c0.2,3.2,0,6.4,0,9.8c-3.8,0-7.4,0-11.1,0c0-11.9,0-23.7,0-35.6C35.2,444.2,38.8,444.2,42.8,444.2z"/>
	<path class="st0" d="M-85.1,349.5c-1.9-0.3-3.9-0.4-5.8-0.9c-8.8-2.1-14.4-8.9-14.5-17.4c-0.1-9.3,5-16.3,14-18.4
		c3.7-0.9,7.9-1,11.7-0.4c10.4,1.7,16.2,9.5,15.4,19.8c-0.7,9.6-8.6,16.7-19.1,17.1c-0.6,0-1.2,0-1.7,0
		C-85.1,349.4-85.1,349.5-85.1,349.5z M-75,330.9c0-6.7-3.5-10.8-9.4-10.8c-6,0-10,4.2-10,10.7c0,6.1,4,10.4,9.7,10.4
		C-78.7,341.2-75,337.3-75,330.9z"/>
	<path class="st0" d="M17.8,467c-1.2,5.4-4,9.1-8.5,11.3c-7.5,3.7-15.2,3.7-22.5-0.4c-6.3-3.5-9.1-9.4-8.9-16.5
		c0.2-6.9,3.4-12.5,9.7-15.6c7.3-3.6,14.8-3.7,22.1,0.2c4.3,2.3,7.1,5.9,8.2,11.2c-3.9,0-7.5,0.1-11-0.1c-0.5,0-1.1-0.8-1.5-1.4
		c-1.9-3.1-4.7-4.3-8.2-3.9c-3.4,0.4-5.9,2.5-6.7,5.8c-0.6,2.3-0.7,4.9-0.4,7.3c0.4,3.9,2.8,6.4,6.2,7.1c4.3,0.9,7.1-0.3,9.4-4
		c0.3-0.4,0.8-1,1.2-1C10.5,467,14,467,17.8,467z"/>
	<path class="st0" d="M-125,444.1c3.7,0,7,0,10.6,0c0,1,0.1,1.9,0.1,2.8c0,6.3,0,12.5,0,18.8c0,3.3,1.3,4.9,4.5,5.4
		c1.6,0.3,3.3,0.3,4.9,0.1c3.6-0.5,5-2.2,5-5.8c0-7,0-14,0-21.2c3.6,0,7,0,10.7,0c0,0.9,0,1.7,0,2.5c0,6.5,0,13,0,19.5
		c0,5.7-3.5,10.6-8.8,12.4c-5.8,1.9-11.7,2-17.5,0.2c-6-1.9-9.4-6.7-9.4-13C-125,458.7-125,451.6-125,444.1z"/>
	<path class="st0" d="M-1,312.7c4,0,7.4-0.1,10.7,0.1c0.7,0,1.6,1,2.1,1.7c2.2,3.6,4.3,7.3,6.7,11.4c2.1-3.3,4.2-6.2,5.8-9.3
		c1.6-3.3,3.9-4.4,7.4-4c2.1,0.3,4.2,0,6.8,0c-0.6,1.1-1,1.8-1.4,2.5c-3.9,6.2-7.9,12.3-11.7,18.6c-0.8,1.4-1.3,3.2-1.4,4.8
		c-0.2,3.3-0.1,6.5-0.1,10.1c-3.3,0-6.4,0.1-9.4-0.1c-0.4,0-1.1-0.9-1.1-1.4c-0.1-1.7-0.2-3.5,0-5.2c0.5-4.3-0.8-7.9-3.3-11.5
		c-3.4-4.9-6.3-10-9.5-15C0.2,314.7-0.2,314-1,312.7z"/>
	<path class="st0" d="M-135.4,322c-4,0-7.6,0-11.3,0c0-3.1,0-6,0-9.1c11.2,0,22.3,0,33.6,0c0,2.9,0,5.9,0,9.1c-3.7,0-7.5,0-11.5,0
		c0,1.9,0,3.4,0,4.9c0,6.5,0,13,0,19.5c0,1.7-0.4,2.4-2.2,2.3c-2.8-0.1-5.6,0-8.7,0C-135.4,339.8-135.4,331-135.4,322z"/>
	<path class="st0" d="M-60,383.1c0.2-0.2,0.4-0.3,0.6-0.4c2.2-1.7,2.1-4.7-0.1-6.4c-0.9-0.7-1.9-1-3-1c-0.8,0-1.7,0-2.6,0
		c0-1,0-2,0-3c0-1,0-1,1-1c2.3,0,4.6,0,7,0c2,0,3.4,0.7,4.2,2.7c0.1-0.2,0.2-0.4,0.3-0.5c0.7-1.3,1.7-2.1,3.2-2.1
		c2.8-0.1,5.6,0,8.4,0c0.1,0,0.1,0,0.3,0.1c0,0.9,0,1.7,0,2.6c0,1.4,0,1.3-1.3,1.4c-0.7,0-1.5,0-2.2,0.1c-2.3,0.4-3.8,2.2-3.7,4.3
		c0.1,1.3,0.7,2.2,1.7,3c0.1,0.1,0.3,0.2,0.5,0.4c-1.4,1-2.3,2.4-2.2,4.2c0.1,1.1,0.5,1.9,1.2,2.7c1.6,1.7,4.4,2,6.3,0.6
		c1.2-0.8,1.9-2,1.9-3.4c0.1-1.4-0.5-2.6-1.6-3.7c4,0,7.9,0,11.8,0c0,4,0,8,0,12.1c-1.1-0.1-2.3,0-3.4-0.2c-1-0.2-1.8-0.9-2.3-1.9
		c-0.1-0.1-0.2-0.3-0.2-0.4c0,0,0,0-0.1,0c-0.1,0.1-0.1,0.3-0.2,0.4c-0.7,1.3-1.8,2.1-3.3,2.1c-3.8,0-7.6,0-11.5,0
		c-1.5,0-2.6-0.8-3.3-2.1c-0.1-0.1-0.1-0.3-0.2-0.5c-0.1,0.2-0.2,0.4-0.3,0.5c-0.7,1.3-1.8,2.1-3.3,2.1c-3.9,0-7.7,0-11.6,0
		c-1.4,0-2.5-0.8-3.2-2c-0.1-0.1-0.2-0.3-0.2-0.4c0,0,0,0,0,0c-0.2,0.4-0.4,0.8-0.7,1.1c-0.5,0.7-1.2,1.2-2.1,1.3
		c-1,0.1-2.1,0.1-3.2,0.2c0-0.3,0-0.5,0-0.7c0-3.6,0-7.3,0-10.9c0-0.4,0.1-0.6,0.6-0.6c3.5,0,7.1,0,10.6,0c0.2,0,0.3,0,0.6,0
		c-1.5,1.5-2,3.1-1.3,5c0.4,1.1,1.1,1.9,2.2,2.4c2.1,1.1,4.8,0.6,6.2-1.3c0.8-1,1.1-2.2,0.8-3.5C-58.1,384.8-58.9,383.8-60,383.1z"
		/>
	<path class="st0" d="M-65.1,416.8c0.9,0,1.7,0,2.5,0c1.1,0,2.1-0.3,3-0.9c2.3-1.7,2.4-4.8,0.1-6.5c-0.1-0.1-0.3-0.2-0.5-0.3
		c1.4-1,2.2-2.2,2.2-4c0-1.1-0.4-2.1-1.2-2.9c-1.7-1.8-4.6-2-6.6-0.4c-1.1,0.9-1.7,2-1.7,3.4c0,1.4,0.6,2.5,1.6,3.5
		c-4,0-7.9,0-11.8,0c0-4,0-8,0-12.1c1.1,0.1,2.3,0,3.4,0.2c1.3,0.2,2,1.2,2.5,2.4c0.1-0.2,0.2-0.4,0.3-0.5c0.7-1.3,1.8-2,3.3-2
		c3.8,0,7.6,0,11.4,0c1.8,0,2.9,1,3.6,2.6c0.1-0.2,0.1-0.3,0.2-0.4c0.7-1.5,1.9-2.2,3.5-2.3c3.6,0,7.1,0,10.7,0c2,0,3.4,0.7,4.1,2.5
		c0,0,0.1,0,0.1-0.1c0.8-1.8,2.3-2.6,4.2-2.5c0.5,0,1.1,0,1.6,0c0,4.1,0,8,0,12.1c-3.9,0-7.8,0-11.8,0c1.5-1.5,2.1-3.2,1.3-5.1
		c-0.4-1.1-1.2-1.9-2.2-2.4c-2.2-1.1-4.9-0.4-6.2,1.6c-1.4,2-0.9,4.3,1.4,6.2c-0.1,0.1-0.3,0.2-0.4,0.3c-2.4,1.8-2.3,5,0.2,6.6
		c0.9,0.6,1.8,0.8,2.9,0.8c0.8,0,1.6,0,2.5,0c0,1,0,2,0,2.9c0,1.1,0,1.1-1.1,1.1c-2.3,0-4.7,0-7,0c-1.8,0-3.2-0.7-3.9-2.4
		c0-0.1-0.1-0.1-0.1-0.2c-0.2,0.3-0.3,0.7-0.5,1c-0.8,1.1-1.8,1.7-3.1,1.7c-2.7,0-5.3,0-8,0c-0.4,0-0.5-0.1-0.5-0.5
		C-65.1,419.2-65.1,418-65.1,416.8z"/>
</g>
</svg>
