<?xml version="1.0" encoding="utf-8"?>
<!-- Generator: Adobe Illustrator 19.0.1, SVG Export Plug-In . SVG Version: 6.00 Build 0)  -->
<svg version="1.1" id="Layer_1" xmlns="http://www.w3.org/2000/svg" xmlns:xlink="http://www.w3.org/1999/xlink" x="0px" y="0px"
	 viewBox="-180 312.1 250.7 168.9" style="enable-background:new -180 312.1 250.7 168.9;" xml:space="preserve">
<style type="text/css">
	.st0{fill:#FFFFFF;}
</style>
<g>
	<path class="st0" d="M56.8,376.9c0.7,0.2,1.4,0.3,2.1,0.5c3.1,1,5.5,3.1,7.3,5.8c2.5,3.8,3.7,8,3.8,12.5c0.1,4.8-0.9,9.3-3.4,13.4
		c-1.8,3.1-4.3,5.5-7.8,6.6c-4.5,1.3-8.6,0.3-12-3c-3.2-3.1-4.9-7-5.8-11.3c-1.1-5.9-0.4-11.6,2.6-16.9c1.8-3.2,4.2-5.7,7.7-7
		c0.8-0.3,1.5-0.4,2.3-0.7C54.7,376.9,55.8,376.9,56.8,376.9z M46.4,397.4c0.1,1.4,0.1,3.8,0.4,6.1c0.2,2.5,0.7,4.9,1.7,7.1
		c1.4,2.8,3.6,4.2,6.8,4.2c3.2,0,5.6-1.5,6.8-4.5c0.7-1.7,1.2-3.5,1.4-5.2c0.8-5.8,0.8-11.6,0-17.4c-0.3-2.4-0.9-4.7-2.3-6.7
		c-2.6-3.7-8.8-4-11.7-0.5c-1.1,1.4-1.8,3-2.2,4.7C46.6,389,46.5,392.7,46.4,397.4z"/>
	<path class="st0" d="M-179.3,377.7c4.5,0,8.9,0,13.4,0c0,0.4,0,0.8,0,1.3c-1.3,0-2.7,0-4.1,0c3,9.4,5.9,18.6,8.9,27.9
		c0.1,0,0.1,0,0.2,0c2.8-9.3,5.7-18.6,8.5-27.9c-1.6,0-3.2,0-4.8,0c0-0.4,0-0.8,0-1.3c3.3,0,6.7,0,10.1,0c0,0.4,0,0.8,0,1.2
		c-1.2,0-2.4,0-3.7,0c-0.3,0.9-0.6,1.8-0.8,2.7c-3.4,11.2-6.8,22.4-10.2,33.7c-0.2,0.8-0.7,1-1.5,0.8c-0.2-0.1-0.3-0.3-0.4-0.5
		c-1.8-5.6-3.6-11.2-5.4-16.8c-2-6.4-4.1-12.7-6.1-19.1c-0.2-0.5-0.4-0.7-0.9-0.7c-1.1,0.1-2.1,0-3.2,0
		C-179.3,378.6-179.3,378.2-179.3,377.7z"/>
	<path class="st0" d="M-95.2,415.4c0-0.4,0-0.8,0-1.3c1.5,0,3,0,4.6,0c0-11.7,0-23.4,0-35.1c-1.5,0-3,0-4.6,0c0-0.5,0-0.9,0-1.3
		c9,0,17.9,0,26.9,0c0,3,0,6.1,0,9.2c-0.4,0-0.7,0-1.1,0c-0.2-0.8-0.3-1.7-0.6-2.5c-1.1-3.5-3.2-5.1-6.8-5.3c-2.7-0.1-5.3-0.1-8-0.1
		c-0.4,0-0.6,0-0.6,0.6c0,5.1,0,10.2,0,15.3c0,0.1,0,0.2,0.1,0.3c1.6,0,3.3,0.1,4.8-0.4c1.1-0.4,1.8-1.2,2.2-2.3
		c0.3-1.1,0.6-2.2,0.8-3.3c0.3,0,0.7,0,1.1,0c0,4.7,0,9.4,0,14.2c-0.4,0-0.7,0-1.1,0c-0.1-0.8-0.2-1.5-0.3-2.3
		c-0.5-2.6-1.7-3.8-4.2-4.2c-1-0.2-2.1-0.2-3.2-0.3c0,5.8,0,11.6,0,17.4c0.1,0,0.3,0.1,0.5,0.1c3,0,6,0,9-0.1c2-0.1,3.8-0.5,5.2-2.1
		c1.1-1.3,1.6-2.9,2-4.5c0.2-0.8,0.3-1.6,0.5-2.5c0.4,0,0.9,0,1.4,0c-0.2,3.5-0.5,7-0.7,10.5C-76.7,415.4-85.9,415.4-95.2,415.4z"/>
	<path class="st0" d="M-59.9,380.5c0,11.2,0,22.3,0,33.6c1.2,0,2.5,0,3.7,0c0,0.5,0,0.9,0,1.3c-3.1,0-6.1,0-9.2,0c0-0.4,0-0.8,0-1.3
		c1.3,0,2.5,0,3.8,0c0-11.7,0-23.4,0-35.1c-1.3,0-2.5,0-3.8,0c0-0.5,0-0.8,0-1.3c0.2,0,0.4,0,0.6,0c2.8,0,5.7,0,8.5,0
		c0.5,0,0.7,0.2,0.9,0.6c4.5,8.7,9,17.3,13.5,26c0.1,0.2,0.2,0.3,0.4,0.7c0-8.7,0-17.2,0-25.9c-1.2,0-2.5,0-3.8,0c0-0.5,0-0.9,0-1.3
		c3.1,0,6.1,0,9.2,0c0,0.4,0,0.8,0,1.2c-1.2,0-2.5,0-3.8,0c0,12.4,0,24.8,0,37.1c-1.2,0.3-1.3,0.3-1.8-0.7
		c-5.9-11.4-11.8-22.8-17.8-34.2c-0.1-0.2-0.3-0.5-0.4-0.7C-59.8,380.5-59.8,380.5-59.9,380.5z"/>
	<path class="st0" d="M34.6,405c0-8.8,0-17.3,0-26c-1.3,0-2.5,0-3.8,0c0-0.5,0-0.9,0-1.3c3,0,6.1,0,9.1,0c0,0.4,0,0.8,0,1.3
		c-1.2,0-2.5,0-3.8,0c0,12.4,0,24.7,0,37c-1.2,0.3-1.3,0.3-1.8-0.7c-6-11.5-12-23.1-18-34.6c-0.1-0.1-0.1-0.2-0.3-0.5
		c0,11.3,0,22.5,0,33.8c1.2,0,2.5,0,3.7,0c0,0.5,0,0.9,0,1.3c-3.1,0-6.1,0-9.2,0c0-0.4,0-0.8,0-1.3c1.3,0,2.5,0,3.8,0
		c0-11.7,0-23.3,0-35.1c-1.3,0-2.5,0-3.8,0c0-0.5,0-0.9,0-1.3c0.2,0,0.4,0,0.6,0c2.8,0,5.7,0,8.5,0c0.5,0,0.7,0.2,0.9,0.6
		c4.5,8.8,9.1,17.5,13.7,26.2C34.4,404.6,34.4,404.7,34.6,405z"/>
	<path class="st0" d="M-151.4,414.1c1.5,0,2.9,0,4.4,0c0,0.4,0,0.8,0,1.3c-3.4,0-6.9,0-10.3,0c0-0.4,0-0.8,0-1.3c0.9,0,1.9,0,2.8,0
		c1.3,0,1.3,0,1.7-1.3c3.6-11.7,7.3-23.3,10.9-35c0.2-0.5,0.4-0.7,0.9-0.7c1.4,0,1.4,0,1.8,1.4c3.4,11.6,6.9,23.2,10.3,34.8
		c0.2,0.6,0.4,0.8,1,0.8c1-0.1,1.9,0,2.9,0c0,0.5,0,0.8,0,1.3c-4.4,0-8.9,0-13.3,0c0-0.4,0-0.8,0-1.3c1.4,0,2.7,0,4.2,0
		c-0.3-1-0.5-1.8-0.8-2.7c-0.7-2.3-1.4-4.6-2-6.9c-0.1-0.5-0.3-0.6-0.8-0.6c-3.4,0-6.8,0-10.2,0c-0.2,0-0.6,0.2-0.7,0.4
		c-1,3.2-2,6.3-2.9,9.5C-151.5,413.9-151.4,413.9-151.4,414.1z M-137.6,402c-1.6-5.2-3.2-10.4-4.9-15.7c-1.8,5.4-3.5,10.5-5.3,15.7
		C-144.4,402-141.1,402-137.6,402z"/>
	<path class="st0" d="M-7.6,377.7c0.1,3.6,0.2,7.2,0.4,10.8c-0.3,0-0.5,0-0.7,0c-0.5,0.1-0.6-0.2-0.7-0.7c-0.2-1.2-0.4-2.5-0.8-3.7
		c-1.1-3.6-3.2-5.2-7-5.3c-0.6,0-1.2,0-1.9,0c0,11.7,0,23.4,0,35.1c1.4,0,2.7,0,4.1,0c0,0.5,0,0.9,0,1.3c-4.5,0-8.9,0-13.4,0
		c0-0.4,0-0.8,0-1.3c1.4,0,2.7,0,4.2,0c0-11.7,0-23.3,0-35.1c-1.1,0-2.2-0.1-3.4,0c-3,0.2-4.3,1.2-5.2,4.1c-0.4,1.5-0.7,3-1,4.5
		c-0.2,1.2-0.3,1.2-1.6,0.9c0.2-3.6,0.4-7.1,0.6-10.8C-25.2,377.7-16.4,377.7-7.6,377.7z"/>
	<path class="st0" d="M-118.7,379c-1.5,0-2.9,0-4.3,0c0-0.5,0-0.8,0-1.3c4.8,0,9.6,0,14.4,0c0,0.4,0,0.8,0,1.3c-1.6,0-3.2,0-4.8,0
		c0,11.7,0,23.4,0,35.1c0.3,0,0.6,0,0.8,0c2.7,0,5.4,0,8.1,0c2.1,0,3.7-0.8,4.9-2.5c1.3-1.8,2.1-3.8,2.6-6c0.1-0.3,0.1-0.5,0.2-0.8
		c0.2,0,0.4,0,0.5,0c0.1,0,0.3,0,0.5,0c-0.2,3.5-0.4,7-0.6,10.5c-8.9,0-17.7,0-26.6,0c0-0.4,0-0.8,0-1.3c1.4,0,2.8,0,4.3,0
		C-118.7,402.4-118.7,390.7-118.7,379z"/>
	<path class="st0" d="M-0.1,379c-1.5,0-2.9,0-4.3,0c0-0.4,0-0.8,0-1.3c4.5,0,9.1,0,13.7,0c0,0.4,0,0.8,0,1.3c-1.4,0-2.8,0-4.3,0
		c0,11.7,0,23.3,0,35.1c1.4,0,2.8,0,4.3,0c0,0.5,0,0.9,0,1.3c-4.6,0-9.1,0-13.7,0c0-0.4,0-0.8,0-1.3c1.4,0,2.8,0,4.3,0
		C-0.1,402.4-0.1,390.7-0.1,379z"/>
</g>
</svg>
