<?xml version="1.0" encoding="utf-8"?>
<!-- Generator: Adobe Illustrator 19.0.1, SVG Export Plug-In . SVG Version: 6.00 Build 0)  -->
<svg version="1.1" id="Layer_1" xmlns="http://www.w3.org/2000/svg" xmlns:xlink="http://www.w3.org/1999/xlink" x="0px" y="0px"
	 viewBox="-180 312.1 250.7 168.9" style="enable-background:new -180 312.1 250.7 168.9;" xml:space="preserve">
<style type="text/css">
	.st0{fill:#FFFFFF;}
</style>
<g>
	<path class="st0" d="M-52.6,429.4c-32.4-0.1-55.7-26.2-56.9-54.4c-1.4-32.2,24.2-58.1,54.2-59.4c33.9-1.5,59.7,26.4,59.7,56.9
		C4.3,401.2-19,429.2-52.6,429.4z M-52.6,421C-25.8,421-4,399.3-4,372.4c0-26.9-21.7-48.6-48.5-48.6c-26.9,0-48.7,21.7-48.7,48.7
		C-101.2,399.3-79.5,421-52.6,421z"/>
	<path class="st0" d="M-123.8,462.7c0,2.7,0,5.5,0,8.2c0,4.3-2.5,6.6-6.7,6.6c-4,0-7.9,0-11.9,0c-3.9,0-6.5-2.5-6.5-6.4
		c0-5.6,0-11.3,0-16.9c0-3.7,2.4-6.2,6.1-6.2c4.3-0.1,8.6-0.1,13,0c3.7,0.1,5.9,2.4,6,6.1c0,0.1,0,0.2,0,0.3
		C-123.8,457.2-123.8,460-123.8,462.7z M-130.2,471.8c0-6.1,0-12,0-18c-4.2,0-8.3,0-12.4,0c0,6.1,0,12,0,18
		C-138.4,471.8-134.4,471.8-130.2,471.8z"/>
	<path class="st0" d="M-10,466c0,4,0,7.7,0,11.5c-2.1,0-4.1,0-6.1,0c0-9.8,0-19.6,0-29.6c2.6,0,5.1,0,7.6,0c3.2,0,6.3,0.1,9.5,0.1
		c4.1,0.1,6.4,2.4,6.4,6.5c0,1.5,0,3,0,4.4c0,4-1.2,5.7-5.2,7.1c1.9,3.8,3.8,7.5,5.8,11.5c-2.4,0-4.5,0-6.7,0c-0.3,0-0.6-0.6-0.8-1
		c-1.4-3.1-2.8-6.2-4.1-9.4c-0.4-0.9-0.8-1.2-1.8-1.1C-6.9,466-8.3,466-10,466z M1.2,460.2c0-2,0-3.9,0-5.7c0-0.3-0.6-0.7-0.9-0.8
		c-3.1-0.1-6.2-0.1-9.3,0c-0.3,0-0.9,0.5-0.9,0.8c-0.1,1.9,0,3.8,0,5.7C-6.2,460.2-2.6,460.2,1.2,460.2z"/>
	<path class="st0" d="M-97.5,453.7c-3.6,0-6.9,0-10.4,0c0,7.9,0,15.8,0,23.8c-2.2,0-4.2,0-6.2,0c0-9.8,0-19.5,0-29.4
		c0.8,0,1.5-0.1,2.3-0.1c4.9,0,9.8-0.1,14.7,0c3.3,0.1,5.7,2.5,5.8,5.8c0.1,7.8,0,15.5,0,23.3c0,0.1-0.1,0.3-0.1,0.5
		c-1.9,0-3.9,0-6,0C-97.5,469.6-97.5,461.8-97.5,453.7z"/>
	<path class="st0" d="M16.8,477.6c0-2,0-3.7,0-5.7c5.4,0,10.8,0,16.3,0c0-2.1,0-3.9,0-6c-0.5,0-1-0.1-1.5-0.1c-2.7,0-5.5,0-8.2,0
		c-3.4-0.1-5.9-2.4-6.1-5.8c-0.1-2.2-0.1-4.3,0-6.5c0.2-3.1,2.4-5.4,5.5-5.5c4.7-0.1,9.4-0.1,14.1,0c0.3,0,1,0.5,1,0.8
		c0.1,1.5,0,3,0,4.8c-2.5,0-4.9,0-7.2,0c-2.3,0-4.6,0-7.1,0c0,2.2,0,4.3,0,6.5c3,0,5.9,0,8.9,0c4.6,0,6.9,2.3,6.9,6.9
		c0,1.7,0.1,3.5-0.1,5.2c-0.3,2.8-2.4,5.2-5.2,5.3c-5.3,0.2-10.5,0.1-15.8,0.1C17.9,477.6,17.4,477.6,16.8,477.6z"/>
	<path class="st0" d="M-41.7,466c0,2,0,3.8,0,5.8c4.7,0,9.3,0,14.1,0c0,2,0,3.8,0,5.8c-2,0-4,0-5.9,0c-2.7,0-5.5,0-8.2,0
		c-3.7,0-6.3-2.6-6.3-6.3c0-5.7,0-11.5,0-17.2c0-3.5,2.5-6.1,5.9-6.1c4.7-0.1,9.4,0,14.1,0c0.1,0,0.3,0.1,0.5,0.2c0,1.8,0,3.5,0,5.5
		c-4.7,0-9.3,0-14.1,0c0,2.3,0,4.3,0,6.6c4.7,0,9.3,0,14.1,0c0,2,0,3.8,0,5.8C-32.3,466-37,466-41.7,466z"/>
	<path class="st0" d="M56.5,471.9c4.8,0,9.4,0,14.2,0c0,2,0,3.8,0,5.7c-5.1,0-10.2,0.1-15.2-0.1c-3-0.1-5.1-2.6-5.1-5.6
		c-0.1-6.1-0.1-12.1,0-18.2c0-3.2,2.1-5.5,5.3-5.6c5-0.1,10,0,15.1,0c0,1.9,0,3.6,0,5.6c-4.8,0-9.4,0-14.2,0c0,2.2,0,4.3,0,6.6
		c4.7,0,9.4,0,14.2,0c0,2,0,3.8,0,5.8c-4.7,0-9.4,0-14.2,0C56.5,468,56.5,469.8,56.5,471.9z"/>
	<path class="st0" d="M-69.9,472.4c0.4-1.2,0.7-2,0.9-2.9c2-6.7,4.1-13.4,6-20.1c0.3-1.2,0.9-1.6,2.1-1.5c1.7,0.1,3.5,0,5.5,0
		c-0.2,0.6-0.3,1.1-0.4,1.6c-2.9,8.9-5.8,17.8-8.6,26.8c-0.3,1-0.8,1.4-1.9,1.4c-2.5-0.1-5,0-7.4-0.1c-0.4,0-1.1-0.4-1.2-0.8
		c-3-9.4-5.9-18.8-8.8-28.2c0-0.1,0-0.3,0-0.6c2,0,4.1-0.1,6.1,0.1c0.4,0,0.9,0.8,1,1.3c2.1,7.1,4.1,14.2,6.1,21.3
		C-70.4,471-70.2,471.5-69.9,472.4z"/>
	<path class="st0" d="M-158.5,471.8c0,2,0,3.8,0,5.6c-0.5,0-0.9,0.1-1.4,0.1c-4.5,0-9.1,0-13.6,0c-4.1,0-6.5-2.4-6.5-6.5
		c0-5.7,0-11.4,0-17.1c0-3.4,2.1-5.8,5.4-5.9c5.3-0.1,10.6,0,16,0c0,1.9,0,3.6,0,5.5c-5,0-10.1,0-15.2,0c0,6.2,0,12.1,0,18.2
		C-168.7,471.8-163.7,471.8-158.5,471.8z"/>
	<path class="st0" d="M-73.7,402.3c1.4-4.4,2.7-8.3,4-12.3c1.2-3.7,2.4-7.4,3.7-11.1c0.4-1.1,0.2-1.7-0.8-2.3
		c-6-4.3-12-8.7-18.1-13.1c-0.5-0.3-0.9-0.7-1.4-1.4c0.5,0,1,0,1.6,0c7.5,0,15,0,22.5,0c1.2,0,1.7-0.4,2.1-1.5
		c2.2-7,4.5-13.9,6.7-20.9c0.2-0.6,0.4-1.3,0.8-2.2c0.4,1.2,0.8,2.1,1.1,3.1c2.2,6.7,4.4,13.4,6.5,20.1c0.4,1.1,0.9,1.4,2,1.4
		c7.5,0,15,0,22.5,0c0.5,0,1,0,2.1,0c-0.8,0.6-1.2,0.9-1.7,1.3c-6,4.3-11.9,8.7-17.9,13c-1.1,0.8-1.4,1.5-1,2.8
		c2.4,7.1,4.7,14.2,7,21.3c0.1,0.4,0.3,0.9,0.6,1.8C-38.8,397-45.7,392-52.6,387C-59.6,392-66.5,397-73.7,402.3z"/>
</g>
</svg>
