<?xml version="1.0" encoding="utf-8"?>
<!-- Generator: Adobe Illustrator 19.0.1, SVG Export Plug-In . SVG Version: 6.00 Build 0)  -->
<svg version="1.1" id="Layer_1" xmlns="http://www.w3.org/2000/svg" xmlns:xlink="http://www.w3.org/1999/xlink" x="0px" y="0px"
	 viewBox="-180 312.1 250.7 168.9" style="enable-background:new -180 312.1 250.7 168.9;" xml:space="preserve">
<g>
	<path d="M70.7,399.2c-0.3,1.8-0.5,3.6-0.9,5.4C67.4,414.2,61.1,420,52,423c-3.7,1.2-7.5,1.7-11.4,1.7c-9.2,0-18.4,0-27.6,0
		c-0.4,0-0.8,0-1.3,0c0-2.8,0-5.6,0-8.5c2.3,0,4.5,0,6.8,0c0-13.2,0-26.3,0-39.4c-2.3,0-4.5,0-6.8,0c0-2.8,0-5.5,0-8.4
		c0.3,0,0.6,0,1,0c9.9,0,19.7-0.1,29.6,0c6.3,0.1,12.2,1.8,17.5,5.2c6.2,4.1,9.5,9.9,10.6,17.1c0.2,1,0.3,1.9,0.4,2.9
		C70.7,395.4,70.7,397.3,70.7,399.2z M31.2,416.1c6.1,0.3,11.8-0.1,17.2-2.8c4.6-2.3,7.8-5.9,8.9-10.9c0.6-2.4,0.8-5,0.7-7.5
		c-0.1-8-4.6-13.9-12.1-16.6c-4.4-1.5-8.9-1.8-13.5-1.7c-1,0-1.3,0.3-1.3,1.3c0,12.4,0,24.7,0,37.1
		C31.2,415.3,31.2,415.6,31.2,416.1z"/>
	<path d="M-29.6,367.2c1.7,0.3,3.3,0.6,5,1c11.7,3.1,20.2,13,21.6,25c1.8,15.9-9.3,30.4-25.2,32.4c-18.2,2.2-30.9-10.4-33.1-24.7
		c-2.4-16.2,8.8-31.2,25.1-33.5c0.5-0.1,0.9-0.2,1.4-0.3C-33.1,367.2-31.3,367.2-29.6,367.2z M-32.2,378.5
		c-4.4,0.1-8.3,1.5-11.4,4.6c-6.1,5.9-7.3,15.8-2.9,23.3c5.6,9.7,19.2,11.2,26.7,2.9c4.2-4.7,5.4-10.3,4.4-16.4
		C-16.9,384.5-24,378.5-32.2,378.5z"/>
	<path d="M-180,368.3c9.1,0,18.3,0,27.5,0c0,2.8,0,5.6,0,8.4c-2.5,0-4.9,0-7.4,0c0,13.2,0,26.3,0,39.4c2.5,0,4.9,0,7.4,0
		c0,2.9,0,5.6,0,8.6c-9.2,0-18.3,0-27.5,0c0-2.9,0-5.7,0-8.6c2.3,0,4.6,0,6.9,0c0-0.3,0-0.4,0-0.5c0-12.7,0-25.3-0.1-38
		c0-0.7-0.2-0.9-0.9-0.9c-2,0-4,0-5.9,0C-180,373.8-180,371.1-180,368.3z"/>
	<path d="M-127.2,386.8c-0.4-6.2-0.7-12.3-1.1-18.5c16.8,0,33.5,0,50.3,0c0,1.7-0.2,3.4,0,5.1c0.4,2.9-0.7,5.1-2.6,7.4
		c-9.7,11.3-19.2,22.8-28.8,34.2c-0.3,0.3-0.5,0.6-0.9,1.1c6.8,0,13.4,0,20.3,0c0.4-2,0.8-4,1.3-6c0.3-1.4,0.6-2.9,0.9-4.3
		c0.1-0.6,0.3-0.9,1-0.9c3,0,5.9,0,8.9,0c0.6,0,0.9,0.1,0.9,0.8c0,6.2,0,12.3,0,18.5c0,0.1,0,0.3-0.1,0.5c-17,0-34,0-51,0
		c0-0.4-0.1-0.8-0.1-1.1c0-2.5,0-5.1,0-7.6c0-0.9,0.2-1.5,0.8-2.2c10.2-12.1,20.3-24.1,30.5-36.2c0.2-0.2,0.3-0.4,0.5-0.8
		c-6.3,0-12.4,0-18.7,0c-0.5,3.3-1.1,6.7-1.6,10.1C-120.3,386.8-123.7,386.8-127.2,386.8z"/>
</g>
</svg>
