<?xml version="1.0" encoding="utf-8"?>
<!-- Generator: Adobe Illustrator 19.0.1, SVG Export Plug-In . SVG Version: 6.00 Build 0)  -->
<svg version="1.1" id="Layer_1" xmlns="http://www.w3.org/2000/svg" xmlns:xlink="http://www.w3.org/1999/xlink" x="0px" y="0px"
	 viewBox="-180 312.1 250.7 168.9" style="enable-background:new -180 312.1 250.7 168.9;" xml:space="preserve">
<g>
	<path d="M-131.9,394.7c5.1,1.4,10,2.4,14.5,4.2c8.4,3.4,9.2,11,2.1,16.7c-2.2,1.8-4.4,4-5.6,6.5c-3.4,6.6-12.6,8.2-16.8,0.2
		c-2.1-3.9-3.7-8.1-5.8-12.6c-1.7,7.4,0.1,13.9,2.9,20.4c-1.1,0.6-2.1,1.1-3.2,1.8c-3.1-5.5-4.4-11.3-4.7-17.7
		c-0.3,0.6-0.7,1.1-1,1.7c-1.5,2.7-2.7,5.7-4.5,8.2c-3.6,5-10.1,4.9-14.1,0.1c-2.9-3.5-5.9-6.9-9-10.2c-4.5-4.9-3.5-11.7,2.8-14.4
		c5-2.1,10.3-3.3,15.6-4.9c-2-0.7-4.3-1.2-6.4-2.1c-3.1-1.3-6.3-2.4-9.1-4.2c-5.7-3.7-5.7-10.3-0.4-14.6c3.2-2.7,6.3-5.6,9.2-8.7
		c4.5-4.8,11.4-4.5,14.3,1.3c2.3,4.6,3.4,9.8,5,14.8c0.3,1,0.5,2,0.7,2.9c1.6-5.4,2.8-10.8,4.9-15.7c3.6-8.3,11.2-8.9,16.7-1.7
		c1.8,2.3,4.1,4.4,6.6,6.1c7.3,5,7.2,12.6-0.7,16.7c-3.6,1.9-7.7,3-11.5,4.5C-130.3,394.1-131.1,394.4-131.9,394.7z"/>
	<path d="M26,399.7c2.2,0,4.4,0,6.7,0c0,10.8,0,21.5,0,32.3c-1.8,0-3.8,0.1-5.8,0c-0.5,0-1.1-0.5-1.4-0.9
		c-4.3-6.2-8.6-12.4-12.9-18.6c-0.3-0.4-0.6-0.8-1-1.3c0,7.1,0,13.9,0,20.8c-2.2,0-4.4,0-6.7,0c0-10.7,0-21.3,0-32.2
		c2,0,4-0.1,6.1,0.1c0.5,0,1,0.7,1.3,1.2c4.3,6.1,8.5,12.2,12.7,18.4c0.2,0.4,0.5,0.7,1,1.4C26,413.4,26,406.6,26,399.7z"/>
	<path d="M-102.2,399.6c3,0,6.2,0,9.3,0c2.1,0,4.2-0.1,6.2,0.3c6.1,1.2,9.9,8,6.1,13.9c-0.1,0.1-0.1,0.3,0.2,0.2
		c1.1,1.9,2.5,3.7,3.1,5.7c1.4,5.3-2.1,10.6-7.7,11.9c-0.9,0.2-1.8,0.3-2.8,0.3c-4.7,0-9.5,0-14.2,0c-0.1,0-0.3,0-0.3,0
		C-102.2,421.2-102.2,410.5-102.2,399.6z M-96.1,418.1c0,2.4,0,4.7,0,7c0,0.3,0.6,0.8,0.9,0.8c2.8,0,5.5,0.1,8.3-0.1
		c2.3-0.2,3.9-1.9,3.9-3.7c0.1-1.9-1.5-3.8-3.8-4C-89.9,417.9-93,418.1-96.1,418.1z M-96.1,412.1c2.7,0,5.2,0.1,7.7-0.1
		c0.9-0.1,2-0.8,2.6-1.5c0.5-0.7,0.6-1.9,0.4-2.7c-0.4-1.5-1.9-2.1-3.3-2.2c-2.1-0.1-4.2-0.1-6.4,0c-0.3,0-0.9,0.5-0.9,0.8
		C-96.2,408.3-96.1,410.1-96.1,412.1z"/>
	<path d="M-67.8,399.6c1.6,0,3.2,0,4.8,0c3.2,0,6.4,0,9.6,0.1c4.8,0.2,8.5,3.3,9.7,8.1c1.2,4.3-0.7,9.1-4.5,11.6
		c-0.4,0.2-0.7,0.5-1.3,0.8c2.7,3.9,5.4,7.8,8.2,11.6c-2.7,0-5.5,0-7.9,0c-2.3-3.4-4.5-6.7-6.8-10c-0.2-0.3-0.8-0.6-1.2-0.6
		c-1.3-0.1-2.6,0-3.9,0c0,3.5,0,7,0,10.6c-2.2,0-4.5,0-6.7,0C-67.8,421.2-67.8,410.5-67.8,399.6z M-61.2,414.7
		c0.2,0.1,0.3,0.1,0.4,0.1c2.2,0,4.4,0,6.6,0c2.4,0,4.3-1.7,4.5-4c0.2-2.3-1.4-4.7-3.8-4.9c-2.6-0.2-5.2-0.1-7.8-0.1
		C-61.2,408.9-61.2,411.8-61.2,414.7z"/>
	<path d="M43.6,399.6c5.9,0.4,11.8-0.9,17.5,1.7c6.4,2.9,10.4,9.8,9.5,16.4c-1,7.1-6.6,13.1-13.7,14c-4.4,0.5-8.9,0.4-13.3,0.5
		C43.6,421.2,43.6,410.5,43.6,399.6z M50.1,425.9c2.1-0.2,4.1-0.1,6-0.5c7.3-1.5,10.6-9.7,6.2-15.4c-2.9-3.7-7.3-4.8-12.2-4
		C50.1,412.6,50.1,419.2,50.1,425.9z"/>
	<path d="M8.2,393.8c-2,0-4.3,0-6.4,0c0-10.7,0-21.4,0-32.2c2.1,0,4.4,0,6.6,0c0,4.7,0,9.4,0,14.5c1.2-1.2,2.1-2.2,3-3.2
		c3-3.2,6.2-6.3,8.9-9.7c1.2-1.4,2.2-1.8,3.9-1.8c2.3,0.1,4.6,0,7.1,0c-4.5,4.6-8.7,9-13.1,13.4c5,6.3,9.9,12.5,14.8,18.8
		c-2.8,0-5.8,0-8.5,0c-0.8-1.2-1.5-2.3-2.3-3.3c-2.8-3.6-5.6-7.2-8.3-10.7c-1.8,1.7-3.5,3.4-5.2,5.1c-0.3,0.3-0.4,0.8-0.4,1.2
		C8.2,388.6,8.2,391.1,8.2,393.8z"/>
	<path d="M-28.3,431.9c-2.4,0-4.8,0-7.2,0c4.4-10.7,8.8-21.3,13.3-32.2c2,0,4.4,0,6.4,0c4.5,10.8,8.9,21.5,13.3,32.2
		c-2.3,0-4.9,0-7.4,0c-0.1-0.5-0.1-0.9-0.2-1.3c-0.7-3.6-1.1-4-4.7-4c-3.5,0-6.9,0-10.4,0c-0.9,0-1.4,0.2-1.6,1.1
		C-27.3,429.1-27.8,430.4-28.3,431.9z M-19,408.6c-1.7,4-3.2,7.7-4.8,11.6c3.3,0,6.3,0,9.5,0C-15.9,416.3-17.4,412.7-19,408.6z"/>
	<path d="M-51.1,361.6c2,0,4.2,0,6.3,0c0,6.4,0.1,12.8,0,19.2c-0.1,6.1-5.4,12.1-11.5,13.3c-8.5,1.7-16.1-3.3-17.9-11.8
		c-0.2-1.2-0.2-2.5-0.2-3.7c0-4.2,0-8.4,0-12.6c0-1.5-0.1-2.9-0.2-4.5c2.2,0,4.4,0,6.5,0c0,6,0,12,0,18c0,4.1,3,7.8,6.9,8.4
		c5.3,0.9,10-2.6,10.2-8C-50.9,373.9-51.1,367.8-51.1,361.6z"/>
	<path d="M-6.9,365.7c-1.8,1.7-3.6,3.3-5.3,4.9c-2.1-3-6.7-4.2-11.3-2.8c-4.1,1.3-7.4,5.3-7.4,9.2c-0.1,5,2.5,8.8,7.3,10.5
		c4.4,1.6,9.1,0.4,11.5-2.8c1.7,1.6,3.4,3.3,5.1,4.9c-4.2,3.1-8.7,5-14,4.8c-7.7-0.3-14.8-6.7-16-14.3c-1.6-9.8,6.4-18.9,16.5-19.2
		c4.1-0.1,7.9,0.9,11.3,3.3C-8.6,364.8-7.8,365.2-6.9,365.7z"/>
	<path d="M35.6,361.5c3,0,5.6,0,8.3,0c0.3,0,0.6,0.5,0.9,0.8c2.8,3.9,5.5,7.9,8.5,12c0.8-1.1,1.5-1.9,2.1-2.8
		c2.2-3.2,4.5-6.5,6.7-9.7c0.1-0.2,0.5-0.3,0.7-0.3c2.6,0,5.2,0,8,0c-1.8,2.4-3.5,4.7-5.2,6.9c-2.9,3.8-5.7,7.7-8.5,11.5
		c-0.3,0.3-0.6,0.8-0.6,1.2c0,4.2,0,8.4,0,12.6c-1.9,0-4.2,0-6.3,0c0-4,0-8,0-12c0-0.6-0.1-1.2-0.4-1.6c-4.1-5.6-8.3-11.2-12.4-16.7
		C36.8,362.8,36.3,362.3,35.6,361.5z"/>
	<path d="M-80.1,386.9c0,2.3,0,4.8,0,7.1c-8,0-16,0-24.2,0c0-5.6,0-10.9,0-16.2c0-5.3,0-10.6,0-16.1c2,0,4.3,0,6.5,0
		c0,8.4,0,16.8,0,25.3C-91.9,386.9-86,386.9-80.1,386.9z"/>
</g>
</svg>
