<?xml version="1.0" encoding="utf-8"?>
<!-- Generator: Adobe Illustrator 19.0.1, SVG Export Plug-In . SVG Version: 6.00 Build 0)  -->
<svg version="1.1" id="Layer_1" xmlns="http://www.w3.org/2000/svg" xmlns:xlink="http://www.w3.org/1999/xlink" x="0px" y="0px"
	 viewBox="-180 312.1 250.7 168.9" style="enable-background:new -180 312.1 250.7 168.9;" xml:space="preserve">
<style type="text/css">
	.st0{fill:#FFFFFF;}
</style>
<g>
	<path class="st0" d="M-55.2,376.5c2.5,1.9,4.3,4,4.9,7c0.6,2.7,0.1,5.3-0.7,7.9c-1.1,3.4-3.2,6.4-5.3,9.2c-3.3,4.4-7.4,7.9-12.5,10
		c-3.2,1.3-6.6,2.2-10,2.7c-4.3,0.6-8.6,0.9-13,0.9c-17.4,0-34.8,0.1-52.2,0.2c-3.1,0-6.2,0-9.3-0.1c-3.5-0.1-7,0-10.5-0.3
		c-4-0.3-7.9-1.3-11.4-3.4c-3.6-2.2-5.3-6-4.7-10c0.5-3.4,2-6.3,3.7-9.2c0.6-0.9,1.3-1.8,1.8-2.8c0.3-0.6,0.8-0.7,1.4-0.7
		c2.4,0,4.7,0,7.1,0c0.3,0,0.6,0,1,0c-1.7-1.8-2.7-3.8-3.1-6.1c-0.5-2.9-0.1-5.8,0.7-8.7c1.3-4.3,3.4-8.1,6.4-11.4
		c4.5-5,10.2-8,16.8-9.5c3.1-0.7,6.3-1,9.5-1.3c4.3-0.3,8.6-0.5,12.9-0.6c7.2-0.1,14.4-0.2,21.6-0.2c4.7,0,9.4,0.1,14,0.1
		c8.2,0,16.4,0,24.6,0.1c4.7,0.1,9.3,0.7,13.6,2.9c3.2,1.6,5.5,4.1,6.5,7.6c0.7,2.5,0.2,4.9-0.9,7.1c-1.3,2.8-2.9,5.4-4.4,8.1
		c-0.1,0.2-0.6,0.4-0.9,0.4C-50.1,376.5-52.5,376.5-55.2,376.5z M-65.1,376.2c2.2,0,4.2,0,6.2,0c0.3,0,0.7-0.2,0.9-0.4
		c1.2-2,2.3-4,3.3-6.1c1.1-2.2,1.7-4.5,1.2-6.9c-0.7-3.7-3.2-6.1-6.5-7.6c-3.2-1.4-6.6-1.9-10-1.9c-5.5-0.1-10.9-0.1-16.4-0.1
		c-4.3,0-8.7-0.1-13-0.1c-6.3,0-12.5,0.1-18.8,0.2c-5.2,0-10.4,0.2-15.6,0.9c-3.3,0.4-6.5,1.3-9.4,2.8c-4.2,2.1-7.3,5.5-9.7,9.4
		c-1.8,3-3.6,6-4,9.5c-0.6,4.8,0.9,8.7,4.8,11.6c0.2,0.1,0.4,0.1,0.6,0.2c-0.1,0.1-0.2,0.2-0.3,0.3c-3.1,0-6.2,0-9.4,0
		c-0.3,0-0.8,0.2-1,0.4c-1.1,2.1-2.3,4.1-3.3,6.2c-1.1,2.6-1.7,5.3-1.1,8.1c0.8,3.7,3.2,6,6.7,7.2c3.6,1.3,7.4,1.4,11.2,1.6
		c2.9,0.1,5.8,0.1,8.6,0.1c4.2,0,8.5,0.1,12.7,0.1c5.6,0,11.3-0.1,16.9-0.1c5.3,0,10.5-0.1,15.8-0.2c3.9,0,7.7-0.4,11.5-1.2
		c4.7-1,8.9-2.8,12.4-6.1c4-3.8,6.9-8.3,8.9-13.4c1-2.6,1.5-5.2,0.8-8C-61.6,380.1-62.9,378-65.1,376.2z"/>
	<path class="st0" d="M-94.3,422.4c7.8,0,15.5,0,23.4,0c-0.3,1.3-0.6,2.6-0.9,3.9c-4.1-0.9-8.2-0.3-12.3-0.5c-0.2,0-0.6,0.2-0.7,0.4
		c-0.7,1.4-1.3,2.7-2,4.3c4.1-0.1,8.1,0.3,12.3-0.6c-0.7,1.5-1.3,2.8-1.9,4.1c-0.1,0.2-0.4,0.3-0.6,0.3c-3.6-0.9-7.2-0.3-10.8-0.5
		c-0.2,0-0.5,0.2-0.6,0.4c-0.8,1.6-1.5,3.3-2.4,5.1c4.7-0.2,9.2,0.4,13.9-0.5c-0.9,1.3-1.7,2.6-2.6,3.7c-0.2,0.2-0.7,0.2-1.1,0.2
		c-10.5,0-21,0-31.5,0c-0.8,0-1.9,0.3-2.4-0.2c-0.5-0.4-0.5-1.5-0.7-2.3c-0.5-2-1-4-1.5-6c-3.5,1.1-5,4-5.6,8.4c-3.9,0-7.9,0-11.7,0
		c3.1-4.2,4.6-9.3,6.9-13.9c0.5-1,1-2,1.4-3.1c0.4-1,0.6-2.1,1-3.2c3.7,0,7.7,0,11.7,0c-2.4,2.5-3.1,5.8-4.6,8.8
		c1.5-1,3.1-1.9,4.6-2.9c2-1.2,3.9-2.5,5.9-3.7c0.8-0.5,1.4-1.2,1.6-2.2c3.1,0,6.2,0,9.2,0c-3.4,1.2-6.2,3.3-9.3,5
		c-1.8,1-1.7,1-1.1,2.9c1,3.1,2,6.3,3.1,9.4c0.2,0.7,0.6,1.3,0.9,2C-101.2,439.9-94.4,424.4-94.3,422.4z"/>
	<path class="st0" d="M23.6,433.9c-0.9,0-1.8,0-2.7,0c-0.2,0-0.5,0.2-0.6,0.4c-0.9,2-1.9,4-2.7,6.1c-0.3,0.7-0.3,1.4-0.5,2.2
		c-3.9,0-7.8,0-11.6,0c3.5-5.4,5.6-11.6,8.4-17.4c0.4-0.8,0.5-1.8,0.7-2.8c-0.1,0-0.2-0.1-0.2-0.1c0.2,0,0.3-0.1,0.5-0.1
		c7.8,0,15.6,0,23.4,0c0.8,0,1.7,0.2,2.4,0.5c1.2,0.4,1.7,1.4,1.3,2.6c-0.8,2-1.7,4.1-2.6,6c-0.9,1.8-2.6,2.2-4.4,2.4
		c-0.2,0-0.4,0-0.7,0c0.6,3,1.1,5.9,1.6,8.8c-3.7,0-7.5,0-11.4,0C24.2,439.8,23.9,436.9,23.6,433.9z M22.1,430.5c2.2,0,4.3,0,6.4,0
		c0.7,0,1.2-0.4,1.5-1.1c0.4-0.9,0.8-1.7,1.1-2.6c0.3-0.8,0.2-1-0.6-1c-1.9,0-3.9,0-5.8,0c-0.2,0-0.5,0.1-0.6,0.2
		C23.5,427.5,22.8,429,22.1,430.5z"/>
	<path class="st0" d="M-21.8,442.8c-3.7,0-7.6,0-11.6,0c2.3-2.5,3.2-5.8,4.8-8.8c-1.3,0-2.4,0-3.6,0c-1.1,0-2.3,0-3.4,0
		c-0.2,0-0.6,0.1-0.7,0.3c-1,2.4-2.1,4.7-3.1,7.1c-0.2,0.4-0.1,0.9-0.2,1.4c-3.9,0-7.8,0-11.6,0c3.6-5.6,5.8-11.9,8.6-17.9
		c0.3-0.7,0.4-1.6,0.6-2.4c3.8,0,7.7,0,11.8,0c-2.3,2.2-3,5.3-4.6,8.1c2.5,0,4.9,0,7.3,0c0.2,0,0.4-0.3,0.5-0.5
		c0.8-1.7,1.6-3.5,2.4-5.3c0.3-0.7,0.3-1.5,0.4-2.3c3.9,0,7.8,0,11.7,0c-0.7,1-1.5,2-2,3.2c-2.2,4.7-4.3,9.4-6.5,14.1
		C-21.3,440.6-21.5,441.6-21.8,442.8z"/>
	<path class="st0" d="M52.8,428.7c3,0,5.9,0,8.9,0c1,0,2,0,3,0.2c2.2,0.4,2.9,1.7,2,3.8c-0.8,1.8-1.6,3.5-2.4,5.3
		c-1.4,3.1-3.9,4.7-7.2,4.7c-6.6,0.1-13.2,0-19.8,0c-0.1,0-0.2,0-0.3-0.1c0.3-1.4,0.6-2.7,1-4.1c2.3,1.1,4.8,0.7,7.2,0.8
		c2.2,0,4.4,0,6.7,0c1.3,0,2.2-0.3,2.6-1.7c0.1-0.4,0.3-0.7,0.5-1.2c-0.4-0.1-0.8-0.2-1.1-0.2c-2.9,0-5.8,0-8.7,0c-1,0-2-0.1-3-0.3
		c-1.4-0.3-2-1.1-1.6-2.4c1.2-3.2,2.1-6.5,4.6-9c1.3-1.3,2.9-2,4.7-2c6.8-0.1,13.6,0,20.4-0.1c0.1,0,0.2,0,0.3,0.1
		c-0.4,1.3-0.8,2.6-1.2,3.8c-4.6-0.9-9.3-0.3-13.9-0.5C53.7,425.8,52.9,426.7,52.8,428.7z"/>
	<path class="st0" d="M-160.7,442.8c0.4-1.4,0.7-2.8,1-3.9c1.5,0.2,2.8,0.4,4.2,0.4c3.3,0.1,6.5,0,9.8,0c1.3,0,2-0.4,2.4-1.6
		c0.1-0.4,0.3-0.8,0.5-1.3c-0.5-0.1-0.9-0.2-1.3-0.2c-3.1,0-6.2,0-9.4,0c-0.9,0-1.7-0.1-2.6-0.4c-1.1-0.3-1.6-1.2-1.2-2.3
		c1.1-2.9,2.1-5.9,4-8.4c1.4-1.8,3.4-2.7,5.6-2.7c6.6-0.1,13.3,0,19.9,0c0.1,0,0.1,0,0.3,0.1c-0.3,1.3-0.6,2.6-0.9,3.9
		c-4.8-1.1-9.6-0.3-14.4-0.5c-0.8,0-1.4,0.3-1.6,1.1c-0.1,0.4-0.4,0.9-0.7,1.5c0.7,0.1,1.2,0.2,1.7,0.2c2.9,0,5.8,0,8.6,0
		c0.9,0,1.8,0.2,2.6,0.5c1.3,0.5,1.9,1.4,1.3,2.7c-1.1,2.7-2.3,5.3-3.7,7.8c-1.2,2.1-3.4,3-5.7,3
		C-146.9,442.8-153.7,442.8-160.7,442.8z"/>
	<path class="st0" d="M-8,439.4c4.7-0.3,9.2,0.4,13.9-0.6c-0.9,1.3-1.8,2.6-2.7,3.8c-0.1,0.1-0.4,0.2-0.6,0.2c-7.6,0-15.2,0-22.9,0
		c-0.1,0-0.2,0-0.2,0c3.5-5.4,5.5-11.6,8.4-17.3c0.2-0.4,0.4-0.9,0.5-1.4c0.1-0.5,0.1-1,0.1-1.6c7.8,0,15.5,0,23.4,0
		c-0.3,1.3-0.6,2.6-0.9,3.8c-4.1-0.8-8.3-0.3-12.4-0.4c-0.2,0-0.5,0.1-0.6,0.3c-0.7,1.4-1.3,2.8-2,4.4c4.1-0.2,8.2,0.3,12.3-0.6
		c-0.7,1.6-1.4,3-2.1,4.5c-3.6-0.9-7.3-0.4-11-0.6c-0.6,0-0.9,0.2-1.1,0.7C-6.5,436.2-7.2,437.7-8,439.4z"/>
	<path class="st0" d="M-50.2,437.9c-1.1,1.6-2.1,3.1-3.2,4.5c-0.2,0.2-0.5,0.4-0.8,0.4c-5.8,0-11.6,0-17.5,0c-0.7,0-1.4-0.2-2.1-0.5
		c-1.5-0.6-2-2-1.3-3.8c1.1-2.8,2.4-5.6,3.7-8.4c0.8-1.8,1.6-3.7,3.1-5.2c1.6-1.6,3.6-2.4,5.8-2.5c5.8-0.1,11.6-0.1,17.5-0.1
		c0.1,0,0.2,0,0.4,0.1c-0.4,1.6-0.8,3.2-1.2,4.8c-3.7-1.1-7.4-0.5-11.1-0.6c-0.9,0-1.6,0.4-2,1.2c-1.4,3.1-2.9,6.2-4.3,9.3
		c-0.5,1.1-0.3,1.5,1,1.5c3.8,0,7.6,0.1,11.3-0.7C-50.8,437.9-50.6,437.9-50.2,437.9z"/>
	<path class="st0" d="M-86.7,372.7c0.1-0.3,0.1-0.5,0.2-0.7c0.5-2.1-0.2-3.3-2.4-3.6c-1.3-0.2-2.7-0.3-4-0.4c-4.6,0-9.2-0.1-13.8,0
		c-3.6,0.1-7.2,0.3-10.8,0.5c-1.7,0.1-3.3,0.6-4.6,1.7c-1,0.8-1.6,1.8-1.7,3.1c-0.1,1,0.4,1.7,1.2,1.9c1.4,0.4,2.9,0.7,4.3,0.8
		c1.7,0.2,3.4,0.1,5.1,0.1c7.9,0.1,15.8,0.1,23.7,0.2c3.6,0.1,7.3,0,10.8,1.1c1.4,0.4,2.8,1.1,4,1.9c2.1,1.4,2.5,3.6,2.1,5.9
		c-1,5.6-3.5,10.4-7.5,14.4c-2.8,2.8-6.2,4.5-10.1,5.3c-2.9,0.6-5.9,1-8.8,1.3c-4,0.3-7.9,0.5-11.9,0.6c-8.2,0.1-16.3,0.2-24.5,0.1
		c-4,0-8-0.2-11.9-1.2c-1.1-0.3-2.3-0.8-3.2-1.4c-2.3-1.6-2.6-4-1.8-6.4c0.7-2.2,1.7-4.4,2.6-6.5c0.1-0.2,0.4-0.4,0.6-0.4
		c5.9,0,11.9,0,17.8,0c0,0,0.1,0,0.1,0.1c-0.2,0.6-0.4,1.2-0.6,1.7c-0.3,1.1,0,2.2,1.1,2.6c1.1,0.4,2.2,0.7,3.4,0.8
		c3.9,0.1,7.8,0.2,11.8,0.2c3.7,0,7.4,0,11.1-0.2c2.4-0.1,4.8,0,7.1-0.8c2.1-0.8,3.3-2.2,4-4.2c0.4-1.3-0.1-2.4-1.4-2.8
		c-1.4-0.4-2.9-0.7-4.3-0.7c-6.8-0.1-13.6,0-20.4-0.1c-4.2,0-8.4-0.2-12.7-0.4c-2.8-0.1-5.6-0.3-8.3-1.2c-2.5-0.9-4.4-2.4-4.5-5.2
		c0-1.7,0.3-3.4,0.9-5c1.4-3.9,3.2-7.5,5.9-10.6c2.4-2.7,5.4-4.5,8.8-5.5c2.7-0.7,5.5-1.3,8.3-1.6c4.3-0.4,8.7-0.7,13.1-0.8
		c6.6-0.1,13.2-0.1,19.8-0.1c2.8,0,5.6,0,8.4,0.2c2.9,0.1,5.8,0.3,8.5,1.3c4.1,1.5,6.1,4.4,4.6,9c-0.5,1.6-1.1,3.1-1.8,4.6
		c-0.1,0.2-0.4,0.4-0.6,0.4C-74.8,372.7-80.7,372.7-86.7,372.7z"/>
</g>
</svg>
