<?xml version="1.0" encoding="utf-8"?>
<!-- Generator: Adobe Illustrator 19.0.1, SVG Export Plug-In . SVG Version: 6.00 Build 0)  -->
<svg version="1.1" id="Layer_1" xmlns="http://www.w3.org/2000/svg" xmlns:xlink="http://www.w3.org/1999/xlink" x="0px" y="0px"
	 viewBox="-180 312.1 250.7 168.9" style="enable-background:new -180 312.1 250.7 168.9;" xml:space="preserve">
<style type="text/css">
	.st0{fill:#FFFFFF;}
</style>
<g>
	<path class="st0" d="M-87.9,421c-3.1,0-5.9,0-9.1,0c2.5-16.4,5-32.6,7.5-49.1c2.9,0,5.7-0.1,8.5,0.1c0.4,0,1,0.9,1.2,1.5
		c3.8,9,7.6,18.1,11.5,27.2c0.2,0.5,0.5,1.1,0.9,1.9c1.7-4.6,3.4-8.8,5-13.1c2-5.4,4.1-10.7,6.1-16.1c0.4-1.2,1-1.6,2.2-1.5
		c2.5,0.1,5.1,0,7.8,0c2.7,16.3,5.4,32.6,8.2,49.2c-2.9,0-5.7,0-8.4-0.1c-0.3,0-0.7-0.8-0.8-1.3c-1.3-7.8-2.6-15.7-3.9-23.6
		c-0.3-2-0.7-4-1.1-6.6c-2.1,5.4-4.1,10.2-6,15.1c-2,5-4,10.1-6,15.2c-0.3,0.9-0.8,1.3-1.8,1.3c-4.1,0.1-4.1,0.1-5.7-3.6
		c-3.4-8.1-6.8-16.1-10.2-24.2c-0.3-0.8-0.7-1.5-1.2-2.7C-84.9,401-86.4,410.9-87.9,421z"/>
	<path class="st0" d="M10.1,391.7c0,2.9,0,5.5,0,8.3c-9.2,0-18.3,0-27.5,0c0,4.2,0,8.2,0,12.5c10.5,0,21,0,31.6,0c0,2.9,0,5.6,0,8.4
		c-13.9,0-27.7,0-41.7,0c0-16.4,0-32.8,0-49.3c13.9,0,27.7,0,41.7,0c0,2.8,0,5.6,0,8.7c-10.5,0-21,0-31.6,0c0,3.8,0,7.4,0,11.3
		C-8.3,391.7,0.9,391.7,10.1,391.7z"/>
	<path class="st0" d="M41.8,395c-5.3-7.7-10.5-15.2-16-23.1c3.5,0,6.7-0.1,9.9,0.1c0.5,0,1.1,0.6,1.4,1.1c3.3,4.7,6.6,9.4,9.9,14.3
		c2.3-3.3,4.6-6.5,6.8-9.7c1.3-1.9,2.3-4.4,4.1-5.4c1.8-1,4.5-0.3,6.8-0.3c1.1,0,2.2,0,3.6,0c-5.4,7.8-10.6,15.4-16,23.1
		c5.9,8.6,11.9,17.1,18.2,26.2c-3.8,0-7,0.1-10.2-0.1c-0.5,0-1-0.8-1.4-1.3c-3.6-5.1-7.1-10.3-10.7-15.5c-0.4-0.5-0.8-1-1.2-1.7
		c-3.3,4.8-6.8,9.3-9.7,14.2c-2,3.4-4.3,5.1-8.4,4.4c-1.6-0.3-3.2,0-5.4,0C29.9,412.2,35.9,403.6,41.8,395z"/>
	<path class="st0" d="M-160,421c0-13.3,0-26.5,0-39.9c-6.7,0-13.3,0-20,0c0-3.1,0-6,0-9c16.9,0,33.8,0,50.9,0c0,2.9,0,5.8,0,8.9
		c-6.7,0-13.3,0-20.2,0c0,13.5,0,26.7,0,40.1C-152.9,421-156.3,421-160,421z"/>
	<path class="st0" d="M-118.5,372c3.5,0,6.9,0,10.5,0c0,16.3,0,32.6,0,49c-3.4,0-6.9,0-10.5,0C-118.5,404.7-118.5,388.4-118.5,372z"
		/>
</g>
</svg>
