<?xml version="1.0" encoding="utf-8"?>
<!-- Generator: Adobe Illustrator 19.0.1, SVG Export Plug-In . SVG Version: 6.00 Build 0)  -->
<svg version="1.1" id="Layer_1" xmlns="http://www.w3.org/2000/svg" xmlns:xlink="http://www.w3.org/1999/xlink" x="0px" y="0px"
	 viewBox="0 0 208 76" style="enable-background:new 0 0 208 76;" xml:space="preserve">
<style type="text/css">
	.st0{fill:#0873AA;}
</style>
<g>
	<path class="st0" d="M208,21c-2.9,8.6-5.9,17.2-8.6,25.8C194.7,61.6,182.8,66,169.2,68c-2.3,0.3-4.7,0.2-7,0
		c-7-0.4-12.5-3.2-15.1-10.2c-1.4-3.7-2.5-7.5-4-11.2c-0.7-1.8-2.3-4.8-3.1-4.6c-2.5,0.4-5.6,1.5-7.2,3.3c-2.4,2.8-3.9,6.5-5.6,9.9
		c-7.2,14.1-18.7,21-34.6,20.8c-4.5-0.1-9,0.1-13.5,0c-14.9-0.4-22.2-6.4-22.8-21.1c-0.4-8.9-4.1-13.6-11.5-17.7
		C31.9,30,19.7,21.8,7.1,13.9c-0.5,2.3-1.5,5.4-2,8.6C4.4,27,2.8,27.4,0,24c0-2.7,0-5.3,0-8c0.3-0.7,0.8-1.4,1-2.2
		C3.5,3.6,5.4,2.8,15,7.7C25.7,13.2,36.5,18.8,47.3,24c2.4,1.1,5.4,1.6,8,1.2c26.6-3.7,53.2-5.3,79.5,2.4c2.1,0.6,4.7,0.5,6.8-0.2
		c9.6-3.2,19.1-6.7,29.5-10.4c-8.5-3.5-16.3-6.9-24.4-9.9c-6.2-2.3-12.4-1.6-18.1,1.9c-5.4,3.3-10.7,6.6-16.3,9.6
		c-2.1,1.1-5.1,3.5-6.6-0.3c-0.4-1.1,1.9-4.2,3.6-5.2c8.4-4.6,17-8.8,25.5-13.1c4.3,0,8.7,0,13,0c10.6,3,21.2,5.9,31.8,9.1
		c9.5,2.8,18.8,5.9,28.2,8.9C208,19,208,20,208,21z M99.6,27.3c0-0.1,0-0.1,0-0.2c-3.7,0-7.3-0.1-11,0c-3.3,0.1-6.7,0.4-9.9,0.9
		c-11.4,1.5-15.2,5.1-16.9,16.3c-0.7,4.4-0.7,8.9-0.7,13.4c0,6.9,3,10.4,9.5,12.1c9.5,2.5,19.1,2.1,28.7,0.8
		c10.2-1.4,16.7-6.8,19.4-17.2c1.5-5.6,4.6-11,7.6-16c2.2-3.7,1-5.6-2-7.2c-1.6-0.8-3.5-1.1-5.3-1.3
		C112.6,28.4,106.1,27.9,99.6,27.3z M163.6,64c0.8,0,1.7,0.1,2.5,0c18.6-1.6,29.4-8.9,30.7-30.6c0.1-2.2-1.4-5.7-3.3-6.8
		c-12.8-7.8-25.5-4.6-37.5,2c-2.9,1.6-5.5,5.6-6,8.9c-0.7,5.3,0,10.9,0.9,16.2C152.6,62.7,154.6,64,163.6,64z"/>
</g>
</svg>
